<svg width="30" height="30" viewBox="0 0 30 30" fill="none" xmlns="http://www.w3.org/2000/svg">
<path d="M14.4862 1.79993C9.44613 1.79993 5.40039 5.70253 5.40039 10.4906V19.6732C5.40039 24.3957 9.41184 28.1999 14.3147 28.1999H14.4862C19.4233 28.1999 23.4005 24.3629 23.4005 19.6732V10.3266C23.4005 5.63694 19.4233 1.79993 14.4862 1.79993ZM14.4862 3.43968C18.4633 3.43968 21.7205 6.55524 21.7205 10.3595V16.4265H7.11469V10.5234C7.0804 6.62083 10.4061 3.43968 14.4862 3.43968ZM14.4862 26.593H14.3147C10.3376 26.593 7.08045 23.4774 7.08045 19.6732V18.0335H21.6862V19.6732C21.7205 23.5102 18.4633 26.593 14.4862 26.593Z" fill="#636466"/>
<path d="M14.4184 15.804C16.8527 15.804 18.807 13.8691 18.807 11.475C18.807 9.11378 16.8184 7.21167 14.4184 7.21167C14.4184 7.21167 14.4184 7.21167 14.3841 7.21167C11.9498 7.21167 9.99546 9.14656 10.0297 11.5406C10.0297 13.9018 11.9841 15.804 14.4184 15.804ZM12.4984 9.60572C13.0127 9.1138 13.6641 8.81859 14.3841 8.81859C15.8584 8.81859 17.0584 9.99925 17.0927 11.475C17.0927 12.1965 16.8184 12.8852 16.3041 13.3772C15.7898 13.8691 15.1384 14.1642 14.4184 14.1642C12.9441 14.1642 11.7441 12.9836 11.7098 11.5079C11.7098 10.7864 11.9841 10.1304 12.4984 9.60572Z" fill="#EB002F"/>
<path d="M14.4172 13.1145C15.3087 13.1145 16.0629 12.393 16.0287 11.5075C16.0287 10.6221 15.3087 9.93335 14.4172 9.93335C13.5258 9.93335 12.8058 10.6548 12.8058 11.5403C12.7715 12.3929 13.5258 13.1145 14.4172 13.1145Z" fill="#EB002F"/>
<path d="M16.6454 22.5591H12.154C11.674 22.5591 11.2969 22.9198 11.2969 23.379C11.2969 23.8381 11.674 24.1988 12.154 24.1988H16.6454C17.1254 24.1988 17.5026 23.8381 17.5026 23.379C17.5026 22.9198 17.1254 22.5591 16.6454 22.5591Z" fill="#636466"/>
<path d="M13.0793 6.32415C13.9708 5.93061 14.8279 5.93061 15.7537 6.32415C15.8565 6.38974 15.9937 6.38972 16.0965 6.38972C16.4051 6.38972 16.7136 6.22578 16.885 5.93062C17.0907 5.53708 16.885 5.04514 16.4736 4.84837C15.1022 4.25806 13.6965 4.25806 12.3593 4.84837C11.9479 5.04514 11.7422 5.53708 11.9479 5.93062C12.1536 6.32416 12.6336 6.52092 13.0793 6.32415Z" fill="#EB002F"/>
</svg>
