<svg width="48" height="48" viewBox="0 0 48 48" fill="none" xmlns="http://www.w3.org/2000/svg">
<path d="M37.1543 23.3639C32.2739 23.3639 28.3086 19.4721 28.3086 14.6821C28.3086 9.892 32.2739 6 37.1543 6C42.0347 6 46 9.892 46 14.6821C46 19.4721 41.9966 23.3639 37.1543 23.3639ZM37.1543 7.90858C33.3415 7.90858 30.215 10.9771 30.215 14.7193C30.215 18.4616 33.3415 21.5303 37.1543 21.5303C40.9671 21.5303 44.0936 18.4616 44.0936 14.7193C44.0936 10.9771 40.9671 7.90858 37.1543 7.90858Z" fill="#636466"/>
<path d="M10.8457 23.3639C5.96531 23.3639 2 19.4721 2 14.6821C2 9.892 5.96531 6 10.8457 6C15.7261 6 19.6914 9.892 19.6914 14.6821C19.6914 19.4721 15.7261 23.3639 10.8457 23.3639ZM10.8457 7.90858C7.0329 7.90858 3.90641 10.9771 3.90641 14.7193C3.90641 18.4616 7.0329 21.5303 10.8457 21.5303C14.6585 21.5303 17.785 18.4616 17.785 14.7193C17.785 10.9771 14.6585 7.90858 10.8457 7.90858Z" fill="#636466"/>
<path d="M9.77699 18.6856C9.54822 18.6856 9.28135 18.6108 9.09071 18.4237L6.38362 15.7667C6.00234 15.3925 6.00234 14.7937 6.38362 14.4569C6.7649 14.1201 7.37495 14.0827 7.7181 14.4569L9.77699 16.4777L14.2761 12.0619C14.6574 11.6877 15.2675 11.6877 15.6106 12.0619C15.9538 12.4361 15.9919 13.0349 15.6106 13.3717L10.4633 18.4237C10.2727 18.5734 10.0058 18.6856 9.77699 18.6856Z" fill="#636466"/>
<path d="M38.3734 14.7199L40.5848 12.5494C40.9661 12.1752 40.9661 11.5765 40.5848 11.2397C40.2035 10.9029 39.5935 10.8654 39.2503 11.2397L37.0389 13.4101L34.8275 11.2397C34.4462 10.8654 33.8361 10.8654 33.493 11.2397C33.1498 11.6139 33.1117 12.2126 33.493 12.5494L35.7044 14.7199L33.493 16.8905C33.1117 17.2647 33.1117 17.8634 33.493 18.2002C33.6836 18.3874 33.9124 18.4621 34.1793 18.4621C34.4462 18.4621 34.675 18.3874 34.8656 18.2002L37.077 16.0296L39.2885 18.2002C39.4791 18.3874 39.7079 18.4621 39.9748 18.4621C40.2417 18.4621 40.4704 18.3874 40.6611 18.2002C41.0423 17.826 41.0423 17.2273 40.6611 16.8905L38.3734 14.7199Z" fill="#636466"/>
<path d="M30.862 42.0006H17.0977C16.5639 42.0006 16.1445 41.589 16.1445 41.0651V37.9589C16.1445 34.2541 19.2329 31.2229 23.0076 31.2229H24.9521C28.7268 31.2229 31.8152 34.2541 31.8152 37.9589V41.0651C31.8152 41.5516 31.3958 42.0006 30.862 42.0006ZM18.0509 40.1295H29.9088V37.9589C29.9088 35.2645 27.6974 33.094 24.9521 33.094H23.0076C20.2624 33.094 18.0509 35.2645 18.0509 37.9589V40.1295Z" fill="#EB002F"/>
<path d="M24 30.2501C21.5979 30.2501 19.6152 28.3041 19.6152 25.9465V23.589C19.6152 21.2314 21.5979 19.2854 24 19.2854C26.402 19.2854 28.3847 21.2314 28.3847 23.589V25.9465C28.3847 28.3041 26.402 30.2501 24 30.2501ZM24 21.1565C22.6274 21.1565 21.5216 22.2418 21.5216 23.589V25.9465C21.5216 27.2937 22.6274 28.379 24 28.379C25.3726 28.379 26.4783 27.2937 26.4783 25.9465V23.589C26.4783 22.2418 25.3726 21.1565 24 21.1565Z" fill="#EB002F"/>
</svg>
