<svg width="48" height="48" viewBox="0 0 48 48" fill="none" xmlns="http://www.w3.org/2000/svg">
<path d="M29.9336 5.38448H27.7692V4.01625C27.7692 2.90008 26.9237 2 25.8753 2H21.9522C20.9038 2 20.0583 2.90008 20.0583 4.01625V5.38448H18.0968C16.947 5.38448 16 6.39261 16 7.6168V41.2459C16 42.4701 16.947 43.4782 18.0968 43.4782H29.8998C31.0497 43.4782 31.9966 42.4701 31.9966 41.2459V7.6168C32.0642 6.39261 31.1173 5.38448 29.9336 5.38448ZM21.7831 4.01625C21.7831 3.90824 21.8846 3.80027 21.9861 3.80027H25.9091C26.0106 3.80027 26.112 3.90824 26.112 4.01625V5.38448H21.7831V4.01625ZM30.3732 41.2819C30.3732 41.5339 30.2042 41.7139 29.9674 41.7139H18.1306C17.8939 41.7139 17.7248 41.5339 17.7248 41.2819V7.65284C17.7248 7.4008 17.8939 7.22079 18.1306 7.22079H20.0922H27.803H29.9674C30.2042 7.22079 30.3732 7.4008 30.3732 7.65284V41.2819Z" fill="#636466"/>
<path d="M19.0781 39.3731L28.9872 33.2163V31.1279L19.0781 37.2849V39.3731Z" fill="#EB002F"/>
<path d="M22.6632 40.9942L28.9874 37.0336V34.9453L19.2812 40.9942H22.6632Z" fill="#EB002F"/>
<path d="M28.1411 40.9936L28.9866 40.4535V38.3652L24.793 40.9936H28.1411Z" fill="#EB002F"/>
<path d="M25.5034 44.8838H22.4258V46.0014H25.5034V44.8838Z" fill="#636466"/>
<path d="M23.3728 12.8008H24.4889V11.1445H26.0108V10.0283H24.4889V8.37207H23.3728V10.0283H21.8848V11.1445H23.3728V12.8008Z" fill="#636466"/>
</svg>
