<svg width="10" height="10" viewBox="0 0 10 10" fill="none" xmlns="http://www.w3.org/2000/svg">
<path d="M6.87695 6.12695H6.48195L6.34195 5.99195C6.83195 5.42195 7.12695 4.68195 7.12695 3.87695C7.12695 2.08195 5.67195 0.626953 3.87695 0.626953C2.08195 0.626953 0.626953 2.08195 0.626953 3.87695C0.626953 5.67195 2.08195 7.12695 3.87695 7.12695C4.68195 7.12695 5.42195 6.83195 5.99195 6.34195L6.12695 6.48195V6.87695L8.62695 9.37195L9.37195 8.62695L6.87695 6.12695ZM3.87695 6.12695C2.63195 6.12695 1.62695 5.12195 1.62695 3.87695C1.62695 2.63195 2.63195 1.62695 3.87695 1.62695C5.12195 1.62695 6.12695 2.63195 6.12695 3.87695C6.12695 5.12195 5.12195 6.12695 3.87695 6.12695Z" fill="#EB002F"/>
</svg>
