<svg width="48" height="48" viewBox="0 0 48 48" fill="none" xmlns="http://www.w3.org/2000/svg">
<path d="M36.7801 46H11.2199C9.43105 46 8 44.56 8 42.76V5.23984C8 3.43984 9.43105 2 11.2199 2H36.7801C38.569 2 40 3.43984 40 5.23984V42.76C40 44.56 38.569 46 36.7801 46ZM11.2199 3.83984C10.4646 3.83984 9.82856 4.47984 9.82856 5.23984V42.76C9.82856 43.52 10.4646 44.16 11.2199 44.16H36.7801C37.5354 44.16 38.1714 43.52 38.1714 42.76V5.23984C38.1714 4.47984 37.5354 3.83984 36.7801 3.83984H11.2199Z" fill="#636466"/>
<path d="M13.125 37.8022L14.4766 34.082C14.6356 34.122 14.8741 34.1621 15.1523 34.2021C15.4703 34.9221 16.1064 35.3621 16.5436 35.6021C16.5834 35.8821 16.7026 36.2021 16.8219 36.4021L13.125 37.8022Z" fill="#EB002F"/>
<path d="M17.4596 36.0406C17.3403 35.8006 17.2608 35.5207 17.2608 35.3607V35.0807L16.9825 35.0008C16.744 34.9208 15.949 34.4807 15.7502 33.7607L15.6708 33.5207H15.3925C15.154 33.5207 14.9552 33.5207 14.8359 33.4807L22.4285 25.8008C22.7465 25.8808 23.3428 26.1208 24.0186 26.8008C24.5751 27.3608 24.9329 27.9208 25.0521 28.4008L17.4596 36.0406Z" fill="#EB002F"/>
<path d="M34.594 12.9201H13.4064C12.8897 12.9201 12.4922 12.5202 12.4922 12.0002C12.4922 11.4802 12.8897 11.0801 13.4064 11.0801H34.594C35.1108 11.0801 35.5083 11.4802 35.5083 12.0002C35.5083 12.5202 35.1108 12.9201 34.594 12.9201Z" fill="#636466"/>
<path d="M34.594 18.3596H13.4064C12.8897 18.3596 12.4922 17.9595 12.4922 17.4395C12.4922 16.9195 12.8897 16.5195 13.4064 16.5195H34.594C35.1108 16.5195 35.5083 16.9195 35.5083 17.4395C35.5083 17.9595 35.1108 18.3596 34.594 18.3596Z" fill="#636466"/>
<path d="M34.594 23.8398H13.4064C12.8897 23.8398 12.4922 23.4399 12.4922 22.9199C12.4922 22.3999 12.8897 22 13.4064 22H34.594C35.1108 22 35.5083 22.3999 35.5083 22.9199C35.5083 23.4399 35.1108 23.8398 34.594 23.8398Z" fill="#636466"/>
<path d="M24.0195 40.5998H13.4455C12.9287 40.5998 12.5312 40.1997 12.5312 39.6797C12.5312 39.1597 12.9287 38.7598 13.4455 38.7598H24.0195C24.5362 38.7598 24.9337 39.1597 24.9337 39.6797C24.9337 40.1997 24.5362 40.5998 24.0195 40.5998Z" fill="#EB002F"/>
</svg>
