<svg width="14" height="14" viewBox="0 0 14 14" fill="none" xmlns="http://www.w3.org/2000/svg">
<path d="M8.72634 4.33325L6.99967 6.05992L5.27301 4.33325L4.33301 5.27325L6.05967 6.99992L4.33301 8.72659L5.27301 9.66659L6.99967 7.93992L8.72634 9.66659L9.66634 8.72659L7.93967 6.99992L9.66634 5.27325L8.72634 4.33325ZM6.99967 0.333252C3.31301 0.333252 0.333008 3.31325 0.333008 6.99992C0.333008 10.6866 3.31301 13.6666 6.99967 13.6666C10.6863 13.6666 13.6663 10.6866 13.6663 6.99992C13.6663 3.31325 10.6863 0.333252 6.99967 0.333252ZM6.99967 12.3333C4.05967 12.3333 1.66634 9.93992 1.66634 6.99992C1.66634 4.05992 4.05967 1.66659 6.99967 1.66659C9.93967 1.66659 12.333 4.05992 12.333 6.99992C12.333 9.93992 9.93967 12.3333 6.99967 12.3333Z" fill="white"/>
</svg>
