<svg width="48" height="48" viewBox="0 0 48 48" fill="none" xmlns="http://www.w3.org/2000/svg">
<path d="M24 2C15.9529 2 8 8.54185 8 18.4273C8 34.4185 24 46 24 46C24 46 40 34.9031 40 18.4273C40 7.71807 31.5765 2 24 2Z" stroke="#636466" stroke-width="1.05868" stroke-miterlimit="10"/>
<path d="M21.7422 35.0941C21.7422 33.6404 22.6834 32.6228 24.001 32.6228C25.4128 32.6228 26.2599 33.6404 26.2599 35.0941C26.2599 36.4994 25.3657 37.5655 24.001 37.5655C22.6363 37.5655 21.7422 36.4994 21.7422 35.0941ZM22.6834 29.4245L22.1657 10.332H25.8834L25.3187 29.4245H22.6834Z" fill="#EB002F"/>
</svg>
