<svg width="24" height="24" viewBox="0 0 24 24" fill="none" xmlns="http://www.w3.org/2000/svg">
<path d="M20.1037 10.9303L12.342 5.42967C12.2674 5.37694 12.1554 5.3418 12.0622 5.3418C11.9689 5.3418 11.8569 5.37694 11.7823 5.42967L4.02056 10.9303C3.90862 11.0182 3.83398 11.1412 3.83398 11.2818V20.5609C3.83398 20.807 4.03922 21.0003 4.30043 21.0003H19.8052C20.0664 21.0003 20.2717 20.807 20.2717 20.5609V11.2818C20.2903 11.1412 20.2157 11.0182 20.1037 10.9303ZM19.3574 20.1216H4.78556V11.5103L12.0808 6.32596L19.3761 11.5103V20.1216H19.3574Z" fill="#636466"/>
<path d="M1.74382 11.1763L12.0617 4.00606L22.2489 11.1763C22.4542 11.3169 22.7527 11.2818 22.902 11.0884C22.9766 11.0006 23.0139 10.8775 22.9952 10.7545C22.9766 10.6315 22.9206 10.5436 22.8087 10.4558L12.3415 3.09226C12.1736 2.96925 11.9497 2.96925 11.7818 3.09226L1.18408 10.4558C0.978842 10.5964 0.941526 10.8775 1.09079 11.0709C1.24005 11.2817 1.53858 11.3169 1.74382 11.1763Z" fill="#636466"/>
<path d="M12.0633 9.41943C10.9065 9.41943 9.95497 10.3157 9.95497 11.4053V12.9693L9.86168 12.9869C9.3206 13.0572 8.91016 13.5141 8.91016 14.0238V17.8022C8.91016 18.3821 9.41392 18.8566 10.0296 18.8566H14.1157C14.7314 18.8566 15.2352 18.3821 15.2352 17.8022V14.0238C15.2352 13.4438 14.7314 12.9693 14.1157 12.9693H10.8879V11.4053C10.8879 10.7902 11.4103 10.2981 12.0633 10.2981C12.7164 10.2981 13.2388 10.7902 13.2388 11.4053V12.0204C13.2388 12.2664 13.444 12.4597 13.7052 12.4597C13.9664 12.4597 14.1717 12.2664 14.1717 12.0204V11.4053C14.1903 10.2981 13.2388 9.41943 12.0633 9.41943ZM14.1157 13.848C14.1717 13.848 14.209 13.8657 14.2463 13.9008C14.2836 13.936 14.3023 13.9711 14.3023 14.0238V17.8022C14.3023 17.8901 14.2277 17.9779 14.1157 17.9779H10.0296C9.93634 17.9779 9.84305 17.9076 9.84305 17.8022V14.0238C9.84305 13.9359 9.91769 13.848 10.0296 13.848H14.1157Z" fill="#EB002F"/>
</svg>
