<svg width="12" height="14" viewBox="0 0 12 14" fill="none" xmlns="http://www.w3.org/2000/svg">
<path d="M10.6667 1.66659H10V0.333252H8.66667V1.66659H3.33333V0.333252H2V1.66659H1.33333C0.593333 1.66659 0.00666666 2.26659 0.00666666 2.99992L0 12.3333C0 13.0666 0.593333 13.6666 1.33333 13.6666H10.6667C11.4 13.6666 12 13.0666 12 12.3333V2.99992C12 2.26659 11.4 1.66659 10.6667 1.66659ZM10.6667 12.3333H1.33333V5.66659H10.6667V12.3333ZM10.6667 4.33325H1.33333V2.99992H10.6667V4.33325ZM4 8.33325H2.66667V6.99992H4V8.33325ZM6.66667 8.33325H5.33333V6.99992H6.66667V8.33325ZM9.33333 8.33325H8V6.99992H9.33333V8.33325ZM4 10.9999H2.66667V9.66659H4V10.9999ZM6.66667 10.9999H5.33333V9.66659H6.66667V10.9999ZM9.33333 10.9999H8V9.66659H9.33333V10.9999Z" fill="#262626"/>
</svg>
