<svg width="14" height="14" viewBox="0 0 14 14" fill="none" xmlns="http://www.w3.org/2000/svg">
<path d="M7.00065 0.333374C3.32065 0.333374 0.333984 3.32004 0.333984 7.00004C0.333984 10.68 3.32065 13.6667 7.00065 13.6667C10.6807 13.6667 13.6673 10.68 13.6673 7.00004C13.6673 3.32004 10.6807 0.333374 7.00065 0.333374ZM7.00065 12.3334C4.06065 12.3334 1.66732 9.94004 1.66732 7.00004C1.66732 4.06004 4.06065 1.66671 7.00065 1.66671C9.94065 1.66671 12.334 4.06004 12.334 7.00004C12.334 9.94004 9.94065 12.3334 7.00065 12.3334ZM10.0607 4.05337L5.66732 8.44671L3.94065 6.72671L3.00065 7.66671L5.66732 10.3334L11.0007 5.00004L10.0607 4.05337Z" fill="#007056"/>
</svg>
