<svg width="24" height="24" viewBox="0 0 24 24" fill="none" xmlns="http://www.w3.org/2000/svg">
<path d="M4.89735 20.6886H15.1902C15.4287 20.6886 15.6305 20.4786 15.6305 20.2303C15.6305 19.9821 15.4287 19.772 15.1902 19.772H4.89735C4.65883 19.772 4.45703 19.9821 4.45703 20.2303C4.45703 20.4786 4.64049 20.6886 4.89735 20.6886Z" fill="#636466"/>
<path d="M4.66106 9.59295H4.95459C5.19311 9.59295 5.39496 9.38285 5.39496 9.13458C5.39496 8.88632 5.19311 8.67627 4.95459 8.67627H4.66106C4.42255 8.67627 4.2207 8.88632 4.2207 9.13458C4.2207 9.40195 4.42255 9.59295 4.66106 9.59295Z" fill="#636466"/>
<path d="M4.66106 16.3722H4.95459C5.19311 16.3722 5.39496 16.1621 5.39496 15.9139C5.39496 15.6656 5.19311 15.4556 4.95459 15.4556H4.66106C4.42255 15.4556 4.2207 15.6656 4.2207 15.9139C4.2207 16.1621 4.42255 16.3722 4.66106 16.3722Z" fill="#636466"/>
<path d="M4.66106 12.9928H4.95459C5.19311 12.9928 5.39496 12.7828 5.39496 12.5345C5.39496 12.2862 5.19311 12.0762 4.95459 12.0762H4.66106C4.42255 12.0762 4.2207 12.2862 4.2207 12.5345C4.2207 12.7828 4.42255 12.9928 4.66106 12.9928Z" fill="#636466"/>
<path d="M17.6686 5.73608L15.8889 3.57813L13.9624 1.24823C13.7973 1.09545 13.5588 1 13.3019 1H2.91736C2.40364 1 2 1.38194 2 1.85938V22.1406C2 22.6181 2.42199 23 2.91736 23H16.898C17.4117 23 17.8153 22.6181 17.8153 22.1406V6.23262C17.8337 6.06075 17.7786 5.88885 17.6686 5.73608ZM13.9807 2.71875L15.21 4.18923L16.2925 5.50692H14.0175C13.9991 5.50692 13.9807 5.50692 13.9807 5.50692V2.71875ZM16.953 22.0642C16.9347 22.0642 16.9346 22.0642 16.9163 22.0642H2.93568C2.91734 22.0642 2.899 22.0642 2.899 22.0642V1.91663C2.91735 1.91663 2.91734 1.91663 2.93568 1.91663H13.1184V5.56422C13.1184 6.04165 13.5404 6.42359 14.0358 6.42359H16.953V22.0642Z" fill="#636466"/>
<path d="M7.3028 16.3722H11.4309C11.6695 16.3722 11.8713 16.1621 11.8713 15.9139C11.8713 15.6656 11.6695 15.4556 11.4309 15.4556H7.3028C7.06429 15.4556 6.86249 15.6656 6.86249 15.9139C6.84414 16.1621 7.04594 16.3722 7.3028 16.3722Z" fill="#636466"/>
<path d="M7.30164 12.9733H13.0994C13.3379 12.9733 13.5397 12.7632 13.5397 12.515C13.5397 12.2667 13.3379 12.0566 13.0994 12.0566H7.30164C7.06313 12.0566 6.86133 12.2667 6.86133 12.515C6.86133 12.7632 7.04478 12.9733 7.30164 12.9733Z" fill="#636466"/>
<path d="M7.3028 9.59295H15.1921C15.4306 9.59295 15.6325 9.38285 15.6325 9.13458C15.6325 8.88632 15.4306 8.67627 15.1921 8.67627H7.3028C7.06429 8.67627 6.86249 8.88632 6.86249 9.13458C6.84414 9.40195 7.04594 9.59295 7.3028 9.59295Z" fill="#636466"/>
<path d="M4.66106 9.59295H4.95459C5.19311 9.59295 5.39496 9.38285 5.39496 9.13458C5.39496 8.88632 5.19311 8.67627 4.95459 8.67627H4.66106C4.42255 8.67627 4.2207 8.88632 4.2207 9.13458C4.2207 9.40195 4.42255 9.59295 4.66106 9.59295Z" fill="#636466"/>
<path d="M4.66106 16.3722H4.95459C5.19311 16.3722 5.39496 16.1621 5.39496 15.9139C5.39496 15.6656 5.19311 15.4556 4.95459 15.4556H4.66106C4.42255 15.4556 4.2207 15.6656 4.2207 15.9139C4.2207 16.1621 4.42255 16.3722 4.66106 16.3722Z" fill="#636466"/>
<path d="M4.66106 12.9928H4.95459C5.19311 12.9928 5.39496 12.7828 5.39496 12.5345C5.39496 12.2862 5.19311 12.0762 4.95459 12.0762H4.66106C4.42255 12.0762 4.2207 12.2862 4.2207 12.5345C4.2207 12.7828 4.42255 12.9928 4.66106 12.9928Z" fill="#636466"/>
<path d="M14.1646 17.729C14.0361 17.729 13.1738 17.729 13.1738 17.729L13.2289 16.4495L13.7059 15.5328L19.9807 9.288L20.4944 8.98242L21.265 9.38348L21.3934 10.262L20.843 11.0831L14.1646 17.729Z" fill="white"/>
<path d="M21.5765 8.96219C21.3013 8.67574 20.9343 8.52295 20.5674 8.52295C20.2004 8.52295 19.8335 8.67574 19.5583 8.96219L14.4393 14.2903L14.4027 14.3285L13.2651 15.5126C12.7147 16.0855 12.5312 18.358 12.5312 18.358C12.5312 18.358 14.7146 18.1671 15.265 17.5941L16.4392 16.3719L21.5581 11.0438C22.1452 10.4709 22.1452 9.53511 21.5765 8.96219ZM14.6779 16.9448C14.6412 16.9639 14.4027 17.1358 13.5954 17.2886C13.7422 16.4292 13.9073 16.1809 13.9257 16.1618L14.9898 15.0542L15.742 15.8372L14.6779 16.9448ZM16.3475 15.1879L15.5952 14.4049L19.1179 10.7382L19.8702 11.5212L16.3475 15.1879ZM20.9526 10.3945L20.494 10.8719L19.7417 10.0889L20.2004 9.61148C20.3105 9.4969 20.4389 9.43963 20.5857 9.43963C20.7325 9.43963 20.8609 9.4969 20.971 9.61148C21.0811 9.72607 21.1361 9.85976 21.1361 10.0125C21.1361 10.1653 21.0627 10.299 20.9526 10.3945Z" fill="#EB002F"/>
</svg>
