<svg width="40" height="40" viewBox="0 0 40 40" fill="none" xmlns="http://www.w3.org/2000/svg">
<circle cx="20" cy="20" r="20" fill="#FAFAFA"/>
<path d="M24.9609 17.6504H24.2969C23.7109 17.6504 23.1641 17.8376 22.7344 18.1747V18.3431C22.7344 19.1483 22.3633 19.8598 21.7578 20.3278V20.7585C22.3242 20.927 22.832 21.2266 23.2422 21.601H26.9921C27.2656 21.601 27.4804 21.3951 27.4804 21.133V20.0844C27.4804 18.7363 26.3476 17.6504 24.9609 17.6504ZM26.5039 20.6461H22.7344V20.0657C22.7344 19.2419 23.4375 18.5866 24.2773 18.5866H24.9414C25.8007 18.5866 26.4844 19.2606 26.4844 20.0657V20.6461H26.5039Z" fill="#636466"/>
<path d="M24.6093 17.332C23.6914 17.332 22.9297 16.6205 22.9297 15.7218V14.9354C22.9297 14.0554 23.6718 13.3252 24.6093 13.3252C25.5468 13.3252 26.289 14.0367 26.289 14.9354V15.7218C26.289 16.6205 25.5468 17.332 24.6093 17.332ZM24.6093 14.2801C24.2187 14.2801 23.9062 14.5797 23.9062 14.9542V15.7405C23.9062 16.115 24.2187 16.4146 24.6093 16.4146C25 16.4146 25.3125 16.115 25.3125 15.7405V14.9542C25.3125 14.5797 25 14.2801 24.6093 14.2801Z" fill="#636466"/>
<path d="M18.2617 20.739V20.3083C17.6758 19.8215 17.2852 19.11 17.2852 18.3237V18.1551C16.8555 17.8368 16.3086 17.6309 15.7227 17.6309H15.0586C13.6719 17.6309 12.5391 18.7168 12.5391 20.0462V21.0947C12.5391 21.3568 12.7539 21.5628 13.0273 21.5628H16.7774C17.1875 21.207 17.6953 20.9075 18.2617 20.739ZM13.5156 20.0649C13.5156 19.2411 14.2188 18.5858 15.0586 18.5858H15.7227C16.582 18.5858 17.2657 19.2598 17.2657 20.0649V20.6453H13.4961V20.0649H13.5156Z" fill="#636466"/>
<path d="M15.4102 17.332C14.4922 17.332 13.7305 16.6205 13.7305 15.7218V14.9354C13.7305 14.0554 14.4727 13.3252 15.4102 13.3252C16.3281 13.3252 17.0898 14.0367 17.0898 14.9354V15.7218C17.0703 16.6205 16.3281 17.332 15.4102 17.332ZM15.4102 14.2801C15.0195 14.2801 14.707 14.5797 14.707 14.9542V15.7405C14.707 16.115 15.0195 16.4146 15.4102 16.4146C15.8008 16.4146 16.1133 16.115 16.1133 15.7405V14.9542C16.0937 14.5797 15.7813 14.2801 15.4102 14.2801Z" fill="#636466"/>
<path d="M23.5937 26.4498H16.4062C16.1328 26.4498 15.918 26.2439 15.918 25.9817V24.3903C15.918 22.4992 17.5195 20.9639 19.4922 20.9639H20.5078C22.4805 20.9639 24.082 22.4992 24.082 24.3903V25.9817C24.082 26.2439 23.8672 26.4498 23.5937 26.4498ZM16.9141 25.5137H23.125V24.3903C23.125 23.0235 21.9531 21.9 20.5274 21.9H19.5117C18.086 21.9 16.9141 23.0235 16.9141 24.3903V25.5137Z" fill="#EB002F"/>
<path d="M20.0195 20.5151C18.7695 20.5151 17.7344 19.5415 17.7344 18.3245V17.1262C17.7344 15.9279 18.75 14.9355 20.0195 14.9355C21.289 14.9355 22.3047 15.9092 22.3047 17.1262V18.3245C22.2851 19.5228 21.2695 20.5151 20.0195 20.5151ZM20.0195 15.8717C19.2969 15.8717 18.7109 16.4334 18.7109 17.1262V18.3245C18.7109 19.0173 19.2969 19.579 20.0195 19.579C20.7422 19.579 21.3281 19.0173 21.3281 18.3245V17.1262C21.3086 16.4334 20.7226 15.8717 20.0195 15.8717Z" fill="#EB002F"/>
<path d="M20 31C19.8047 31 19.6289 30.9626 19.4531 30.9064C16.7383 29.9328 14.5899 28.6409 12.8711 26.9745C11.5039 25.6451 10.6446 24.2408 10.2735 22.6868C10.1172 22.0127 10.0391 21.3574 10.0196 20.7208C10 18.8859 10 16.9949 10 15.5532V13.7183C10 13.2315 10.1367 12.8383 10.4102 12.5761C10.6641 12.3327 11.0352 12.183 11.5234 12.1455C13.9648 11.9958 16.3477 11.1157 18.9649 9.39316C19.2774 9.18721 19.6094 9 20 9C20.3906 9 20.7422 9.18721 21.0351 9.39316C23.0078 10.7038 24.7656 11.5089 26.6211 11.8834C27.0508 11.977 27.4805 12.0144 27.9297 12.0706L28.1445 12.0894C28.3008 12.1081 28.457 12.1268 28.6133 12.1455C29.0234 12.2017 29.3359 12.3327 29.5898 12.5761C29.8633 12.8383 30 13.194 30 13.6247C30 14.5608 30 15.497 30 16.4144V17.5753L29.9804 20.4213C29.9804 20.777 29.9609 21.0766 29.9609 21.3761C29.9024 22.8927 29.3359 24.3345 28.2422 25.7574C27.0117 27.3489 25.3516 28.6596 23.1445 29.783C22.4609 30.12 21.7773 30.4008 21.1523 30.663L21.0351 30.7004C20.918 30.7566 20.8008 30.794 20.6836 30.8502C20.4688 30.9625 20.2344 31 20 31ZM20.0195 9.91743C19.9414 9.91743 19.8242 9.93614 19.5312 10.1421C16.7578 11.977 14.2383 12.9132 11.6016 13.063C11.3477 13.0817 11.1914 13.1379 11.1133 13.2128C11.0743 13.2502 11.0547 13.2877 11.0352 13.3626C10.9961 13.4562 10.9961 13.5685 10.9961 13.7183V16.4332C10.9961 17.8374 10.9961 19.2791 11.0157 20.7021C11.0157 21.2826 11.0938 21.8817 11.2305 22.4621C11.5625 23.8476 12.3243 25.1021 13.5547 26.3191C15.1758 27.8919 17.207 29.0902 19.7852 30.0264C19.8438 30.0451 19.9219 30.0638 20 30.0638C20.0977 30.0638 20.2148 30.0451 20.3125 30.0077L20.7617 29.8204H20.7813C21.3867 29.577 22.0703 29.2962 22.6953 28.9779C24.7656 27.9294 26.3281 26.6936 27.4609 25.2144C28.4375 23.9412 28.9453 22.6681 29.0039 21.3387C29.0234 21.0391 29.0234 20.7396 29.0234 20.4025L29.0429 17.5004V16.3957V13.6059C29.0429 13.4936 29.0234 13.4 29.0039 13.3251C28.9258 13.1191 28.7109 13.063 28.5156 13.0442C28.3398 13.0255 28.1445 13.0068 28.0078 12.9881H27.9883C27.4609 12.9319 26.9531 12.8757 26.4453 12.7634C24.4727 12.3515 22.5977 11.5089 20.5274 10.1234C20.1953 9.95489 20.0977 9.91743 20.0195 9.91743Z" fill="#636466"/>
</svg>
