<svg width="12" height="17" viewBox="0 0 12 17" fill="none" xmlns="http://www.w3.org/2000/svg">
<path d="M6.1786 0.25C3.02859 0.25 0.5 2.68913 0.5 5.68168V11.4208C0.5 14.3724 3.00716 16.75 6.07146 16.75H6.1786C9.26433 16.75 11.7501 14.3519 11.7501 11.4208V5.57919C11.7501 2.64814 9.26433 0.25 6.1786 0.25ZM6.1786 1.27484C8.66433 1.27484 10.7001 3.22207 10.7001 5.59971V9.39163H1.57143V5.70219C1.55001 3.26306 3.62859 1.27484 6.1786 1.27484ZM6.1786 15.7457H6.07146C3.58573 15.7457 1.55004 13.7984 1.55004 11.4208V10.396H10.6786V11.4208C10.7001 13.8189 8.66433 15.7457 6.1786 15.7457Z" fill="#8A8C8E"/>
<path d="M6.13574 9.00299C7.65717 9.00299 8.87862 7.79368 8.87862 6.29741C8.87862 4.82163 7.63575 3.63281 6.13574 3.63281C6.13574 3.63281 6.13577 3.63281 6.11434 3.63281C4.5929 3.63281 3.37143 4.84212 3.39286 6.33839C3.39286 7.81417 4.6143 9.00299 6.13574 9.00299ZM4.93576 5.1291C5.25719 4.82164 5.66434 4.63714 6.11434 4.63714C7.03577 4.63714 7.78576 5.37505 7.80719 6.29741C7.80719 6.74834 7.63575 7.17879 7.31432 7.48624C6.99288 7.79369 6.58574 7.97814 6.13574 7.97814C5.2143 7.97814 4.46432 7.24029 4.44289 6.31793C4.44289 5.86699 4.61433 5.45705 4.93576 5.1291Z" fill="#FF5274"/>
<path d="M6.13479 7.32217C6.69194 7.32217 7.16336 6.87126 7.14193 6.31785C7.14193 5.76443 6.69194 5.33398 6.13479 5.33398C5.57765 5.33398 5.12766 5.7849 5.12766 6.33831C5.10623 6.87123 5.57765 7.32217 6.13479 7.32217Z" fill="#FF5274"/>
<path d="M7.52839 13.2246H4.72126C4.42126 13.2246 4.18555 13.4501 4.18555 13.737C4.18555 14.024 4.42126 14.2495 4.72126 14.2495H7.52839C7.82839 14.2495 8.06411 14.024 8.06411 13.737C8.06411 13.4501 7.82839 13.2246 7.52839 13.2246Z" fill="#8A8C8E"/>
<path d="M5.30057 3.07797C5.85771 2.83201 6.39344 2.83201 6.97202 3.07797C7.0363 3.11897 7.12202 3.11896 7.1863 3.11896C7.37916 3.11896 7.57198 3.01649 7.67912 2.83202C7.80769 2.58606 7.67913 2.2786 7.42199 2.15561C6.56484 1.78667 5.68626 1.78667 4.85054 2.15561C4.5934 2.2786 4.46484 2.58606 4.59341 2.83202C4.72198 3.07798 5.02199 3.20096 5.30057 3.07797Z" fill="#FF5274"/>
</svg>
