<svg width="32" height="32" viewBox="0 0 32 32" fill="none" xmlns="http://www.w3.org/2000/svg">
<path d="M12.1313 31.3281C8.12667 33.5223 3.40838 30.0279 4.20137 25.3957C4.55822 23.2422 4.20137 20.0728 1.78275 17.6754C-1.50815 14.4248 0.315725 8.77678 4.79611 8.16729C7.53192 7.76096 9.91089 6.01373 11.1004 3.45385C13.0432 -0.690721 18.8717 -0.853253 20.8938 3.45385C22.0833 6.01373 24.4622 7.80159 27.198 8.16729C31.7181 8.81742 33.5023 14.506 30.1718 17.7161C27.5945 20.1947 27.4359 23.2422 27.7928 25.3957C28.5858 29.9872 23.8675 33.5223 19.8629 31.3281C17.365 29.906 14.4309 30.0279 12.1313 31.3281Z" fill="#E9ECF3"/>
<path d="M9.55341 31.9782C7.92778 31.9782 6.34181 31.2062 5.27127 29.9059C4.20074 28.6057 3.80424 26.9397 4.08179 25.2331C4.28003 24.1767 4.71618 20.5197 1.78212 17.5941C0.23579 16.0501 -0.398596 13.8965 0.275445 11.7836C0.949485 9.67067 2.65441 8.20788 4.79548 7.88282C7.49164 7.51712 9.83096 5.7699 11.0204 3.21001C11.972 1.21899 13.8752 0 16.0163 0C18.1573 0 20.0209 1.21899 20.9725 3.21001C22.1619 5.7699 24.5013 7.47648 27.1974 7.88282C29.3385 8.16725 31.0434 9.67067 31.7174 11.7836C32.3915 13.8965 31.7967 16.1313 30.2504 17.6348C27.3164 20.5197 27.7525 24.1767 27.9111 25.1925C28.1887 26.8991 27.7922 28.5244 26.7216 29.8653C25.6511 31.1656 24.0651 31.9376 22.4395 31.9376C21.5275 31.9376 20.6553 31.6938 19.8226 31.2468C18.6331 30.5967 17.3247 30.231 15.9766 30.231C14.6285 30.231 13.2805 30.5967 12.1306 31.2468C11.3376 31.7751 10.4653 31.9782 9.55341 31.9782ZM16.0559 0.284433C13.9941 0.284433 12.1306 1.46279 11.2583 3.37255C10.0292 5.97306 7.65024 7.76091 4.87478 8.16724C2.85265 8.45168 1.18738 9.87384 0.552989 11.9055C-0.0814017 13.9371 0.434041 16.0907 1.94072 17.5535C4.95408 20.5197 4.55758 24.2173 4.39898 25.3144C4.12144 26.9397 4.51793 28.5244 5.54882 29.784C6.5797 31.0437 8.08638 31.7751 9.63271 31.7751C10.505 31.7751 11.3376 31.5719 12.1306 31.1249C13.3598 30.4342 14.7078 30.1091 16.0956 30.1091C17.4833 30.1091 18.8314 30.4748 20.0605 31.1249C20.8535 31.5719 21.6861 31.7751 22.5584 31.7751C24.1048 31.7751 25.6511 31.0437 26.6423 29.784C27.6732 28.5244 28.0697 26.9397 27.7922 25.3144C27.5939 24.2579 27.2371 20.5197 30.2504 17.5535C31.7174 16.0907 32.2725 13.9371 31.6381 11.9055C31.0038 9.87384 29.3385 8.45168 27.3164 8.16724C24.5409 7.76091 22.1223 5.97306 20.9328 3.37255C19.9019 1.42216 18.1177 0.284433 16.0559 0.284433Z" fill="url(#paint0_linear_166_1203)"/>
<path d="M9.55363 31.8157C7.928 31.8157 6.34202 31.0437 5.27148 29.7434C4.20095 28.4431 3.76481 26.8178 4.04235 25.1112C4.2406 23.811 4.67674 20.6416 1.70303 17.5941C0.196354 16.0501 -0.398384 13.8152 0.275657 11.7023C0.949698 9.5894 2.65462 8.12661 4.79569 7.84218C7.49185 7.47649 9.83117 5.72926 11.0207 3.21001C11.9722 1.21899 13.8754 0 16.0165 0C18.1576 0 20.0211 1.21899 20.9727 3.21001C22.1622 5.72926 24.5015 7.47649 27.1976 7.84218C29.3387 8.12661 31.0436 9.63004 31.7177 11.7023C32.3917 13.8152 31.8366 16.0501 30.2903 17.5535C27.3562 20.4384 27.7131 24.0141 27.9113 25.0706C28.1889 26.7772 27.7924 28.4025 26.7218 29.7028C25.6513 31.003 24.0653 31.7751 22.4397 31.7751C21.5278 31.7751 20.6555 31.5313 19.8228 31.0843C18.6333 30.4342 17.3249 30.1091 15.9768 30.1091C14.6288 30.1091 13.2807 30.4342 12.1308 31.0843C11.3379 31.5719 10.4656 31.8157 9.55363 31.8157ZM16.0561 0.203165C13.9944 0.203165 12.1308 1.38152 11.2586 3.29128C10.0294 5.89179 7.65045 7.67965 4.87499 8.08598C2.85287 8.37041 1.18759 9.79257 0.553202 11.8242C-0.0811893 13.8152 0.434254 16.0094 1.94093 17.4722C4.95429 20.4384 4.5578 24.136 4.3992 25.1925C4.12165 26.8178 4.51814 28.4025 5.54903 29.6621C6.57991 30.9218 8.08659 31.6532 9.63292 31.6532C10.5052 31.6532 11.3379 31.45 12.1308 31.003C13.36 30.3529 14.7081 29.9872 16.0958 29.9872C17.4835 29.9872 18.8316 30.3529 20.0607 31.003C20.8537 31.45 21.6864 31.6532 22.5586 31.6532C24.105 31.6532 25.6513 30.9218 26.6425 29.6621C27.6734 28.4025 28.0699 26.8178 27.7924 25.1925C27.5941 24.136 27.2373 20.4384 30.2506 17.4722C31.7177 16.0094 32.2728 13.8559 31.6384 11.8242C31.004 9.8332 29.3387 8.37041 27.3166 8.08598C24.5411 7.67965 22.1225 5.89179 20.933 3.29128C19.9021 1.38152 18.1179 0.203165 16.0561 0.203165Z" fill="url(#paint1_linear_166_1203)"/>
<path d="M4.91498 28.8495C6.26306 31.2063 9.23677 32.344 11.9329 31.0031C12.0122 30.9625 12.0915 30.9218 12.1708 30.8812C14.4705 29.6216 17.3649 29.4997 19.9025 30.8812C19.9818 30.9218 20.0611 30.9625 20.1404 31.0031C22.8762 32.3033 25.8895 31.125 27.1187 28.7683C27.7134 27.7118 27.9513 26.5335 27.7134 25.03C27.5152 23.9329 27.5548 22.5514 27.9513 21.1699C28.3081 19.9103 28.9822 18.61 30.132 17.5129C31.0836 16.5784 31.5594 15.4 31.718 14.2623C32.0748 11.8649 30.6475 9.18313 28.4271 8.45174C28.2289 8.37047 27.6341 8.16731 26.8015 8.04541C24.2243 7.55781 22.0435 5.97312 20.8144 3.41324C20.6162 3.00691 20.2593 2.51931 20.0214 2.19425C18.1579 -0.284371 14.074 -0.487536 11.8933 2.15361C11.5761 2.55994 11.3382 2.96627 11.1003 3.45387C9.87115 5.97312 7.53184 7.67971 4.83568 8.12667C4.35989 8.20794 3.88409 8.28921 3.4876 8.49237C1.26723 9.3863 -0.0412059 11.8243 0.196691 14.181C0.315639 15.3594 0.831082 16.5784 1.78267 17.5129C2.9325 18.6506 3.52725 19.9509 3.92374 21.048C4.39954 22.3889 4.39953 24.0142 4.20129 25.1519C4.08234 26.4522 4.32024 27.7931 4.91498 28.8495Z" fill="url(#paint2_linear_166_1203)"/>
<path d="M4.91498 28.8495C6.26306 31.2063 9.23677 32.344 11.9329 31.0031C12.0122 30.9625 12.0915 30.9218 12.1708 30.8812C14.4705 29.6216 17.3649 29.4997 19.9025 30.8812C19.9818 30.9218 20.0611 30.9625 20.1404 31.0031C22.8762 32.3033 25.8895 31.125 27.1187 28.7683C27.7134 27.7118 27.9513 26.5335 27.7134 25.03C27.5152 23.9329 27.5548 22.5514 27.9513 21.1699C28.3081 19.9103 28.9822 18.61 30.132 17.5129C31.0836 16.5784 31.5594 15.4 31.718 14.2623C32.0748 11.8649 30.6475 9.18313 28.4271 8.45174C28.2289 8.37047 27.6341 8.16731 26.8015 8.04541C24.2243 7.55781 22.0435 5.97312 20.8144 3.41324C20.6162 3.00691 20.2593 2.51931 20.0214 2.19425C18.1579 -0.284371 14.074 -0.487536 11.8933 2.15361C11.5761 2.55994 11.3382 2.96627 11.1003 3.45387C9.87115 5.97312 7.53184 7.67971 4.83568 8.12667C4.35989 8.20794 3.88409 8.28921 3.4876 8.49237C1.26723 9.3863 -0.0412059 11.8243 0.196691 14.181C0.315639 15.3594 0.831082 16.5784 1.78267 17.5129C2.9325 18.6506 3.52725 19.9509 3.92374 21.048C4.39954 22.3889 4.39953 24.0142 4.20129 25.1519C4.08234 26.4522 4.32024 27.7931 4.91498 28.8495Z" fill="url(#paint3_radial_166_1203)"/>
<path d="M27.6348 24.2172C19.5066 11.0927 4.28125 8.16714 4.28125 8.16714C4.75704 8.04524 5.27249 8.00461 5.78793 7.84207C7.37391 7.39511 9.95112 6.21675 11.2596 3.25054C12.9248 -0.528337 18.674 -1.0972 20.7754 3.16927C21.9649 5.60726 23.6698 7.47638 27.3572 8.08587C31.4015 8.736 33.5425 14.0589 30.0534 17.6346C30.0534 17.6346 27.3572 20.1539 27.6348 24.2172Z" fill="url(#paint4_linear_166_1203)"/>
<path d="M27.6348 24.2172C19.5066 11.0927 4.28125 8.16714 4.28125 8.16714C4.75704 8.04524 5.27249 8.00461 5.78793 7.84207C7.37391 7.39511 9.95112 6.21675 11.2596 3.25054C12.9248 -0.528337 18.674 -1.0972 20.7754 3.16927C21.9649 5.60726 23.6698 7.47638 27.3572 8.08587C31.4015 8.736 33.5425 14.0589 30.0534 17.6346C30.0534 17.6346 27.3572 20.1539 27.6348 24.2172Z" fill="url(#paint5_radial_166_1203)"/>
<path d="M27.6348 24.2172C19.5066 11.0927 4.28125 8.16714 4.28125 8.16714C4.75704 8.04524 5.27249 8.00461 5.78793 7.84207C7.37391 7.39511 9.95112 6.21675 11.2596 3.25054C12.9248 -0.528337 18.674 -1.0972 20.7754 3.16927C21.9649 5.60726 23.6698 7.47638 27.3572 8.08587C31.4015 8.736 33.5425 14.0589 30.0534 17.6346C30.0534 17.6346 27.3572 20.1539 27.6348 24.2172Z" fill="url(#paint6_radial_166_1203)"/>
<path d="M27.6348 24.2172C19.5066 11.0927 4.28125 8.16714 4.28125 8.16714C4.75704 8.04524 5.27249 8.00461 5.78793 7.84207C7.37391 7.39511 9.95112 6.21675 11.2596 3.25054C12.9248 -0.528337 18.674 -1.0972 20.7754 3.16927C21.9649 5.60726 23.6698 7.47638 27.3572 8.08587C31.4015 8.736 33.5425 14.0589 30.0534 17.6346C30.0534 17.6346 27.3572 20.1539 27.6348 24.2172Z" fill="url(#paint7_radial_166_1203)"/>
<path d="M15.9766 8.45166C11.0997 8.45166 7.1744 12.6775 7.4916 17.7566C7.76914 22.1044 11.2186 25.6395 15.4611 25.8832C20.4173 26.2083 24.5012 22.1856 24.5012 17.1878C24.5012 12.3931 20.6552 8.45166 15.9766 8.45166ZM16.492 25.7207C11.6151 26.0458 7.57089 22.0637 7.57089 17.1471C7.57089 12.3931 11.3376 8.57356 15.9766 8.57356C20.7742 8.57356 24.6598 12.7181 24.3426 17.716C24.0651 21.9825 20.6552 25.4769 16.492 25.7207Z" fill="url(#paint8_linear_166_1203)"/>
<path d="M14.9852 7.92349C10.822 8.41108 7.45183 11.8243 6.97603 16.0907C6.34164 21.6981 10.6634 26.4928 16.0161 26.4928C21.0119 26.4928 25.0958 22.3076 25.0958 17.1878C25.0958 11.7024 20.4568 7.31399 14.9852 7.92349ZM15.9765 26.3303C10.8617 26.3303 6.69849 21.9013 7.05533 16.5783C7.33288 12.0274 10.9806 8.28918 15.4214 8.00475C20.6154 7.67969 24.9372 11.9055 24.9372 17.1472C24.9372 22.1857 20.9326 26.3303 15.9765 26.3303Z" fill="url(#paint9_linear_166_1203)"/>
<mask id="mask0_166_1203" style="mask-type:alpha" maskUnits="userSpaceOnUse" x="6" y="6" width="20" height="22">
<path opacity="0.73" d="M6.06445 17.1471C6.06445 11.5398 10.5052 6.94824 16.0165 6.94824C21.4881 6.94824 25.9685 11.4991 25.9685 17.1471C25.9685 22.7545 21.5277 27.346 16.0165 27.346C10.5052 27.346 6.06445 22.7545 6.06445 17.1471Z" fill="url(#paint10_radial_166_1203)"/>
</mask>
<g mask="url(#mask0_166_1203)">
<path opacity="0.83" d="M7.25293 17.1878C7.25293 12.0681 11.4558 7.96412 16.4913 8.28918C20.813 8.57362 24.3418 12.1493 24.6194 16.619C24.9366 21.82 20.932 26.1271 15.9362 26.1271C11.1386 26.1271 7.25293 22.1044 7.25293 17.1878Z" fill="white"/>
</g>
<mask id="mask1_166_1203" style="mask-type:alpha" maskUnits="userSpaceOnUse" x="6" y="7" width="20" height="20">
<path opacity="0.73" d="M6.10352 17.1472C6.10352 11.743 10.3857 7.39526 15.6194 7.39526C20.8928 7.39526 25.1352 11.7836 25.1352 17.1472C25.1352 22.5514 20.8531 26.8991 15.6194 26.8991C10.346 26.8991 6.10352 22.5514 6.10352 17.1472Z" fill="url(#paint11_radial_166_1203)"/>
</mask>
<g mask="url(#mask1_166_1203)">
<path opacity="0.04" d="M7.25268 16.6189C7.53023 12.3525 10.9004 8.89867 15.0636 8.65487C19.9009 8.37044 23.9055 12.3118 23.9055 17.1878C23.9055 21.9012 20.1784 25.7208 15.5791 25.7208C10.7815 25.7614 6.93549 21.6168 7.25268 16.6189Z" fill="white"/>
</g>
<defs>
<linearGradient id="paint0_linear_166_1203" x1="16.0001" y1="0.034213" x2="16.0001" y2="32.0124" gradientUnits="userSpaceOnUse">
<stop offset="0.0879121" stop-color="white"/>
<stop offset="0.1239" stop-color="#ECEBEC" stop-opacity="0.9933"/>
<stop offset="0.4395" stop-color="#90949A" stop-opacity="0.9345"/>
<stop offset="0.7008" stop-color="#5D666D" stop-opacity="0.8858"/>
<stop offset="0.8948" stop-color="#424F56" stop-opacity="0.8496"/>
<stop offset="1" stop-color="#38474F" stop-opacity="0.83"/>
</linearGradient>
<linearGradient id="paint1_linear_166_1203" x1="16" y1="31.8156" x2="16" y2="-3.98236e-05" gradientUnits="userSpaceOnUse">
<stop stop-color="white"/>
<stop offset="0.1411" stop-color="#3B4C53"/>
<stop offset="0.263" stop-color="#868C90"/>
<stop offset="0.3313" stop-color="#BDBFBF"/>
<stop offset="0.4233" stop-color="#3B4C53" stop-opacity="0.92"/>
<stop offset="0.5811" stop-color="#858E97" stop-opacity="0.9702"/>
<stop offset="0.6748" stop-color="#C1C8D1"/>
<stop offset="0.724" stop-color="#C6CCD4"/>
<stop offset="0.7803" stop-color="#D3D7DD"/>
<stop offset="0.84" stop-color="#E9EAED"/>
<stop offset="0.8773" stop-color="white"/>
<stop offset="1" stop-color="#C1C8D1"/>
</linearGradient>
<linearGradient id="paint2_linear_166_1203" x1="12.5875" y1="4.60935" x2="21.0525" y2="27.3038" gradientUnits="userSpaceOnUse">
<stop stop-color="#D5D8E2"/>
<stop offset="0.0274212" stop-color="#DFE1E8"/>
<stop offset="0.0843513" stop-color="#EFF0F3"/>
<stop offset="0.1493" stop-color="#FAFAFB"/>
<stop offset="0.2393" stop-color="white"/>
<stop offset="0.4375" stop-color="#F8F9FA"/>
<stop offset="0.6334" stop-color="#ECEDEF"/>
<stop offset="0.8278" stop-color="#D8DCE1"/>
<stop offset="1" stop-color="#C1C9D2"/>
</linearGradient>
<radialGradient id="paint3_radial_166_1203" cx="0" cy="0" r="1" gradientUnits="userSpaceOnUse" gradientTransform="translate(28.8275 14.4729) scale(15.5493 15.935)">
<stop stop-color="#C1C8D1"/>
<stop offset="1" stop-color="#C1C8D1" stop-opacity="0"/>
</radialGradient>
<linearGradient id="paint4_linear_166_1203" x1="13.7559" y1="0.491147" x2="25.5246" y2="25.9787" gradientUnits="userSpaceOnUse">
<stop stop-color="#384D56"/>
<stop offset="0.0549585" stop-color="#4B5C65"/>
<stop offset="0.1628" stop-color="#6C7A83"/>
<stop offset="0.2726" stop-color="#89949D"/>
<stop offset="0.3834" stop-color="#9FA9B2"/>
<stop offset="0.4961" stop-color="#AEB7BF"/>
<stop offset="0.6135" stop-color="#B4BDC4"/>
<stop offset="0.6316" stop-color="#B6BEC6"/>
<stop offset="0.8399" stop-color="#C6CCD4"/>
<stop offset="1" stop-color="#CBD1D9"/>
</linearGradient>
<radialGradient id="paint5_radial_166_1203" cx="0" cy="0" r="1" gradientUnits="userSpaceOnUse" gradientTransform="translate(21.4721 16.9147) scale(7.63446 7.82386)">
<stop stop-color="white" stop-opacity="0.16"/>
<stop offset="0.0222641" stop-color="white" stop-opacity="0.1564"/>
<stop offset="1" stop-color="white" stop-opacity="0"/>
</radialGradient>
<radialGradient id="paint6_radial_166_1203" cx="0" cy="0" r="1" gradientUnits="userSpaceOnUse" gradientTransform="translate(6.56613 8.14674) scale(7.63458 7.82398)">
<stop stop-color="#2C3B47" stop-opacity="0.2"/>
<stop offset="0.1471" stop-color="#2F3E49" stop-opacity="0.1706"/>
<stop offset="0.5646" stop-color="#36454D" stop-opacity="0.0870816"/>
<stop offset="1" stop-color="#38474F" stop-opacity="0"/>
</radialGradient>
<radialGradient id="paint7_radial_166_1203" cx="0" cy="0" r="1" gradientUnits="userSpaceOnUse" gradientTransform="translate(27.6056 2.81292) scale(10.1484 10.4002)">
<stop stop-color="#2C3B47" stop-opacity="0.3"/>
<stop offset="0.5297" stop-color="#34434C" stop-opacity="0.1411"/>
<stop offset="1" stop-color="#38474F" stop-opacity="0"/>
</radialGradient>
<linearGradient id="paint8_linear_166_1203" x1="9.55808" y1="11.4584" x2="22.6706" y2="22.581" gradientUnits="userSpaceOnUse">
<stop stop-color="#C1C8D1"/>
<stop offset="0.6319" stop-color="white"/>
<stop offset="0.6746" stop-color="#F3F2F3"/>
<stop offset="0.7292" stop-color="#DCDDE0"/>
<stop offset="0.7902" stop-color="#BDBFC5"/>
<stop offset="0.8558" stop-color="#979BA5"/>
<stop offset="0.9251" stop-color="#6D7582"/>
<stop offset="0.9966" stop-color="#415160"/>
<stop offset="1" stop-color="#3E505F"/>
</linearGradient>
<linearGradient id="paint9_linear_166_1203" x1="7.14522" y1="15.0821" x2="24.9073" y2="19.0835" gradientUnits="userSpaceOnUse">
<stop stop-color="#596C77"/>
<stop offset="0.8132" stop-color="white"/>
</linearGradient>
<radialGradient id="paint10_radial_166_1203" cx="0" cy="0" r="1" gradientUnits="userSpaceOnUse" gradientTransform="translate(16.0165 17.1471) scale(9.95201 10.1989)">
<stop stop-color="white"/>
<stop offset="0.2675" stop-color="#A3A3A3"/>
<stop offset="0.5366" stop-color="#4C4C4C"/>
<stop offset="0.7268" stop-color="#151515"/>
<stop offset="0.8187"/>
</radialGradient>
<radialGradient id="paint11_radial_166_1203" cx="0" cy="0" r="1" gradientUnits="userSpaceOnUse" gradientTransform="translate(15.6194 17.1472) scale(9.53438 9.77091)">
<stop stop-color="white"/>
<stop offset="0.2675" stop-color="#A3A3A3"/>
<stop offset="0.5366" stop-color="#4C4C4C"/>
<stop offset="0.7268" stop-color="#151515"/>
<stop offset="0.8187"/>
</radialGradient>
</defs>
</svg>
