<svg width="48" height="48" viewBox="0 0 48 48" fill="none" xmlns="http://www.w3.org/2000/svg">
<path d="M39.7306 6H2V35.9878C2 39.3036 4.81174 42 8.26943 42H46V12.0122C46 8.69636 43.1883 6 39.7306 6ZM44.1002 40.2146H8.26943C5.87565 40.2146 3.89983 38.3199 3.89983 36.0243V14.5628H20.4663C20.9982 14.5628 21.4162 14.162 21.4162 13.6518C21.4162 13.1417 20.9982 12.7409 20.4663 12.7409H3.89983V7.82187H39.7306C42.1244 7.82187 44.1002 9.71661 44.1002 12.0122V40.2146Z" fill="#636466"/>
<path d="M8.95362 9.49805H6.67383V11.3199H8.95362V9.49805Z" fill="#636466"/>
<path d="M13.6273 9.49805H11.2715V11.3199H13.6273V9.49805Z" fill="#636466"/>
<path d="M18.2251 9.49805H15.9453V11.3199H18.2251V9.49805Z" fill="#636466"/>
<path d="M34.9049 33.9101C34.373 33.9101 33.955 33.5093 33.955 32.9992C33.955 32.4891 34.373 32.0883 34.9049 32.0883H36.5768C38.9326 32.0883 40.8705 30.2299 40.8705 27.9708C40.8705 26.4039 39.9585 24.983 38.4386 24.2907C38.2107 24.1814 38.0207 23.9991 37.9447 23.7805C37.8687 23.5618 37.8687 23.3068 37.9827 23.0882C38.4767 22.1044 38.7426 21.0477 38.7426 19.9545C38.7426 16.0193 35.3989 12.8493 31.3333 12.8493C28.0656 12.8493 25.2159 14.8534 24.228 17.8412C24.152 18.0963 23.9619 18.315 23.696 18.4243C23.582 18.4607 23.468 18.497 23.354 18.497C23.202 18.497 23.0501 18.4607 22.8981 18.3878C22.2522 18.0599 21.5682 17.8777 20.8843 17.8777C18.5285 17.8777 16.5906 19.736 16.5906 21.9951C16.5906 22.2501 16.6286 22.5417 16.6666 22.8332C16.7046 23.0883 16.6666 23.3796 16.4766 23.5983C16.2866 23.8169 16.0207 23.9263 15.7547 23.9263H15.6407C13.2849 23.9263 11.3471 25.7846 11.3471 28.0437C11.3471 30.3028 13.2849 32.161 15.6407 32.161H16.7427C17.2746 32.161 17.6926 32.5619 17.6926 33.072C17.6926 33.5821 17.2746 33.9829 16.7427 33.9829H15.6407C12.221 33.9829 9.44727 31.3231 9.44727 28.0437C9.44727 25.1287 11.6131 22.6874 14.6148 22.1773H14.6908V22.0315C14.6908 18.7522 17.4646 16.0923 20.8843 16.0923C21.4922 16.0923 22.1381 16.2016 22.746 16.3838L22.8221 16.4202L22.8601 16.3473C24.3419 13.1408 27.6857 11.1003 31.3713 11.1003C36.5009 11.1003 40.6805 15.1084 40.6805 20.0275C40.6805 21.0842 40.4905 22.1409 40.1105 23.1247L40.0725 23.1976L40.1485 23.2339C41.7823 24.327 42.7703 26.149 42.7703 28.0802C42.7703 31.3595 39.9965 34.0194 36.5768 34.0194H34.9049V33.9101Z" fill="#636466"/>
<path d="M24.8373 38.7202C24.3054 38.7202 23.8495 38.3194 23.7735 37.8457L23.5835 36.4977C23.1275 36.3519 22.7095 36.1697 22.2916 35.9511L21.2276 36.7161C21.0377 36.8619 20.8097 36.9348 20.5817 36.9348C20.2777 36.9348 20.0118 36.8256 19.8218 36.6434L18.3779 35.2586C17.9979 34.8943 17.96 34.3114 18.264 33.9106L19.0999 32.8175C18.8719 32.4166 18.7199 31.9794 18.5679 31.5422L17.238 31.36C16.706 31.2871 16.2881 30.8497 16.2881 30.3396V28.4085C16.2881 27.8984 16.7061 27.4612 17.2001 27.3883L18.6059 27.2061C18.7579 26.7689 18.9479 26.3679 19.1759 25.9671L18.3779 24.947C18.0739 24.5461 18.1119 23.9631 18.4919 23.5987L19.9358 22.2142C20.1258 22.032 20.4297 21.9227 20.6957 21.9227C20.9237 21.9227 21.1517 21.9955 21.3416 22.1412L22.4815 22.9429C22.8995 22.7243 23.3555 22.5786 23.8114 22.4328L24.0014 21.1575C24.0774 20.6474 24.5334 20.2466 25.0653 20.2466H27.0792C27.6111 20.2466 28.0671 20.6474 28.1431 21.1575L28.3331 22.5056C28.789 22.6513 29.2069 22.8335 29.6249 23.0521L30.6888 22.2871C30.8788 22.1414 31.1068 22.0684 31.3347 22.0684C31.6387 22.0684 31.9047 22.1777 32.0947 22.3599L33.5386 23.7446C33.9185 24.109 33.9565 24.6919 33.6526 25.0927L32.8166 26.1858C33.0446 26.5866 33.1966 27.0239 33.3486 27.4611L34.6785 27.6433C35.2104 27.7162 35.6284 28.1535 35.6284 28.6636V30.5947C35.6284 31.1049 35.2104 31.542 34.6785 31.6149L33.2726 31.7971C33.1206 32.2344 32.9306 32.6353 32.7027 33.0361L33.5005 34.0563C33.8045 34.4571 33.7665 35.0402 33.3865 35.4045L31.9427 36.7891C31.7527 36.9713 31.4488 37.0805 31.1828 37.0805C30.9548 37.0805 30.7268 37.0078 30.5368 36.862L29.3969 36.0603C28.9789 36.279 28.523 36.4247 28.067 36.5704L27.877 37.8457C27.801 38.3559 27.3452 38.7567 26.8132 38.7567H24.8373V38.7202ZM26.1672 36.8983L26.2812 36.1333C26.3952 35.5139 26.8511 35.0037 27.4971 34.858C27.915 34.7487 28.3331 34.6028 28.713 34.3842C28.941 34.2749 29.207 34.202 29.473 34.202C29.8149 34.202 30.1568 34.3113 30.4608 34.5299L31.1448 35.0402L31.6007 34.6028L31.1067 33.9833C30.7268 33.4732 30.6888 32.8175 30.9928 32.2709C31.2208 31.9065 31.3727 31.5421 31.5247 31.1413C31.7147 30.5583 32.2467 30.1211 32.8546 30.0482L33.7285 29.9389V29.3194L32.9306 29.2102C32.2846 29.1373 31.7527 28.6636 31.6007 28.0441C31.4867 27.6433 31.3347 27.2424 31.1067 26.8781C30.8028 26.3315 30.8788 25.6758 31.2207 25.2021L31.7527 24.5461L31.2967 24.109L30.6508 24.5826C30.3468 24.8012 30.0429 24.9105 29.6629 24.9105C29.359 24.9105 29.0929 24.8376 28.8269 24.6918C28.447 24.4732 28.0671 24.3275 27.6491 24.1817C27.0412 23.9996 26.5852 23.4894 26.5092 22.9064L26.3952 22.0684H25.7493L25.6353 22.8337C25.5213 23.4531 25.0653 23.9632 24.4194 24.109C24.0014 24.2183 23.5835 24.364 23.2035 24.5826C22.9755 24.6919 22.7096 24.7648 22.4436 24.7648C22.1016 24.7648 21.7596 24.6555 21.4557 24.4369L20.7717 23.9268L20.3158 24.3639L20.8097 24.9834C21.1897 25.4936 21.2277 26.1493 20.9237 26.6959C20.6958 27.0603 20.5437 27.4247 20.3917 27.8255C20.2017 28.4085 19.6698 28.8457 19.0619 28.9186L18.1879 29.028V29.6473L18.9859 29.7568C19.6318 29.8296 20.1638 30.3032 20.3158 30.9226C20.4297 31.3235 20.5817 31.7243 20.8097 32.0887C21.1137 32.6353 21.0377 33.2912 20.6957 33.7649L20.1638 34.4207L20.6197 34.858L21.2657 34.3842C21.5696 34.1656 21.8737 34.0563 22.2536 34.0563C22.5576 34.0563 22.8235 34.1292 23.0895 34.2749C23.4695 34.4936 23.8494 34.6393 24.2674 34.785C24.8753 34.9672 25.3313 35.4773 25.4073 36.0603L25.5213 36.8983H26.1672ZM25.9772 33.6554C23.5454 33.6554 21.6076 31.7607 21.6076 29.4652C21.6076 27.1696 23.5834 25.2749 25.9772 25.2749C28.371 25.2749 30.3468 27.1696 30.3468 29.4652C30.3468 31.7607 28.371 33.6554 25.9772 33.6554ZM25.9772 27.0603C24.6093 27.0603 23.4695 28.117 23.4695 29.4652C23.4695 30.8133 24.5713 31.8701 25.9772 31.8701C27.3831 31.8701 28.485 30.8133 28.485 29.4652C28.485 28.117 27.3451 27.0603 25.9772 27.0603Z" fill="#EB002F"/>
<path d="M25.977 33.655C23.5452 33.655 21.6074 31.7603 21.6074 29.4647C21.6074 27.1692 23.5832 25.2744 25.977 25.2744C28.3708 25.2744 30.3466 27.1692 30.3466 29.4647C30.3466 31.7603 28.3708 33.655 25.977 33.655ZM25.977 27.0598C24.6091 27.0598 23.4693 28.1165 23.4693 29.4647C23.4693 30.8129 24.5712 31.8696 25.977 31.8696C27.3829 31.8696 28.4848 30.8129 28.4848 29.4647C28.4848 28.1165 27.3449 27.0598 25.977 27.0598Z" fill="#EB002F"/>
</svg>
