<svg width="16" height="20" viewBox="0 0 16 20" fill="none" xmlns="http://www.w3.org/2000/svg">
<path d="M10 0H2C0.9 0 0 0.9 0 2V18C0 19.1 0.89 20 1.99 20H14C15.1 20 16 19.1 16 18V6L10 0ZM11.04 17.45L9.16 15.57C7.83 16.28 6.15 16.1 5.03 14.98C3.66 13.61 3.66 11.4 5.03 10.03C6.4 8.66 8.61 8.66 9.98 10.03C11.1 11.15 11.29 12.83 10.57 14.16L12.45 16.04L11.04 17.45ZM9 7V1.5L14.5 7H9Z" fill="#262626"/>
<path d="M7.5 14C8.32843 14 9 13.3284 9 12.5C9 11.6716 8.32843 11 7.5 11C6.67157 11 6 11.6716 6 12.5C6 13.3284 6.67157 14 7.5 14Z" fill="#262626"/>
</svg>
