<svg width="48" height="48" viewBox="0 0 48 48" fill="none" xmlns="http://www.w3.org/2000/svg">
<path d="M24.7914 45.8915C24.8996 45.9637 25.0439 45.9998 25.152 45.9998C25.4766 45.9998 25.7652 45.8194 25.8734 45.5309L28.975 39.472C29.1914 39.0753 29.1553 38.6063 28.9029 38.2817C28.6504 37.9572 28.2537 37.8129 27.7848 37.9211L24.9357 38.5343C24.8996 38.5343 24.6833 38.5704 24.5751 38.4261C24.5029 38.318 24.5389 38.2098 24.6111 38.0655C25.1881 37.1278 26.9553 34.3868 26.9914 34.3868C27.0996 34.2065 27.1357 33.99 27.0996 33.7736C27.0636 33.5572 26.9193 33.3769 26.739 33.2687C26.3423 33.0163 25.8374 33.1245 25.5849 33.5212L22.0144 39.0753C21.7619 39.472 21.762 39.9407 21.9784 40.2653C22.2308 40.626 22.6275 40.7703 23.0964 40.6621C23.0964 40.6621 25.5488 40.1211 26.3783 39.9408C26.4144 39.9408 26.4144 39.9408 26.4504 39.9408C26.5226 39.9408 26.5947 39.9769 26.6308 40.013C26.739 40.1212 26.6669 40.3015 26.6669 40.3375L24.3947 44.8096C24.2865 44.9899 24.2865 45.2425 24.3586 45.4589C24.4308 45.6392 24.575 45.8194 24.7914 45.8915Z" fill="#EB002F"/>
<path d="M13.7203 34.567C13.6842 34.3506 13.5761 34.1703 13.3957 34.026C13.2515 33.9178 13.0711 33.8818 12.9269 33.8818C12.6744 33.8818 12.422 33.99 12.2417 34.2424L9.82524 37.5603C9.57278 37.921 9.64491 38.462 10.0056 38.7145C10.3662 38.9669 10.9073 38.8948 11.1597 38.5341L13.5761 35.2161C13.7203 34.9997 13.7564 34.7834 13.7203 34.567Z" fill="#636466"/>
<path d="M18.2632 39.977C18.2272 39.7606 18.1189 39.5802 17.9386 39.436C17.7943 39.3278 17.6141 39.2917 17.4698 39.2917C17.2174 39.2917 16.9649 39.3999 16.7845 39.6524L14.3682 42.9703C14.2239 43.1506 14.1879 43.3671 14.224 43.5835C14.26 43.7999 14.3682 43.9802 14.5485 44.1244C14.9092 44.3769 15.4501 44.3048 15.7026 43.9441L18.1189 40.6261C18.2632 40.4097 18.2993 40.1933 18.2632 39.977Z" fill="#636466"/>
<path d="M35.4664 34.567C35.4303 34.3506 35.3222 34.1703 35.1418 34.026C34.9976 33.9178 34.8172 33.8818 34.673 33.8818C34.4205 33.8818 34.168 33.99 33.9877 34.2424L31.5713 37.5603C31.3189 37.921 31.391 38.462 31.7517 38.7145C32.1123 38.9669 32.6533 38.8948 32.9057 38.5341L35.3222 35.2161C35.4664 34.9997 35.5025 34.7834 35.4664 34.567Z" fill="#636466"/>
<path d="M40.0464 39.977C40.0104 39.7606 39.9022 39.5802 39.7219 39.436C39.5776 39.3278 39.3973 39.2917 39.253 39.2917C39.0006 39.2917 38.7481 39.3999 38.5678 39.6524L36.1514 42.9703C36.0071 43.1506 35.9711 43.3671 36.0072 43.5835C36.0432 43.7999 36.1514 43.9802 36.3317 44.1244C36.6924 44.3769 37.2334 44.3048 37.4859 43.9441L39.9022 40.6261C40.0104 40.4097 40.0825 40.1933 40.0464 39.977Z" fill="#636466"/>
<path d="M30.1669 2C25.6588 2 21.6556 4.88518 20.249 9.17694C20.213 9.24907 20.1769 9.42932 19.9966 9.46539C19.9605 9.46539 19.8883 9.46539 19.8523 9.46539C19.7441 9.46539 19.6359 9.46539 19.4916 9.46539C16.1376 9.46539 13.1441 11.5572 11.9179 14.767C11.8819 14.8392 11.7737 15.0555 11.3409 15.0194C10.8721 14.9473 10.4754 14.9113 10.0787 14.9113C5.64264 14.9113 2 18.5178 2 22.9898C2 27.4619 5.60657 31.0684 10.0787 31.0684H37.921C42.357 31.0684 45.9995 27.4619 45.9995 22.9898C45.9995 19.5636 43.8356 16.4981 40.5897 15.38C40.3734 15.3079 40.3013 15.1276 40.3734 14.8752C40.5537 14.1899 40.6619 13.3965 40.6619 12.4948C40.6258 6.68833 35.9374 2 30.1669 2ZM38.7144 16.1013C39.0029 16.6063 39.4717 16.7146 39.6881 16.7867H39.7242C42.4652 17.5802 44.3406 20.1046 44.3406 22.9537C44.3406 26.4881 41.4553 29.3734 37.921 29.3734H10.0787C6.54427 29.3734 3.65903 26.4881 3.65903 22.9537C3.65903 19.4193 6.54427 16.5342 10.0787 16.5342C10.5114 16.5342 10.9442 16.5702 11.3769 16.6784C11.5212 16.7145 11.6655 16.7145 11.8097 16.7145C12.531 16.7145 13.1081 16.3178 13.3245 15.6326C14.2262 12.9277 16.6786 11.0883 19.4556 11.0883C19.5277 11.0883 19.6359 11.0883 19.7441 11.0883C19.8522 11.0883 19.9604 11.0883 20.1047 11.0883H20.1408C21.0424 11.0883 21.5834 10.6555 21.7276 9.82604V9.78994C22.8817 6.07523 26.2719 3.62293 30.1308 3.62293C34.9636 3.62293 38.9308 7.554 38.9308 12.4228C38.9308 13.2523 38.8226 14.0818 38.5702 14.9113C38.462 15.4883 38.5701 15.885 38.7144 16.1013Z" fill="#636466"/>
</svg>
