<svg width="48" height="48" viewBox="0 0 48 48" fill="none" xmlns="http://www.w3.org/2000/svg">
<path d="M41.0824 21.2292C41.0824 21.8611 40.5129 22.3958 39.84 22.3958H27.0023C26.3294 22.3958 25.76 21.8611 25.76 21.2292C25.76 20.5973 26.3294 20.0626 27.0023 20.0626H39.84C40.5129 20.0626 41.0824 20.5486 41.0824 21.2292ZM39.84 29.6388H27.0023C26.3294 29.6388 25.76 30.1737 25.76 30.8057C25.76 31.4376 26.3294 31.9723 27.0023 31.9723H39.84C40.5129 31.9723 41.0824 31.4376 41.0824 30.8057C41.0824 30.1737 40.5129 29.6388 39.84 29.6388ZM46 12.8196V35.1807C46 36.7362 44.6541 38 42.9976 38H5.00232C3.34584 38 2 36.7362 2 35.1807V12.8196C2 11.264 3.34584 10 5.00232 10H42.9976C44.6541 10 46 11.264 46 12.8196ZM43.5153 12.8196C43.5153 12.5765 43.3082 12.3335 42.9976 12.3335H5.00232C4.74349 12.3335 4.48467 12.5279 4.48467 12.8196V35.1807C4.48467 35.4237 4.69173 35.6668 5.00232 35.6668H42.9976C43.2564 35.6668 43.5153 35.4723 43.5153 35.1807V12.8196ZM39.84 24.8264H27.0023C26.3294 24.8264 25.76 25.361 25.76 25.993C25.76 26.6249 26.3294 27.1598 27.0023 27.1598H39.84C40.5129 27.1598 41.0824 26.6249 41.0824 25.993C41.0824 25.361 40.5129 24.8264 39.84 24.8264ZM20.7906 28.6666V32.7014H8.15995V28.6666C8.15995 26.4791 10.0753 24.6806 12.4047 24.6806H16.5459C18.8753 24.7292 20.7906 26.4791 20.7906 28.6666ZM18.3059 28.6666C18.3059 27.7916 17.5294 27.0139 16.5459 27.0139H12.4047C11.4729 27.0139 10.6447 27.743 10.6447 28.6666V30.368H18.2541V28.6666H18.3059ZM11.3176 21.3265V19.0904C11.3176 17.4862 12.7153 16.125 14.4753 16.125C16.1835 16.125 17.6329 17.4376 17.6329 19.0904V21.3265C17.6329 22.9307 16.2353 24.2916 14.4753 24.2916C12.7153 24.2916 11.3176 22.9307 11.3176 21.3265ZM13.8023 21.3265C13.8023 21.6668 14.1129 21.9584 14.4753 21.9584C14.8376 21.9584 15.1482 21.6668 15.1482 21.3265V19.0904C15.1482 18.7501 14.8376 18.4583 14.4753 18.4583C14.1129 18.4583 13.8023 18.7501 13.8023 19.0904V21.3265Z" fill="#636466"/>
<path d="M41.0802 21.2281C41.0802 21.8601 40.5108 22.3948 39.8378 22.3948H27.0002C26.3272 22.3948 25.7578 21.8601 25.7578 21.2281C25.7578 20.5962 26.3272 20.0615 27.0002 20.0615H39.8378C40.5108 20.0615 41.0802 20.5476 41.0802 21.2281Z" fill="#EB002F"/>
<path d="M39.8378 29.6372H27.0002C26.3272 29.6372 25.7578 30.1721 25.7578 30.8041C25.7578 31.436 26.3272 31.9707 27.0002 31.9707H39.8378C40.5108 31.9707 41.0802 31.436 41.0802 30.8041C41.0802 30.1721 40.5108 29.6372 39.8378 29.6372Z" fill="#EB002F"/>
</svg>
