<svg width="48" height="48" viewBox="0 0 48 48" fill="none" xmlns="http://www.w3.org/2000/svg">
<path d="M34.3066 29.6106L33.2269 28.5486C34.3426 27.2743 34.3067 25.3629 33.083 24.1594L31.7514 22.8498C32.1113 21.7525 31.8593 20.4781 30.9596 19.5932L29.8799 18.5312L33.7309 14.7436C34.9905 13.5047 34.9905 11.4517 33.7309 10.1774C32.4712 8.9031 30.3838 8.9031 29.0881 10.1774L19.9468 19.1683C20.4866 17.8232 20.1627 16.2659 19.119 15.2393C18.3992 14.5314 17.4994 14.1774 16.4917 14.1774C15.484 14.1774 14.5482 14.5668 13.8644 15.2393C11.705 17.3632 10.1576 20.0179 9.43776 22.8851C9.11385 24.124 8.93387 25.2921 8.86189 26.4248C8.64595 30.4247 6.19865 33.8937 6.16266 33.9291C5.87474 34.3185 5.98274 34.8494 6.37863 35.1326C6.52259 35.2388 6.7025 35.2741 6.88245 35.2741C7.17037 35.2741 7.4223 35.1326 7.60225 34.9202C7.71022 34.7786 10.3375 31.0265 10.5894 26.4957C10.6614 25.5045 10.8053 24.4072 11.0932 23.2745C11.7411 20.7258 13.1087 18.3543 15.0521 16.4428C15.412 16.0888 15.9159 15.8764 16.4197 15.8764C16.9236 15.8764 17.4275 16.0888 17.7874 16.4428C18.3632 17.0092 18.5071 17.8587 18.1832 18.5667L16.3118 22.7081C16.1318 23.0974 16.2758 23.5576 16.6357 23.77C16.9956 24.0178 17.4634 23.947 17.7513 23.6639L30.2758 11.3456C30.8516 10.7793 31.8233 10.7793 32.3992 11.3456C32.975 11.912 32.975 12.8677 32.3992 13.434L27.9004 17.8587L23.5817 22.1064C23.2218 22.4604 23.2218 22.9913 23.5817 23.3453C23.9416 23.6993 24.4814 23.6993 24.8413 23.3453L28.5483 19.6993L29.628 20.7612C30.2038 21.3276 30.2038 22.2834 29.628 22.8498L25.7411 26.6726C25.3812 27.0266 25.3812 27.5576 25.7411 27.9116C26.101 28.2655 26.6408 28.2655 27.0007 27.9116L30.7077 24.2657L31.7874 25.3276C32.0753 25.6108 32.2192 25.9648 32.2192 26.3895C32.2192 26.7789 32.0753 27.1683 31.7874 27.4515L27.6846 31.4867C27.3247 31.8407 27.3247 32.3717 27.6846 32.7256C27.8645 32.9026 28.0804 32.9733 28.2964 32.9733C28.5123 32.9733 28.7642 32.9026 28.9082 32.7256L31.8953 29.7875L32.975 30.8495C33.5509 31.4158 33.5509 32.3717 32.975 32.9381L30.4558 35.4159C30.4198 35.4513 30.3838 35.4512 30.3478 35.4866C27.1087 38.5307 23.4378 41.0793 19.5149 43.0616C18.8311 43.4156 18.2192 43.7696 17.8233 44.0174L11.0573 37.3627C10.6974 37.0088 10.1576 37.0088 9.79766 37.3627C9.43776 37.7167 9.43776 38.2477 9.79766 38.6016L17.0676 45.7518C17.2475 45.9288 17.4634 45.9997 17.6794 45.9997C17.8593 45.9997 18.0392 45.9643 18.1832 45.8581C18.1832 45.8581 19.0829 45.2562 20.3426 44.6545C24.3734 42.6368 28.1164 40.0174 31.4635 36.9025C31.5355 36.8671 31.5714 36.8317 31.6074 36.7963L34.2347 34.2122C35.5663 32.9025 35.5663 30.8495 34.3066 29.6106Z" fill="#636466"/>
<path d="M33.4799 18.8138C33.2279 18.8138 32.976 18.8139 32.7241 18.7785C32.2203 18.7431 31.8604 18.3183 31.9324 17.8227C31.9684 17.3272 32.4002 17.0085 32.9041 17.0439C34.9195 17.2209 36.8989 16.5129 38.3025 15.097C40.9658 12.4776 40.9658 8.23005 38.3025 5.64604C37.0429 4.40713 35.3153 3.69918 33.4799 3.69918C31.6444 3.69918 29.9529 4.40713 28.6573 5.64604C27.2177 7.06194 26.4979 8.9734 26.6778 10.9557C26.7138 11.4512 26.3539 11.8405 25.8861 11.9113C25.3822 11.9467 24.9863 11.5928 24.9144 11.1326C24.6984 8.65482 25.5981 6.21243 27.3976 4.44256C29.0172 2.84968 31.1766 2 33.4439 2C35.7473 2 37.9067 2.88507 39.4902 4.44256C42.8373 7.73452 42.8373 13.0794 39.4902 16.3714C37.9067 17.9289 35.7472 18.8138 33.4799 18.8138Z" fill="#EB002F"/>
</svg>
