<svg width="48" height="48" viewBox="0 0 48 48" fill="none" xmlns="http://www.w3.org/2000/svg">
<path d="M16.3445 14.9848H3.10003C2.48401 14.9848 2 14.5289 2 13.9485V5.03631C2 4.45597 2.48401 4 3.10003 4H16.3445C16.9605 4 17.4445 4.45597 17.4445 5.03631V13.9485C17.4445 14.5289 16.9165 14.9848 16.3445 14.9848ZM4.20007 12.9122H15.2444V6.03112H4.20007V12.9122Z" fill="#636466"/>
<path d="M29.5437 29.4919H16.2993C15.6832 29.4919 15.1992 29.0359 15.1992 28.4556V19.5434C15.1992 18.9631 15.6832 18.5071 16.2993 18.5071H29.5437C30.1597 18.5071 30.6437 18.9631 30.6437 19.5434V28.4556C30.6437 28.9945 30.1157 29.4919 29.5437 29.4919ZM17.3993 27.4193H28.4437V20.5382H17.3993V27.4193Z" fill="#636466"/>
<path d="M44.9001 44H31.6557C31.0397 44 30.5557 43.544 30.5557 42.9637V34.0514C30.5557 33.4711 31.0397 33.0151 31.6557 33.0151H44.9001C45.5162 33.0151 46.0002 33.4711 46.0002 34.0514V42.9637C46.0002 43.5025 45.5162 44 44.9001 44ZM32.7998 41.9274H43.8441V35.0463H32.7998V41.9274Z" fill="#EB002F"/>
<path d="M42.7008 8.43457H18.4121V10.5072H41.6008V23.5646H36.0566L38.0366 21.6993C38.4766 21.2848 38.4766 20.6215 38.0366 20.2485C37.5966 19.8339 36.8926 19.8339 36.4966 20.2485L32.6685 23.8548C32.4485 24.062 32.3605 24.3108 32.3605 24.6009C32.3605 24.8911 32.4925 25.1398 32.6685 25.3471L36.4966 28.9534C36.7166 29.1607 36.9806 29.2436 37.2886 29.2436C37.5966 29.2436 37.8607 29.1607 38.0807 28.9534C38.5207 28.5389 38.5207 27.8757 38.0807 27.5026L36.1006 25.6372H42.7449C43.3609 25.6372 43.8449 25.1813 43.8449 24.6009V9.47088C43.8009 8.89054 43.3168 8.43457 42.7008 8.43457Z" fill="#636466"/>
<path d="M28.7087 37.5345L24.8806 33.9282C24.4406 33.5137 23.7366 33.5137 23.3406 33.9282C22.9006 34.3427 22.9006 35.006 23.3406 35.379L25.3206 37.2444H8.07214V25.016H14.2763V22.9434H6.9721C6.35608 22.9434 5.87207 23.3993 5.87207 23.9797V38.2807C5.87207 38.861 6.35608 39.317 6.9721 39.317H25.3206L23.3406 41.1823C22.9006 41.5969 22.9006 42.2601 23.3406 42.6332C23.5606 42.8404 23.8246 42.9233 24.1326 42.9233C24.4406 42.9233 24.7047 42.8404 24.9247 42.6332L28.7528 39.0268C29.1488 38.6123 29.1487 37.949 28.7087 37.5345Z" fill="#636466"/>
</svg>
