<svg width="48" height="48" viewBox="0 0 48 48" fill="none" xmlns="http://www.w3.org/2000/svg">
<path d="M16.2245 19.2324C14.5208 19.2324 13.1152 17.7755 13.1152 16.0095V14.5526C13.1152 12.7866 14.5208 11.3296 16.2245 11.3296C17.9283 11.3296 19.334 12.7866 19.334 14.5526V16.0095C19.334 17.8197 17.9283 19.2324 16.2245 19.2324ZM16.2245 13.5813C15.6708 13.5813 15.245 14.0227 15.245 14.5967V16.0536C15.245 16.6276 15.6708 17.0691 16.2245 17.0691C16.7783 17.0691 17.2042 16.6276 17.2042 16.0536V14.5967C17.2042 14.0227 16.7783 13.5813 16.2245 13.5813Z" fill="#636466"/>
<path d="M21.3786 25.2372V24.7074C20.2285 23.8244 19.5045 22.4116 19.5045 20.8222V20.2482C18.7378 19.6743 17.8433 19.3652 16.821 19.3652H15.671C13.1579 19.3652 11.1133 21.4844 11.1133 24.0893V26.0319C11.1133 26.65 11.5818 27.1357 12.1781 27.1357H18.3543C19.1636 26.2527 20.1859 25.5904 21.3786 25.2372ZM13.2005 24.0893C13.2005 22.6765 14.3079 21.5727 15.6283 21.5727H16.7784C18.1414 21.5727 19.2062 22.7206 19.2062 24.0893V24.9282H13.2005V24.0893Z" fill="#636466"/>
<path d="M30.2808 36.1411H17.9711C17.3748 36.1411 16.9062 35.6554 16.9062 35.0373V32.0793C16.9062 28.459 19.76 25.501 23.2528 25.501H24.9992C28.4919 25.501 31.3457 28.459 31.3457 32.0793V35.0373C31.3457 35.6554 30.8772 36.1411 30.2808 36.1411ZM19.036 33.9336H29.216V32.0793C29.216 29.651 27.2993 27.7085 24.9992 27.7085H23.2528C20.9101 27.7085 19.036 29.6952 19.036 32.0793V33.9336Z" fill="#636466"/>
<path d="M24.1473 25.1477C21.8472 25.1477 20.0156 23.2051 20.0156 20.8651V18.6576C20.0156 16.2735 21.8898 14.375 24.1473 14.375C26.4048 14.375 28.2789 16.3177 28.2789 18.6576V20.8651C28.2789 23.2051 26.4048 25.1477 24.1473 25.1477ZM24.1473 16.5384C23.0398 16.5384 22.1453 17.4655 22.1453 18.6134V20.821C22.1453 21.9689 23.0398 22.896 24.1473 22.896C25.2547 22.896 26.1492 21.9689 26.1492 20.821V18.6134C26.1492 17.4655 25.2547 16.5384 24.1473 16.5384Z" fill="#636466"/>
<path d="M33.6476 44H2V16.8035C2 9.73951 7.53727 4 14.3524 4H46V31.1965C46 38.2605 40.4627 44 33.6476 44ZM4.17235 41.7925H33.6902C39.3126 41.7925 43.9128 37.0243 43.9128 31.1965V6.2517H14.395C8.77255 6.2517 4.17235 11.0199 4.17235 16.8477V41.7925Z" fill="#636466"/>
<path d="M33.6476 44H2V16.8035C2 9.73951 7.53727 4 14.3524 4H46V31.1965C46 38.2605 40.4627 44 33.6476 44ZM4.17235 41.7925H33.6902C39.3126 41.7925 43.9128 37.0243 43.9128 31.1965V6.2517H14.395C8.77255 6.2517 4.17235 11.0199 4.17235 16.8477V41.7925Z" fill="#636466"/>
<path d="M37.9913 21.3508C37.9913 19.2758 36.1171 17.6864 33.604 17.6864C32.3262 17.6864 31.3465 17.0684 31.3465 16.2295C31.3465 15.5673 32.3689 14.7725 33.7745 14.7725C34.5838 14.7725 35.3504 15.0374 35.8189 15.4789C36.2449 15.8762 36.9264 15.8763 37.3097 15.4348C37.6931 14.9933 37.6931 14.2869 37.2672 13.8895C36.6283 13.2714 35.7764 12.8741 34.8393 12.6975V11.5496C34.8393 10.9315 34.3708 10.4458 33.7745 10.4458C33.1782 10.4458 32.7096 10.9315 32.7096 11.5496V12.6975C30.6651 13.0507 29.2168 14.5076 29.2168 16.2295C29.2168 18.3046 31.091 19.8939 33.604 19.8939C34.8819 19.8939 35.8616 20.512 35.8616 21.3508C35.8616 22.0131 34.8393 22.8078 33.4337 22.8078C32.6244 22.8078 31.8577 22.5429 31.3892 22.1014C30.9632 21.704 30.2817 21.7041 29.8983 22.1456C29.515 22.5871 29.515 23.2935 29.941 23.6908C30.6651 24.3531 31.6447 24.7946 32.7522 24.927V26.0308C32.7522 26.6489 33.2207 27.1345 33.817 27.1345C34.4133 27.1345 34.8819 26.6489 34.8819 26.0308V24.7946C36.6708 24.3531 37.9913 22.9844 37.9913 21.3508Z" fill="#EB002F"/>
</svg>
