<svg width="44" height="44" viewBox="0 0 44 44" fill="none" xmlns="http://www.w3.org/2000/svg">
<path d="M43.0836 44C43.5075 44 43.8543 43.7507 43.9699 43.3588C44.0855 42.9669 43.8543 42.5749 43.5075 42.4324L36.493 39.1903V25.7231L36.9555 25.6518C38.8055 25.4024 40.193 23.9417 40.193 22.2315V16.5668C40.193 14.8567 38.8055 13.3604 36.9555 13.111L36.5316 13.0397L36.493 12.6478C36.0305 5.55789 29.6713 0 22.0016 0C14.332 0 7.93425 5.55789 7.5103 12.6478L7.47173 13.0397L7.04783 13.111C5.19787 13.3604 3.81034 14.8211 3.81034 16.5668V22.2315C3.81034 23.9417 5.19787 25.4381 7.04783 25.6518L7.5103 25.7231V39.1903L0.495883 42.4324C0.110474 42.6106 -0.0823058 43.0025 0.0333169 43.3588C0.14894 43.7507 0.495826 44 0.919776 44H43.0836ZM28.2838 36.6252L26.588 42.3256H17.3382L15.6424 36.6252V33.4542L16.4132 33.8105C17.9934 34.5587 19.6892 34.9506 21.5007 34.9506H22.4642C24.2371 34.9506 25.9714 34.5587 27.5516 33.8105L28.3224 33.4542V36.6252H28.2838ZM12.2123 24.69V15.7474C12.2123 14.1086 12.7133 12.5054 13.6768 11.1515C14.5247 9.94018 15.7195 8.90692 17.0685 8.22999L17.2997 8.12318L17.5309 8.22999C18.032 8.47939 18.9184 9.08498 19.7277 9.58377C22.4641 11.4008 26.6266 14.1798 31.2129 14.6429L31.6754 14.6786V24.0842C31.6754 25.7231 31.4827 26.9701 31.0202 27.8251C29.5942 31.1029 26.2412 33.2406 22.4256 33.2406H21.4621C16.3747 33.2762 12.2123 29.4284 12.2123 24.69ZM13.831 32.1004V36.1976L9.24464 38.3353V25.6518H10.4394L10.5165 26.0794C10.8248 28.2883 11.9425 30.3904 13.6768 31.958L13.831 32.1004ZM33.4098 26.0794L33.4868 25.6518H34.6816V38.3353L30.0952 36.1976V32.1004L30.2494 31.958C31.9452 30.3547 33.0629 28.2883 33.4098 26.0794ZM39.268 42.3256H28.4765L29.787 37.9433L39.268 42.3256ZM38.343 16.5311V22.1961C38.343 23.1936 37.4566 23.9774 36.416 23.9774H33.5254V14.7143H36.416C37.4566 14.7143 38.343 15.5336 38.343 16.5311ZM9.28313 12.541C9.78416 6.44865 15.3726 1.67456 21.9631 1.67456C28.5922 1.67456 34.142 6.44865 34.643 12.541L34.6816 13.0397H32.6004C28.0525 13.0397 23.6975 10.1183 20.8069 8.22999C18.6101 6.76927 17.608 6.12804 16.6831 6.51994C14.8331 7.33938 13.2528 8.62193 12.1737 10.2252C11.6341 11.009 11.2102 11.8284 10.9404 12.7191L10.8248 13.0397H9.24464L9.28313 12.541ZM5.58326 22.1961V16.5311C5.58326 15.5336 6.4697 14.7498 7.5103 14.7498H10.4394L10.4009 15.2487C10.4009 15.4268 10.4009 15.605 10.4009 15.7831V24.0129H7.5103C6.43116 23.9773 5.58326 23.1936 5.58326 22.1961ZM14.1393 37.9433L15.4497 42.3256H4.65822L14.1393 37.9433Z" fill="#636466"/>
<path d="M11.3254 13.04H7.50993C5.42872 13.04 3.77148 14.6077 3.77148 16.496V22.1607C3.77148 24.0846 5.46726 25.6165 7.50993 25.6165H11.3254C11.8265 25.6165 12.2119 25.2247 12.2119 24.7971V13.8594C12.2119 13.4319 11.8265 13.04 11.3254 13.04ZM10.4005 23.9778H7.50993C6.43079 23.9778 5.58289 23.1583 5.58289 22.1964V16.5315C5.58289 15.5339 6.46933 14.7501 7.50993 14.7501H10.4005V23.9778Z" fill="#EB002F"/>
<path d="M40.1537 16.5314C40.1537 14.6076 38.4579 13.0757 36.4152 13.0757H32.5996C32.0986 13.0757 31.7133 13.4676 31.7133 13.9307V23.0871L28.7841 24.9039C27.8206 25.474 26.7414 25.7946 25.5852 25.7946H23.3884C22.8874 25.7946 22.502 26.1866 22.502 26.6141C22.502 27.0773 22.9259 27.4335 23.3884 27.4335H25.5852C27.0883 27.4335 28.5144 27.0417 29.7862 26.2579L31.6747 25.0821L31.983 25.3672C32.1758 25.5453 32.407 25.6521 32.6382 25.6521H36.4537C38.5349 25.6521 40.1923 24.0846 40.1923 22.1964V16.5314H40.1537ZM38.3423 22.1964C38.3423 23.1939 37.4559 23.9777 36.4152 23.9777H33.5247V14.7146H36.4152C37.4944 14.7146 38.3423 15.534 38.3423 16.496V22.1964Z" fill="#EB002F"/>
</svg>
