<svg width="48" height="48" viewBox="0 0 48 48" fill="none" xmlns="http://www.w3.org/2000/svg">
<path d="M7.27294 19.1773H9.12073V20.3332C9.12073 20.8513 9.54419 21.2897 10.0446 21.2897H13.0858C13.5862 21.2897 14.0096 20.8513 14.0096 20.3332V19.1773H15.8574V28.7826H17.7052V18.2208C17.7052 17.7026 17.2817 17.2642 16.7813 17.2642H6.31057C5.81013 17.2642 5.38672 17.7026 5.38672 18.2208V28.7826H7.23446V19.1773H7.27294ZM10.9685 19.1773H12.2003V19.3766H10.9685V19.1773Z" fill="#EB002F"/>
<path d="M2 29.7407C2 30.2588 2.42346 30.6973 2.92389 30.6973H45.0761C45.5765 30.6973 46 30.2588 46 29.7407C46 29.2226 45.5765 28.7842 45.0761 28.7842H42.6124H40.7646H32.1417H30.294H17.706H15.8583H7.23533H5.38759H2.92389C2.42346 28.824 2 29.2226 2 29.7407Z" fill="#636466"/>
<path d="M32.1402 19.1773H33.9879V20.3332C33.9879 20.8513 34.4114 21.2897 34.9118 21.2897H37.9529C38.4534 21.2897 38.8768 20.8513 38.8768 20.3332V19.1773H40.7246V28.7826H42.5724V18.2208C42.5724 17.7026 42.1489 17.2642 41.6485 17.2642H31.1778C30.6774 17.2642 30.2539 17.7026 30.2539 18.2208V28.7826H32.1016V19.1773H32.1402ZM35.8357 19.1773H37.0675V19.3766H35.8357V19.1773Z" fill="#EB002F"/>
<path d="M19.7105 3.91302H21.5583V5.0689C21.5583 5.58703 21.9817 6.02541 22.4821 6.02541H25.5233C26.0237 6.02541 26.4471 5.58703 26.4471 5.0689V3.91302H28.2949V13.5184H30.1427V2.95651C30.1427 2.43838 29.7192 2 29.2188 2H18.7481C18.2477 2 17.8242 2.43838 17.8242 2.95651V13.5184H19.672V3.91302H19.7105ZM23.406 3.91302H24.6379V4.1123H23.406V3.91302Z" fill="#636466"/>
<path d="M32.1421 3.91302H33.9899V5.0689C33.9899 5.58703 34.4133 6.02541 34.9138 6.02541H37.9549C38.4553 6.02541 38.8788 5.58703 38.8788 5.0689V3.91302H40.7265V13.5184H42.5743V2.95651C42.5743 2.43838 42.1509 2 41.6504 2H31.1798C30.6793 2 30.2559 2.43838 30.2559 2.95651V13.5184H32.1036V3.91302H32.1421ZM35.8377 3.91302H37.0695V4.1123H35.8377V3.91302Z" fill="#636466"/>
<path d="M40.7646 13.519H32.1417H30.294H30.14H28.2922H19.7078H17.86H2.92389C2.42346 13.519 2 13.9574 2 14.4756C2 14.9937 2.42346 15.4322 2.92389 15.4322H45.0761C45.5765 15.4322 46 14.9937 46 14.4756C46 13.9574 45.5765 13.519 45.0761 13.519H42.6124H40.7646Z" fill="#636466"/>
<path d="M32.1402 34.4834H33.9879V35.6392C33.9879 36.1573 34.4114 36.5957 34.9118 36.5957H37.9529C38.4534 36.5957 38.8768 36.1573 38.8768 35.6392V34.4834H40.7246V44.0887H42.5724V33.5268C42.5724 33.0087 42.1489 32.5703 41.6485 32.5703H31.1778C30.6774 32.5703 30.2539 33.0087 30.2539 33.5268V44.0887H32.1016V34.4834H32.1402ZM35.8357 34.4834H37.0675V34.6827H35.8357V34.4834Z" fill="#636466"/>
<path d="M45.0761 44.0864H42.6124H40.7646H32.1417H30.294H30.14H28.2922H19.7078H17.86H17.706H15.8583H7.23533H5.38759H2.92389C2.42346 44.0864 2 44.5249 2 45.043C2 45.5612 2.42346 45.9995 2.92389 45.9995H45.0761C45.5765 45.9995 46 45.5612 46 45.043C46 44.5249 45.5765 44.0864 45.0761 44.0864Z" fill="#636466"/>
<path d="M7.27294 34.4834H9.12073V35.6392C9.12073 36.1573 9.54419 36.5957 10.0446 36.5957H13.0858C13.5862 36.5957 14.0096 36.1573 14.0096 35.6392V34.4834H15.8574V44.0887H17.7052V33.5268C17.7052 33.0087 17.2817 32.5703 16.7813 32.5703H6.31057C5.81013 32.5703 5.38672 33.0087 5.38672 33.5268V44.0887H7.23446V34.4834H7.27294ZM10.9685 34.4834H12.2003V34.6827H10.9685V34.4834Z" fill="#636466"/>
<path d="M19.7105 34.4834H21.5583V35.6392C21.5583 36.1573 21.9817 36.5957 22.4821 36.5957H25.5233C26.0237 36.5957 26.4471 36.1573 26.4471 35.6392V34.4834H28.2949V44.0887H30.1427V33.5268C30.1427 33.0087 29.7192 32.5703 29.2188 32.5703H18.7481C18.2477 32.5703 17.8242 33.0087 17.8242 33.5268V44.0887H19.672V34.4834H19.7105ZM23.406 34.4834H24.6379V34.6827H23.406V34.4834Z" fill="#636466"/>
</svg>
