<svg width="48" height="48" viewBox="0 0 48 48" fill="none" xmlns="http://www.w3.org/2000/svg">
<path d="M34.1369 42.7537C34.5004 42.6804 34.7831 42.4603 34.8639 42.1303L45.9704 5.09098C46.0511 4.76093 45.9703 4.46753 45.728 4.24749C45.4857 4.02746 45.1626 3.95417 44.7991 4.02751L4.008 14.1125C3.64452 14.1858 3.40221 14.4425 3.32144 14.7725C3.24066 15.1026 3.36185 15.4327 3.64456 15.6527L16.528 25.2976L14.1048 31.862C13.9836 32.192 14.0645 32.522 14.3472 32.7421C14.6299 32.9988 14.9933 33.0722 15.3164 32.9621L22.5458 30.7618L33.1676 42.4603C33.41 42.717 33.7734 42.827 34.1369 42.7537ZM6.35048 15.396L40.8815 6.85128L17.6993 23.8673L6.35048 15.396ZM22.3439 29.0015L16.5685 30.7618L18.5071 25.5176L18.5878 25.4443L38.5795 10.7752L22.3439 29.0015ZM24.1613 29.7349L42.9009 8.68491L33.4907 40.04L24.1613 29.7349Z" fill="#636466"/>
<path d="M4.81693 40.5522C4.57461 40.5522 4.3323 40.6256 4.13037 40.8089L2.27261 42.4959C1.90913 42.826 1.90913 43.4127 2.27261 43.7427C2.43416 43.8894 2.67647 43.9995 2.95918 43.9995C3.24189 43.9995 3.48419 43.9261 3.64574 43.7427L5.50359 42.0559C5.86708 41.7258 5.86708 41.139 5.50359 40.8089C5.30165 40.6622 5.05925 40.5522 4.81693 40.5522Z" fill="#EB002F"/>
<path d="M11.3204 36.4084C11.3204 36.1884 11.2397 35.9684 11.0378 35.785C10.8358 35.6016 10.5935 35.5283 10.3512 35.5283C10.1089 35.5283 9.86646 35.6016 9.66453 35.785L7.80678 37.472C7.48368 37.7654 7.48368 38.4254 7.80678 38.7188C8.12987 39.0122 8.8568 39.0122 9.1799 38.7188L11.0378 37.0319C11.2397 36.8486 11.3204 36.6285 11.3204 36.4084Z" fill="#EB002F"/>
</svg>
