<svg width="44" height="44" viewBox="0 0 44 44" fill="none" xmlns="http://www.w3.org/2000/svg">
<path d="M23.4993 36.8611C25.6061 36.198 27.1862 34.2867 27.1862 32.0633C27.1862 29.2938 24.8363 27.0312 21.9597 27.0312C19.0832 27.0312 16.7333 29.2938 16.7333 32.0633C16.7333 34.3257 18.2729 36.237 20.4202 36.8611C17.2195 37.2122 14.748 39.8257 14.748 42.9853C14.748 43.5314 15.2342 43.9993 15.8015 43.9993C16.3687 43.9993 16.8548 43.5314 16.8548 42.9853C16.8548 40.6839 18.7996 38.8115 21.19 38.8115H22.8106C25.201 38.8115 27.1457 40.6839 27.1457 42.9853C27.1457 43.5314 27.6319 43.9993 28.1991 43.9993C28.7663 43.9993 29.2525 43.5314 29.2525 42.9853C29.1715 39.8647 26.6595 37.2512 23.4993 36.8611ZM21.9192 35.0668C20.1771 35.0668 18.7996 33.7016 18.7996 32.0633C18.7996 30.425 20.2176 29.0597 21.9192 29.0597C23.6209 29.0597 25.0389 30.425 25.0389 32.0633C25.0389 33.7016 23.6614 35.0668 21.9192 35.0668Z" fill="#636466"/>
<path d="M38.2474 36.8611C40.3542 36.198 41.9343 34.2867 41.9343 32.0633C41.9343 29.2938 39.5844 27.0312 36.7078 27.0312C33.8312 27.0312 31.4813 29.2938 31.4813 32.0633C31.4813 34.3257 33.0209 36.237 35.1682 36.8611C31.9675 37.2122 29.4961 39.8257 29.4961 42.9853C29.4961 43.5314 29.9823 43.9993 30.5495 43.9993C31.1167 43.9993 31.6029 43.5314 31.6029 42.9853C31.6029 40.6839 33.5476 38.8115 35.938 38.8115H37.5586C39.949 38.8115 41.8937 40.6839 41.8937 42.9853C41.8937 43.5314 42.3799 43.9993 42.9471 43.9993C43.5144 43.9993 44.0005 43.5314 44.0005 42.9853C43.9195 39.8647 41.4481 37.2512 38.2474 36.8611ZM36.7078 35.0668C34.9656 35.0668 33.5881 33.7016 33.5881 32.0633C33.5881 30.425 35.0062 29.0597 36.7078 29.0597C38.4094 29.0597 39.8275 30.425 39.8275 32.0633C39.8275 33.7016 38.4094 35.0668 36.7078 35.0668Z" fill="#636466"/>
<path d="M7.17057 4.7199C7.73779 4.7199 8.22398 4.25177 8.22398 3.70568V2.02845H41.3654V23.4824H16.5701C16.0029 23.4824 15.5167 23.9503 15.5167 24.4964C15.5167 25.0425 16.0029 25.5106 16.5701 25.5106H42.4188C42.986 25.5106 43.4722 25.0425 43.4722 24.4964V1.01422C43.4722 0.468123 42.986 0 42.4188 0H7.17057C6.60336 0 6.11719 0.468123 6.11719 1.01422V3.70568C6.11719 4.29078 6.56284 4.7199 7.17057 4.7199Z" fill="#636466"/>
<path d="M8.75127 15.7594C10.8581 15.0962 12.4381 13.185 12.4381 10.9616C12.4381 8.19206 10.0883 5.92969 7.2117 5.92969C4.33512 5.92969 1.98523 8.19206 1.98523 10.9616C1.98523 13.224 3.52482 15.1353 5.67213 15.7594C2.47143 16.1104 0 18.724 0 21.8836V29.6069C0 30.153 0.486172 30.6211 1.05339 30.6211C1.6206 30.6211 2.10677 30.153 2.10677 29.6069V21.8836C2.10677 19.5821 4.05151 17.7097 6.4419 17.7097H8.06251C10.4529 17.7097 12.3976 19.5821 12.3976 21.8836V29.6069C12.3976 30.153 12.8838 30.6211 13.451 30.6211C14.0182 30.6211 14.5044 30.153 14.5044 29.6069V21.8836C14.3829 18.724 11.9115 16.1494 8.75127 15.7594ZM7.17117 7.9189C8.91332 7.9189 10.2908 9.28422 10.2908 10.9225C10.2908 12.5608 8.87281 13.9261 7.17117 13.9261C5.46953 13.9261 4.05152 12.5608 4.05152 10.9225C4.05152 9.28422 5.42902 7.9189 7.17117 7.9189Z" fill="#636466"/>
<path d="M21.5944 16.3829H37.8005C38.3677 16.3829 38.8539 15.9148 38.8539 15.3687C38.8539 14.8226 38.3677 14.3545 37.8005 14.3545H21.5944C21.0272 14.3545 20.541 14.8226 20.541 15.3687C20.541 15.9148 21.0272 16.3829 21.5944 16.3829Z" fill="#EB002F"/>
<path d="M21.5944 20.3605H37.8005C38.3677 20.3605 38.8539 19.8924 38.8539 19.3463C38.8539 18.8002 38.3677 18.332 37.8005 18.332H21.5944C21.0272 18.332 20.541 18.8002 20.541 19.3463C20.541 19.8924 21.0272 20.3605 21.5944 20.3605Z" fill="#EB002F"/>
</svg>
