<svg width="48" height="48" viewBox="0 0 48 48" fill="none" xmlns="http://www.w3.org/2000/svg">
<path d="M42.8947 2H4.94669C4.43388 2 4 2.42762 4 2.93291C4 3.43821 4.43388 3.86573 4.94669 3.86573H7.6291V18.9469C7.6291 21.4345 9.68033 23.4556 12.2049 23.4556H15.6369C16.1497 23.4556 16.5835 23.0281 16.5835 22.5228C16.5835 22.0175 16.1497 21.59 15.6369 21.59H12.2049C10.7454 21.59 9.52257 20.4239 9.52257 18.9469V3.86573H38.3583V18.9469C38.3583 20.385 37.1749 21.59 35.6759 21.59H32.244C31.7312 21.59 31.2973 22.0175 31.2973 22.5228C31.2973 23.0281 31.7312 23.4556 32.244 23.4556H35.6759C38.2005 23.4556 40.2123 21.4345 40.2123 18.9469V3.86573H42.8947C43.4075 3.86573 43.8414 3.43821 43.8414 2.93291C43.8414 2.42762 43.4075 2 42.8947 2Z" fill="#636466"/>
<path d="M31.141 7.36328H25.7368C25.224 7.36328 24.7901 7.7908 24.7901 8.2961C24.7901 8.80139 25.224 9.22901 25.7368 9.22901H28.8926L24.6717 13.388L21.6738 11.9109C21.3187 11.7166 20.8848 11.7944 20.5693 12.0665L16.0329 16.5364C15.6778 16.8862 15.6778 17.4692 16.0329 17.8579C16.2301 18.0134 16.4668 18.13 16.7034 18.13C16.9401 18.13 17.1768 18.0522 17.374 17.8579L21.3976 13.8933L24.3956 15.3703C24.7506 15.5647 25.1846 15.4869 25.5001 15.2148L30.2338 10.5505V13.66C30.2338 14.1653 30.6677 14.5929 31.1805 14.5929C31.6933 14.5929 32.1272 14.1653 32.1272 13.66V8.335C32.0878 7.79084 31.6538 7.36328 31.141 7.36328Z" fill="#EB002F"/>
<path d="M26.2092 28.6258C27.1954 27.9262 27.866 26.799 27.866 25.4775V23.2231C27.866 21.0853 26.1304 19.375 23.9608 19.375H23.9213C21.7518 19.375 20.0161 21.0853 20.0161 23.2231V25.4775C20.0161 26.7602 20.6867 27.9262 21.6728 28.6258C18.9115 28.6647 16.6631 30.8802 16.6631 33.6011V37.0604H31.219V33.6011C31.219 30.8414 28.9705 28.6258 26.2092 28.6258ZM23.9213 21.2796H23.9608C24.4736 21.2796 24.9864 21.474 25.3414 21.8627C25.6964 22.2125 25.9331 22.7178 25.9331 23.2231V25.4775C25.9331 25.9828 25.7359 26.4881 25.3414 26.8379C24.9469 27.1877 24.4736 27.4209 23.9608 27.4209H23.9213C23.4085 27.4209 22.8957 27.2266 22.5407 26.8379C22.1857 26.4881 21.949 25.9828 21.949 25.4775V23.2231C21.949 22.7178 22.1462 22.2125 22.5407 21.8627C22.8957 21.474 23.4085 21.2796 23.9213 21.2796ZM21.7518 30.4915H26.2092C27.9449 30.4915 29.3256 31.8519 29.3256 33.5622V35.1169H18.6354V33.5622C18.6354 31.8908 20.0161 30.4915 21.7518 30.4915Z" fill="#636466"/>
<path d="M38.9905 37.5663C39.9767 36.8666 40.6472 35.7395 40.6472 34.4179V32.1635C40.6472 30.0257 38.9116 28.3154 36.742 28.3154H36.7025C34.533 28.3154 32.7973 30.0257 32.7973 32.1635V34.4179C32.7973 35.7006 33.4679 36.8666 34.4541 37.5663C31.6928 37.6051 29.4443 39.8207 29.4443 42.5415V46.0008H44.0002V42.5415C44.0397 39.8207 41.7912 37.5663 38.9905 37.5663ZM36.7815 36.3614H36.742C36.2292 36.3614 35.7164 36.167 35.3614 35.7783C35.0064 35.4285 34.7697 34.9232 34.7697 34.4179V32.1635C34.7697 31.6582 34.9669 31.1529 35.3614 30.8031C35.7164 30.4533 36.2292 30.2201 36.742 30.2201H36.7815C37.2943 30.2201 37.8071 30.4144 38.1621 30.8031C38.5171 31.1529 38.7538 31.6582 38.7538 32.1635V34.4179C38.7538 34.9232 38.5566 35.4285 38.1621 35.7783C37.7676 36.167 37.2943 36.3614 36.7815 36.3614ZM31.4167 44.0962V42.5415C31.4167 40.8313 32.7973 39.4709 34.533 39.4709H38.9905C40.7261 39.4709 42.1068 40.8313 42.1068 42.5415V44.0962H31.4167Z" fill="#636466"/>
<path d="M14.098 37.5663C15.0841 36.8666 15.7547 35.7395 15.7547 34.4179V32.1635C15.7547 30.0257 14.019 28.3154 11.8494 28.3154H11.81C9.64043 28.3154 7.90475 30.0257 7.90475 32.1635V34.4179C7.90475 35.7006 8.57538 36.8666 9.56155 37.5663C6.80026 37.6051 4.55176 39.8207 4.55176 42.5415V46.0008H19.1077V42.5415C19.1077 39.8207 16.8592 37.5663 14.098 37.5663ZM11.8494 36.3614H11.81C11.2972 36.3614 10.7844 36.167 10.4294 35.7783C10.0743 35.3896 9.83766 34.9232 9.83766 34.4179V32.1635C9.83766 31.6582 10.0349 31.1529 10.4294 30.8031C10.8238 30.4533 11.2972 30.2201 11.81 30.2201H11.8494C12.3623 30.2201 12.8751 30.4144 13.2301 30.8031C13.5851 31.1529 13.8218 31.6582 13.8218 32.1635V34.4179C13.8218 34.9232 13.6246 35.4285 13.2301 35.7783C12.8751 36.167 12.3623 36.3614 11.8494 36.3614ZM6.52411 44.0962V42.5415C6.52411 40.8313 7.90476 39.4709 9.64043 39.4709H14.098C15.8336 39.4709 17.2143 40.8313 17.2143 42.5415V44.0962H6.52411Z" fill="#636466"/>
</svg>
