<svg width="48" height="48" viewBox="0 0 48 48" fill="none" xmlns="http://www.w3.org/2000/svg">
<path d="M21.5692 29.3365C21.5692 26.5259 20.2627 23.9161 18.0961 22.3101C19.7529 21.2059 20.8363 19.2653 20.8363 17.1239C20.8363 16.6889 20.4858 16.3209 20.0715 16.3209C19.6573 16.3209 19.3069 16.6889 19.3069 17.1239C19.3069 19.031 18.1598 20.7375 16.4711 21.3398C15.4834 20.9048 14.4319 20.7041 13.3485 20.7041C13.1574 20.7041 12.9662 20.704 12.7113 20.7375C12.552 20.7375 12.3927 20.7709 12.2334 20.8044C10.7358 21.0051 9.33385 21.6409 8.18679 22.6446C7.86817 22.9123 7.8044 23.4477 8.0593 23.7823C8.21861 23.9831 8.4417 24.0834 8.66474 24.0834C8.82405 24.0834 9.01523 24.0165 9.14268 23.9161C10.0986 23.1131 11.2456 22.5777 12.4245 22.4104C12.5519 22.377 12.6794 22.377 12.8069 22.377C12.9981 22.377 13.1573 22.3435 13.3167 22.3435C14.2725 22.3435 15.1966 22.5443 16.0569 22.9792C18.4466 24.1169 19.976 26.6263 19.976 29.37C19.976 33.1844 17.0446 36.2961 13.4123 36.363C13.4123 36.363 13.4122 36.3296 13.3804 36.3296C13.3804 36.2961 13.3485 36.2961 13.3485 36.2627C13.3167 36.2292 13.3167 36.2291 13.2848 36.1957C13.2848 36.1622 13.2529 36.1622 13.2529 36.1288C13.2211 36.0953 13.2211 36.0953 13.1892 36.0619C13.1892 36.0284 13.1574 36.0284 13.1255 35.995C13.0937 35.9615 13.0936 35.9615 13.0617 35.9281C13.0299 35.8946 13.0299 35.8946 12.998 35.8611C12.9662 35.8276 12.9662 35.8277 12.9343 35.7942C12.9025 35.7607 12.9025 35.7607 12.8706 35.7273C12.8387 35.6938 12.8388 35.6938 12.8069 35.6604L12.775 35.6269C12.7431 35.5934 12.7113 35.56 12.6794 35.5265L12.6476 35.4931C12.6157 35.4596 12.5838 35.4262 12.552 35.3927C12.5201 35.3927 12.5201 35.3592 12.4883 35.3592C12.4564 35.3257 12.4245 35.3258 12.4245 35.2923C12.3926 35.2923 12.3926 35.2589 12.3608 35.2589C12.3289 35.2254 12.3289 35.2254 12.2971 35.1919C12.2652 35.1919 12.2652 35.1585 12.2334 35.1585C12.2015 35.125 12.2015 35.1251 12.1696 35.0916C12.1378 35.0916 12.1377 35.0581 12.1059 35.0581C12.074 35.0581 12.074 35.0246 12.0421 35.0246C12.0103 35.0246 12.0103 34.9912 11.9784 34.9912C11.9466 34.9912 11.9466 34.9577 11.9147 34.9577C11.8829 34.9577 11.8829 34.9243 11.851 34.9243C11.8192 34.9243 11.7872 34.8908 11.7872 34.8908C11.7554 34.8908 11.7554 34.8573 11.7235 34.8573C11.6917 34.8573 11.6598 34.8239 11.6598 34.8239C11.6279 34.8239 11.628 34.7904 11.5961 34.7904C11.5642 34.7904 11.5324 34.757 11.5324 34.757C11.5005 34.757 11.5005 34.7235 11.4686 34.7235C11.4367 34.7235 11.4049 34.69 11.3731 34.69C11.3412 34.69 11.3411 34.6566 11.3093 34.6566C11.2774 34.6566 11.2456 34.6231 11.2138 34.6231C11.1819 34.6231 11.1818 34.6232 11.15 34.5897C11.0862 34.5562 11.0544 34.5562 10.9907 34.5227C10.9907 34.5227 10.9588 34.5228 10.9588 34.4893C10.927 34.4893 10.8951 34.4558 10.8632 34.4558C10.8314 34.4558 10.8314 34.4559 10.7995 34.4224C10.7677 34.4224 10.7358 34.3889 10.7039 34.3889C10.6721 34.3889 10.6721 34.3889 10.6402 34.3554C10.6083 34.3554 10.5765 34.322 10.5446 34.322C10.5127 34.322 10.5128 34.322 10.4809 34.2885C10.449 34.2885 10.4172 34.2886 10.3853 34.2551C10.3534 34.2551 10.3534 34.2551 10.3216 34.2551C10.2897 34.2551 10.2578 34.2551 10.226 34.2216C10.1941 34.2216 10.1941 34.2216 10.1623 34.2216C10.1304 34.2216 10.0985 34.2216 10.0667 34.2216C10.0348 34.2216 10.0348 34.2216 10.003 34.2216C9.97109 34.2216 9.93922 34.2216 9.90735 34.2216C9.87549 34.2216 9.87551 34.2216 9.84364 34.2216C9.81178 34.2216 9.7799 34.2216 9.74804 34.2216C9.71618 34.2216 9.71619 34.2216 9.68433 34.2216C9.65247 34.2216 9.62059 34.2216 9.58873 34.2216C9.55686 34.2216 9.55688 34.2216 9.52502 34.2216C9.49315 34.2216 9.46127 34.2216 9.42941 34.2216C9.39755 34.2216 9.39756 34.2216 9.3657 34.2216C9.30198 34.2216 9.27011 34.2216 9.20639 34.2216C8.82403 34.2216 8.40983 34.255 8.02748 34.3554C7.99562 34.3554 7.99556 34.3555 7.96369 34.3889C7.39016 33.084 6.11571 32.1806 4.68189 32.1806C3.78973 32.1806 2.92941 32.5152 2.26029 33.1509C1.94166 33.4521 1.90981 33.9539 2.19658 34.2885C2.48334 34.6231 2.96125 34.6566 3.27988 34.3554C3.66224 33.9874 4.14022 33.7866 4.68189 33.7866C5.66964 33.7866 6.52987 34.5227 6.68918 35.5265C6.72105 35.6603 6.72108 35.7942 6.72108 35.9281C6.72108 36.2961 6.6255 36.6307 6.49805 36.9319C6.30688 37.3334 6.43433 37.8017 6.81668 38.036C6.94413 38.1029 7.03967 38.1363 7.16712 38.1363C7.45389 38.1363 7.70882 37.969 7.83627 37.7014C8.12304 37.166 8.2505 36.5638 8.2505 35.9281C8.28237 35.9281 8.31425 35.9281 8.34611 35.9281C8.63287 35.8612 8.88773 35.8277 9.17449 35.8277C10.449 35.8277 11.6279 36.5303 12.2971 37.6679C12.6476 38.2702 12.8387 38.9729 12.8387 39.6755C12.8387 41.7835 11.2137 43.5233 9.17449 43.5233C8.76028 43.5233 8.40982 43.8914 8.40982 44.3263C8.40982 44.7613 8.76028 45.1294 9.17449 45.1294C12.0421 45.1294 14.3681 42.6869 14.3681 39.6755C14.3681 39.1067 14.2725 38.5379 14.1132 38.0025C18.351 37.4672 21.5692 33.7866 21.5692 29.3365Z" fill="#636466"/>
<path d="M5.79777 30.4405C5.82964 30.4405 5.89333 30.4405 5.92519 30.4405C6.27568 30.4405 6.62614 30.1728 6.68987 29.7713C6.75359 29.3363 6.49869 28.9013 6.05261 28.8344C4.7781 28.6002 3.85411 27.4291 3.85411 26.0907C3.85411 24.6854 4.84187 23.4809 6.18011 23.3136C6.18011 23.3136 6.18006 23.3136 6.21193 23.3136H6.24382H6.27571H6.30753H6.33942H6.37124H6.40313C6.40313 23.3136 6.43503 23.3136 6.43503 23.2802C6.43503 23.2802 6.46684 23.2802 6.46684 23.2467C6.46684 23.2467 6.49874 23.2467 6.49874 23.2133C6.49874 23.2133 6.53055 23.2133 6.53055 23.1798C6.53055 23.1798 6.56245 23.1798 6.56245 23.1463L6.59434 23.1129L6.62616 23.0794L6.65805 23.046C6.65805 23.046 6.65801 23.0125 6.68987 23.0125C6.68987 23.0125 6.6899 22.979 6.72176 22.979C6.72176 22.979 6.72179 22.9456 6.75366 22.9456C6.75366 22.9456 6.75361 22.9121 6.78547 22.9121V22.8787C6.78547 22.8787 6.7855 22.8452 6.81737 22.8452V22.8117V22.7783V22.7448V22.7114V22.6779V22.6444V22.611V22.5775V22.5441V22.5106C6.81737 22.5106 6.81737 22.5106 6.81737 22.4771V22.4437V22.4102V22.3768V22.3433V22.3098V22.2764C6.81737 22.2764 6.81734 22.2429 6.78547 22.2429C6.78547 22.2429 6.78552 22.2095 6.75366 22.2095C6.75366 22.2095 6.75363 22.176 6.72176 22.176C6.72176 22.176 6.72173 22.1425 6.68987 22.1425C6.68987 22.1425 6.68992 22.1091 6.65805 22.1091L6.62616 22.0756C5.9889 21.373 5.60657 20.4696 5.60657 19.4993C5.60657 18.5624 5.92521 17.7259 6.49874 17.0567C7.45462 18.0605 8.60167 18.8301 9.90804 19.2651C10.3223 19.3989 10.7365 19.1647 10.8639 18.7632C10.9914 18.3282 10.7683 17.8932 10.386 17.7594C9.11147 17.3244 7.99624 16.5214 7.16781 15.4172C6.18006 14.1123 5.60657 12.5063 5.60657 10.8333C5.60657 6.8182 8.7291 3.57257 12.5208 3.57257C14.4644 3.57257 16.2488 4.40911 17.587 5.88132C17.587 5.88132 17.5869 5.88127 17.6188 5.91473C17.6188 5.91473 17.6188 5.91476 17.6188 5.94822L17.6507 5.98171C17.6507 5.98171 17.6825 5.98166 17.6825 6.01512L17.7144 6.04862C17.7144 6.04862 17.7463 6.04857 17.7463 6.08203C17.7463 6.08203 17.7781 6.08206 17.7781 6.11552C17.7781 6.11552 17.81 6.11555 17.81 6.14901H17.8418H17.8737H17.9056H17.9374H17.9693H18.0011H18.033H18.0649H18.0968H18.1286H18.1605H18.1924H18.2243H18.2561H18.288H18.3198H18.3517H18.3836C18.3836 6.14901 18.4154 6.14898 18.4154 6.11552C18.4154 6.11552 18.4473 6.11548 18.4473 6.08203C18.4473 6.08203 18.4791 6.08207 18.4791 6.04862C18.4791 6.04862 18.511 6.04858 18.511 6.01512C18.511 6.01512 18.5429 6.01517 18.5429 5.98171L18.5747 5.94822C18.5747 5.94822 18.5747 5.94819 18.6066 5.91473C18.6066 5.91473 18.6065 5.91478 18.6384 5.88132C19.1163 5.34597 19.7536 5.07824 20.4228 5.07824C21.3149 5.07824 22.1434 5.61359 22.5894 6.41662C22.7806 6.78467 22.8762 7.21971 22.8762 7.65468C22.8762 9.05997 21.7928 10.231 20.4228 10.231C20.0085 10.231 19.6581 10.5991 19.6581 11.034C19.6581 11.469 20.0085 11.8371 20.4228 11.8371C22.6213 11.8371 24.4056 9.92992 24.4056 7.65468C24.4056 7.5543 24.4056 7.48737 24.4056 7.38699C24.4056 7.35353 24.4056 7.32005 24.4056 7.2866C24.4056 7.21968 24.4056 7.15276 24.3737 7.1193C24.3737 7.08584 24.3737 7.05236 24.3419 7.0189C24.3419 6.95199 24.3419 6.91853 24.31 6.85161C24.31 6.81815 24.31 6.78467 24.2782 6.75121C24.2782 6.71775 24.2463 6.65087 24.2463 6.61741V6.58392C24.5012 6.517 24.7879 6.4836 25.0429 6.4836C27.1777 6.4836 28.9301 8.32385 28.9301 10.5656C28.9301 11.2348 28.7708 11.8705 28.484 12.4728C28.4203 12.4393 28.3566 12.4394 28.2928 12.4059C27.2095 12.1048 26.0625 12.1382 24.9791 12.5063C24.5649 12.6401 24.3737 13.1085 24.5012 13.5435C24.5968 13.8781 24.9154 14.0789 25.2341 14.0789C25.3296 14.0789 25.3933 14.0788 25.4889 14.0454C26.2536 13.7777 27.082 13.7443 27.8786 13.9785C28.0379 14.0119 28.1654 14.0788 28.3247 14.1458C28.4203 14.2127 28.5159 14.2796 28.6115 14.2796C29.5355 14.7815 30.2683 15.6515 30.6188 16.6887C30.7144 17.0233 31.0331 17.224 31.3517 17.224C31.4473 17.224 31.511 17.2241 31.6066 17.1906C32.0208 17.0568 32.212 16.5883 32.0846 16.1533C31.6703 14.9153 30.8738 13.8446 29.8542 13.142C30.2365 12.339 30.4595 11.469 30.4595 10.5656C30.4595 7.42045 28.038 4.87754 25.0429 4.87754C24.533 4.87754 24.0233 4.94444 23.5453 5.11174C22.7806 4.10796 21.6335 3.50567 20.3909 3.50567C19.5624 3.50567 18.7341 3.77336 18.0649 4.27525C16.5037 2.80304 14.4962 2 12.4252 2C7.7732 2 3.94972 5.9817 3.94972 10.9002C3.94972 12.6736 4.45948 14.4134 5.41536 15.8856C4.49134 16.856 3.94972 18.1944 3.94972 19.5997C3.94972 20.57 4.2046 21.5068 4.65068 22.3098C3.185 23.0125 2.19727 24.5516 2.19727 26.3249C2.32472 28.2321 3.79042 30.0724 5.79777 30.4405Z" fill="#636466"/>
<path d="M35.4291 19.9009H35.4609C35.7477 20.0013 36.0345 20.0348 36.3531 20.0348C37.5639 20.0348 38.711 19.1983 39.0933 17.9269L39.6987 15.9527C40.1766 14.3801 39.3482 12.6403 37.8188 12.1384H37.7869C37.5002 12.038 37.2134 12.0046 36.8948 12.0046C35.684 12.0046 34.537 12.841 34.1546 14.1125L33.5492 16.0866C33.0712 17.6592 33.8997 19.399 35.4291 19.9009ZM35.0149 16.555L35.6202 14.5809C35.8114 14.0121 36.3213 13.6106 36.9266 13.6106C37.0541 13.6106 37.2134 13.6441 37.3409 13.6775H37.3727C38.0737 13.9118 38.4879 14.7147 38.233 15.4508L37.6276 17.425C37.4364 17.9938 36.9266 18.3953 36.3212 18.3953C36.1938 18.3953 36.0345 18.3618 35.9071 18.3284H35.8752C35.1742 18.1276 34.7918 17.3246 35.0149 16.555Z" fill="#EB002F"/>
<path d="M45.8805 24.0843C45.5937 23.3482 44.9565 22.9132 44.2555 22.9132C44.0325 22.9132 43.8095 22.9467 43.6183 23.0471L39.8904 24.5862H39.8585C39.8266 24.5862 39.8266 24.5862 39.7947 24.5528L36.9271 21.4075C36.8952 21.3741 36.8634 21.3406 36.8315 21.3071L36.7996 21.2737C36.7359 21.2068 36.6722 21.1399 36.6085 21.1064C36.258 20.8053 35.8437 20.571 35.3658 20.4707L33.3585 20.0023C33.1354 19.9353 32.9124 19.9354 32.6893 19.9354C32.5619 19.9354 32.4344 19.9353 32.307 19.9688L27.4001 20.2365C27.1452 20.2365 26.8903 20.3368 26.6673 20.4707C26.4761 20.5376 26.3168 20.6045 26.1575 20.7384L21.9834 24.0174C21.2187 24.6197 21.0594 25.7573 21.633 26.5603C21.9835 27.0288 22.4933 27.2964 23.0031 27.2964C23.3536 27.2964 23.7359 27.1626 24.0227 26.9283L27.878 23.917L29.4393 23.8166L28.2285 29.4044C28.133 29.8728 28.133 30.3746 28.2285 30.8431L25.7432 35.2263L19.5619 36.4977C18.5104 36.6985 17.8413 37.7692 18.0644 38.8733C18.2555 39.8436 19.0521 40.5129 19.9442 40.5129C20.0717 40.5129 20.1991 40.5128 20.3266 40.4794L27.3046 39.0406C27.3683 39.0406 27.432 39.0072 27.4957 38.9737C27.9418 38.8399 28.356 38.5388 28.6109 38.0703L31.2555 33.386L31.6378 33.4864L35.557 37.468L36.1942 44.1934C36.2898 45.2306 37.1183 46.0002 38.106 46.0002C38.1697 46.0002 38.2335 46.0002 38.2972 46.0002C39.3487 45.8998 40.1134 44.8961 40.0178 43.7919L39.3168 36.3639C39.2849 35.9623 39.1256 35.6278 38.9345 35.3267C38.8707 35.2263 38.7751 35.1259 38.7114 35.0255L35.8756 32.148C35.9075 32.0811 35.9394 32.0142 35.9712 31.9138C35.9712 31.8469 36.003 31.78 36.003 31.713C36.0668 31.5792 36.0987 31.4119 36.1305 31.2781L37.0545 26.9283L38.0741 28.0325C38.2653 28.2333 38.5203 28.4006 38.7752 28.4675C38.9982 28.5679 39.2212 28.6013 39.4442 28.6013C39.6673 28.6013 39.8903 28.5679 40.0815 28.4675L44.8609 26.4599C45.7849 26.0919 46.231 25.0212 45.8805 24.0843ZM37.66 36.1297C37.6918 36.1631 37.6918 36.1631 37.6918 36.1966C37.6918 36.23 37.7237 36.2301 37.7237 36.2635C37.7555 36.3305 37.7874 36.3973 37.7874 36.4643L38.4883 43.8922C38.5202 44.1264 38.3609 44.3272 38.1379 44.3272H38.106C37.9148 44.3272 37.7555 44.16 37.7237 43.9592L37.0864 37.2338C37.0545 36.8658 36.8952 36.4977 36.6085 36.2301L32.6893 32.2484C32.4982 32.0477 32.2432 31.9138 31.9565 31.8468L31.5741 31.7465C31.4467 31.7131 31.3511 31.713 31.2236 31.713C30.6819 31.713 30.1722 32.0141 29.9173 32.516L27.2727 37.2003C27.2089 37.3007 27.1134 37.3676 27.0496 37.3676H27.0177H26.9859L20.0079 38.8064C19.9761 38.8064 19.9442 38.8064 19.9442 38.8064C19.7849 38.8064 19.6256 38.706 19.5619 38.4718C19.53 38.2376 19.6574 38.0369 19.8486 38.0034L26.03 36.7319C26.4443 36.6316 26.8266 36.3639 27.0496 35.9624L29.535 31.5792C29.5987 31.4454 29.6624 31.3115 29.6943 31.1442L34.2825 32.2484C34.3462 32.583 34.4736 32.8841 34.7285 33.1518L37.66 36.1297ZM44.4467 24.8204C44.4467 24.8538 44.383 24.9208 44.3192 24.9543L39.5398 26.9618C39.508 26.9618 39.4761 26.9618 39.4761 26.9618C39.4443 26.9618 39.4124 26.9618 39.3805 26.9283C39.3168 26.8949 39.253 26.8949 39.1893 26.8614L38.1697 25.7573C37.8829 25.4227 37.4687 25.2554 37.0545 25.2554C36.9271 25.2554 36.7677 25.2888 36.6403 25.3223C36.0986 25.4896 35.6844 25.958 35.557 26.5268L34.6648 30.7093L29.7898 29.5382L30.9688 24.1178C31.0644 23.6159 30.9688 23.114 30.6501 22.7125C30.3634 22.3445 29.9172 22.1436 29.4712 22.1436C29.4393 22.1436 29.4075 22.1436 29.3756 22.1436L27.8143 22.244C27.4957 22.244 27.209 22.3779 26.9859 22.5786L23.1305 25.59C23.0986 25.6234 23.0668 25.6235 23.0031 25.6235C22.9712 25.6235 22.9075 25.6235 22.8438 25.5566C22.8119 25.5231 22.8119 25.4561 22.8119 25.4227C22.8119 25.3892 22.8437 25.3223 22.8756 25.2889L27.0496 22.0098C27.0496 22.0098 27.0815 21.9763 27.1134 21.9763C27.2089 21.9429 27.3045 21.9094 27.4001 21.8425C27.4319 21.8091 27.4639 21.809 27.4639 21.809L32.3707 21.5414C32.4026 21.5414 32.4663 21.5414 32.4981 21.5414C32.5619 21.5414 32.6256 21.5414 32.6893 21.5414C32.7849 21.5414 32.9124 21.5414 33.008 21.5748L35.0153 22.0433C35.2384 22.1102 35.4614 22.2106 35.6207 22.3444L35.6526 22.3779C35.6526 22.3779 35.6525 22.3779 35.6844 22.3779L35.7163 22.4113C35.7163 22.4113 35.7163 22.4114 35.7482 22.4448L35.78 22.4782C35.78 22.4782 35.78 22.5117 35.8119 22.5117L38.6796 25.6569C38.9663 25.9915 39.4124 26.1922 39.8585 26.1922C40.0496 26.1922 40.2726 26.1588 40.4638 26.0584L44.1918 24.5193C44.2237 24.5193 44.2555 24.5193 44.2555 24.5193C44.3193 24.5193 44.4148 24.5527 44.4467 24.6531C44.4785 24.72 44.4467 24.7869 44.4467 24.8204Z" fill="#EB002F"/>
</svg>
