<svg width="24" height="24" viewBox="0 0 24 24" fill="none" xmlns="http://www.w3.org/2000/svg">
<path d="M22.8794 14.7354C22.5943 13.9486 21.8149 13.4728 20.9975 13.4728C20.7694 13.4728 20.5413 13.5094 20.3322 13.5826L15.9791 15.1379C15.675 14.4792 14.9716 14.0035 14.1733 14.0035H11.8161C10.8657 12.2286 8.94577 11.6613 6.7217 11.6613C3.5662 11.6613 1 13.4545 1 16.492C1 19.5295 3.5662 21.9998 6.7217 21.9998C7.44405 21.9998 8.14739 21.8717 8.77469 21.6338C9.28794 21.4874 9.66811 21.341 9.66811 21.341L21.6818 17.1874C22.7083 16.8397 23.2596 15.7235 22.8794 14.7354ZM21.3777 16.3639L9.36399 20.5176H9.34497C9.34497 20.5176 8.98381 20.6457 8.50858 20.7921C8.48958 20.7921 8.47056 20.8104 8.45155 20.8104C7.90029 21.0117 7.31099 21.1215 6.7217 21.1215C4.07944 21.1215 1.93143 19.0537 1.93143 16.5103C1.93143 15.3392 2.38766 14.3329 3.28109 13.6375C4.1365 12.9422 5.37208 12.5579 6.74073 12.5579C7.82425 12.5579 8.71768 12.7043 9.402 12.9788C10.1434 13.2898 10.6566 13.7473 11.0178 14.406C11.0748 14.5158 11.1508 14.6073 11.2459 14.6805C11.3219 14.8086 11.474 14.9001 11.6451 14.9001H14.1543C14.7436 14.9001 15.2188 15.3576 15.2188 15.9248C15.2188 16.492 14.7436 16.9494 14.1543 16.9494H8.75567C8.50855 16.9494 8.29947 17.1508 8.29947 17.3887C8.29947 17.6265 8.50855 17.8278 8.75567 17.8278H14.1543C15.2188 17.8278 16.0932 17.0044 16.1312 15.9797C16.1882 15.9797 16.2453 15.9613 16.3023 15.943L20.6363 14.3877C20.7504 14.3511 20.8645 14.3328 20.9975 14.3328C21.4538 14.3328 21.8529 14.6073 22.024 15.0099C22.2141 15.5771 21.929 16.1627 21.3777 16.3639Z" fill="#636466"/>
<path d="M13.6029 13.5279L13.2227 13.0338C12.3483 11.881 11.1507 10.7465 10.1812 10.1793C9.62997 9.84989 9.11673 9.53887 8.71754 9.2278C7.06375 7.94693 6.55054 6.55621 7.08279 4.87277C7.76712 2.89656 9.49692 2 10.8085 2C12.2532 2 13.1276 2.54891 13.6029 2.96977C14.0591 2.54891 14.9335 2 16.3972 2C17.7089 2 19.4387 2.89663 20.123 4.85454V4.87277C20.6552 6.55621 20.142 7.94693 18.4882 9.2278C18.07 9.53887 17.5568 9.84989 17.0245 10.1793C16.074 10.7648 14.8765 11.881 13.983 13.0338L13.6029 13.5279ZM10.8085 2.8966C9.82007 2.8966 8.50846 3.59196 7.97621 5.12902C7.55801 6.42819 7.9572 7.43458 9.30684 8.49587C9.66802 8.78864 10.1622 9.0814 10.6755 9.39247C11.759 10.0329 12.8425 11.1125 13.5839 12.0091C14.3252 11.1125 15.4278 10.0512 16.4923 9.39247C17.0055 9.0814 17.4998 8.78864 17.8609 8.49587C19.2106 7.45287 19.6098 6.44649 19.1916 5.12902C18.6593 3.59196 17.3477 2.8966 16.3592 2.8966C14.5913 2.8966 13.983 3.86637 13.983 3.86637L13.5649 4.54344L13.1467 3.86637C13.1657 3.82977 12.5384 2.8966 10.8085 2.8966Z" fill="#636466"/>
<path d="M15.3142 8.47751C15.3142 7.70899 14.5729 7.14178 13.6034 7.14178C13.1282 7.14178 12.843 6.92214 12.843 6.72086C12.843 6.55618 13.1662 6.30004 13.6604 6.30004C13.9456 6.30004 14.2117 6.39148 14.3828 6.51956C14.5729 6.68425 14.877 6.68432 15.0481 6.50134C15.2192 6.31836 15.2192 6.02558 15.0291 5.8609C14.801 5.65962 14.4969 5.51318 14.1547 5.43999V5.11065C14.1547 4.85448 13.9456 4.6532 13.6795 4.6532C13.4133 4.6532 13.2042 4.85448 13.2042 5.11065V5.43999C12.4439 5.58637 11.9116 6.09874 11.9116 6.73918C11.9116 7.5077 12.653 8.07491 13.6224 8.07491C14.0977 8.07491 14.3828 8.29455 14.3828 8.49583C14.3828 8.66051 14.0596 8.91665 13.5654 8.91665C13.2803 8.91665 13.0141 8.82521 12.843 8.69713C12.653 8.53244 12.3488 8.53237 12.1777 8.71535C12.0066 8.89834 12.0067 9.19111 12.1968 9.35579C12.4629 9.59367 12.8241 9.74013 13.2042 9.79502V10.106C13.2042 10.3622 13.4133 10.5635 13.6795 10.5635C13.9456 10.5635 14.1547 10.3622 14.1547 10.106V9.74007C14.82 9.55709 15.3142 9.06306 15.3142 8.47751Z" fill="#EB002F"/>
</svg>
