<svg width="24" height="24" viewBox="0 0 24 24" fill="none" xmlns="http://www.w3.org/2000/svg">
    <path
        d="M17.068 21.3769C17.2497 21.3402 17.3911 21.2302 17.4315 21.0651L22.9847 2.54549C23.0251 2.38046 22.9847 2.23377 22.8635 2.12375C22.7424 2.01373 22.5808 1.97708 22.3991 2.01376L2.00351 7.05624C1.82177 7.09291 1.70062 7.22123 1.66023 7.38625C1.61984 7.55128 1.68043 7.71633 1.82179 7.82635L8.26353 12.6488L7.05191 15.931C6.99133 16.096 7.03174 16.261 7.17309 16.371C7.31445 16.4994 7.49617 16.5361 7.65772 16.4811L11.2724 15.3809L16.5833 21.2302C16.7045 21.3585 16.8862 21.4135 17.068 21.3769ZM3.17475 7.69801L20.4403 3.42564L8.84917 11.9337L3.17475 7.69801ZM11.1714 14.5007L8.28374 15.3809L9.25305 12.7588L9.29342 12.7221L19.2893 5.38762L11.1714 14.5007ZM12.0801 14.8675L21.45 4.34246L16.7448 20.02L12.0801 14.8675Z"
        fill="#EB002F" />
    <path
        d="M2.40798 20.2761C2.28681 20.2761 2.16566 20.3128 2.06469 20.4045L1.13582 21.248C0.954076 21.413 0.954076 21.7063 1.13582 21.8714C1.21659 21.9447 1.33774 21.9998 1.4791 21.9998C1.62046 21.9998 1.74161 21.9631 1.82238 21.8714L2.75131 21.0279C2.93305 20.8629 2.93305 20.5695 2.75131 20.4045C2.65034 20.3311 2.52914 20.2761 2.40798 20.2761Z"
        fill="#EB002F" />
    <path
        d="M5.65973 18.2041C5.65973 18.0941 5.61936 17.9841 5.51839 17.8924C5.41742 17.8007 5.29627 17.764 5.17511 17.764C5.05394 17.764 4.93274 17.8007 4.83178 17.8924L3.9029 18.7359C3.74135 18.8826 3.74135 19.2126 3.9029 19.3593C4.06445 19.506 4.42791 19.506 4.58946 19.3593L5.51839 18.5158C5.61936 18.4242 5.65973 18.3141 5.65973 18.2041Z"
        fill="#EB002F" />
</svg>