<svg width="113" height="25" viewBox="0 0 113 25" fill="none" xmlns="http://www.w3.org/2000/svg">
<path d="M9.48417 23.6379C6.33369 25.297 2.5925 22.6575 3.22259 19.1885C3.49826 17.5671 3.22259 15.1915 1.33231 13.4193C-1.26684 11.0061 0.150878 6.78293 3.73455 6.29274C5.9005 5.99108 7.79079 4.67134 8.73593 2.7483C10.2718 -0.34366 14.8794 -0.45678 16.4546 2.7483C17.3997 4.67134 19.29 5.99108 21.456 6.29274C25.0003 6.78293 26.418 11.0438 23.8188 13.457C21.771 15.3424 21.6529 17.6048 21.9286 19.2262C22.5586 22.6952 18.8175 25.3347 15.667 23.6756C13.6192 22.5821 11.3351 22.6575 9.48417 23.6379Z" fill="#E9ECF3"/>
<path d="M7.56145 23.8684C6.30126 23.8684 5.00169 23.2651 4.17469 22.3224C3.34769 21.3421 2.99326 20.0977 3.22955 18.8534C3.38707 18.0616 3.7415 15.309 1.41802 13.1597C0.197214 12.0285 -0.31474 10.3694 0.197213 8.82339C0.709165 7.23971 2.0875 6.14621 3.78088 5.91997C5.90745 5.61831 7.75836 4.33628 8.7035 2.41324C9.45174 0.904964 10.9482 0 12.681 0C14.3744 0 15.8708 0.904964 16.6191 2.41324C17.5642 4.29858 19.4151 5.61831 21.5417 5.91997C23.2351 6.14621 24.574 7.27741 25.1254 8.82339C25.6373 10.4071 25.1647 12.0662 23.9439 13.1974C21.6205 15.3467 21.9749 18.0993 22.093 18.8534C22.3293 20.1354 22.0143 21.3798 21.1479 22.3224C20.3209 23.3028 19.0607 23.8684 17.7611 23.8684C17.0523 23.8684 16.3434 23.6799 15.6739 23.3405C14.7288 22.8503 13.7049 22.5864 12.6416 22.5864C11.5783 22.5864 10.515 22.8503 9.60926 23.3405C8.97917 23.7176 8.30969 23.8684 7.56145 23.8684ZM12.7204 0.113122C11.0664 0.113122 9.60926 1.01808 8.90041 2.45094C7.95526 4.4117 6.0256 5.73143 3.85964 6.03309C2.24502 6.25933 0.945452 7.31512 0.433499 8.82339C-0.0784531 10.3317 0.354736 11.9531 1.53616 13.0466C3.89902 15.2713 3.62336 18.0616 3.46583 18.8534C3.22955 20.06 3.5446 21.2666 4.3716 22.2093C5.15922 23.152 6.38002 23.7176 7.60083 23.7176C8.30969 23.7176 8.93979 23.5667 9.56988 23.2274C10.515 22.7372 11.6177 22.4733 12.7204 22.4733C13.7836 22.4733 14.8863 22.7372 15.8315 23.2274C16.4616 23.5667 17.131 23.7176 17.8005 23.7176C19.0213 23.7176 20.2421 23.152 21.0297 22.2093C21.8174 21.2666 22.1324 20.0977 21.9355 18.8534C21.778 18.0616 21.5023 15.2713 23.8652 13.0466C25.0466 11.9531 25.4404 10.3317 24.9678 8.82339C24.4559 7.31512 23.1563 6.25933 21.5417 6.03309C19.3364 5.73143 17.4461 4.4117 16.5009 2.45094C15.7527 0.980377 14.335 0.113122 12.7204 0.113122Z" fill="url(#paint0_linear_1787_14722)"/>
<path d="M7.56903 23.8307C6.30884 23.8307 5.00927 23.2651 4.18227 22.2847C3.35527 21.3043 3.00084 20.0977 3.19774 18.8157C3.35527 17.8353 3.7097 15.4598 1.34684 13.1974C0.165412 12.0285 -0.30716 10.3694 0.204792 8.78568C0.716745 7.202 2.09508 6.1085 3.78846 5.88226C5.91503 5.58061 7.76594 4.29858 8.71108 2.41324C9.45932 0.942671 10.9558 0 12.6886 0C14.3819 0 15.8784 0.904964 16.6267 2.41324C17.5718 4.29858 19.4227 5.61831 21.5493 5.88226C23.2427 6.1085 24.5816 7.202 25.1329 8.78568C25.6449 10.3694 25.2117 12.0285 23.9909 13.1974C21.6674 15.3467 21.9825 18.0616 22.1006 18.8157C22.3369 20.0977 22.0218 21.3043 21.1555 22.2847C20.3285 23.2651 19.0683 23.8307 17.7687 23.8307C17.0598 23.8307 16.351 23.6422 15.6815 23.3028C14.7364 22.8126 13.7125 22.5487 12.6492 22.5487C11.5859 22.5487 10.5226 22.8126 9.61684 23.3028C8.98675 23.6422 8.27789 23.8307 7.56903 23.8307ZM12.6886 0.150828C11.0346 0.150828 9.57746 1.05579 8.8686 2.45094C7.88408 4.4117 5.99379 5.73143 3.82784 6.03309C2.21322 6.25933 0.913649 7.31512 0.401697 8.82339C-0.110256 10.3317 0.322933 11.9531 1.50436 13.0466C3.86722 15.2713 3.59155 18.0238 3.43403 18.8157C3.19774 20.0223 3.51279 21.2289 4.33979 22.1339C5.12741 23.0766 6.34822 23.6422 7.56903 23.6422C8.27789 23.6422 8.90798 23.4913 9.53808 23.152C10.4832 22.6618 11.5859 22.3978 12.6886 22.3978C13.7518 22.3978 14.8545 22.6618 15.7997 23.152C16.4297 23.4913 17.0992 23.6422 17.7687 23.6422C18.9895 23.6422 20.2103 23.0766 20.9979 22.1339C21.7856 21.1912 22.1006 20.0223 21.9037 18.8157C21.7462 18.0238 21.4705 15.2335 23.8334 13.0466C25.0148 11.9531 25.4086 10.3317 24.936 8.82339C24.4241 7.31512 23.1245 6.25933 21.5099 6.03309C19.3046 5.73143 17.4143 4.4117 16.4691 2.45094C15.7209 1.01808 14.3032 0.150828 12.6886 0.150828Z" fill="url(#paint1_linear_1787_14722)"/>
<path d="M4.08299 21.5361C5.14627 23.3084 7.46975 24.1379 9.6357 23.1575C9.71447 23.1198 9.75385 23.0821 9.83261 23.0821C11.6441 22.1395 13.9282 22.064 15.9367 23.0821C16.0154 23.1198 16.0548 23.1575 16.1336 23.1575C18.2995 24.1379 20.6624 23.233 21.6469 21.4607C22.1195 20.6689 22.277 19.8016 22.1195 18.6704C21.9619 17.8409 22.0013 16.8228 22.3164 15.767C22.592 14.8243 23.1434 13.844 24.0491 13.0144C24.7974 12.298 25.1912 11.4307 25.3093 10.5635C25.585 8.79126 24.4429 6.75509 22.7102 6.18949C22.5527 6.11407 22.0801 6.00095 21.45 5.88783C19.4022 5.54847 17.6694 4.34185 16.7243 2.41881C16.5668 2.11715 16.2911 1.74008 16.0942 1.47614C14.6371 -0.409204 11.3685 -0.560031 9.67508 1.43843C9.4388 1.74008 9.24189 2.04174 9.04499 2.3811C8.09985 4.26644 6.24894 5.54847 4.08299 5.88783C3.68918 5.96324 3.33475 6.03866 3.0197 6.15178C1.24756 6.8305 0.223653 8.64043 0.420557 10.4126C0.5387 11.2799 0.932509 12.2226 1.68075 12.9013C2.58651 13.7308 3.05908 14.7112 3.37413 15.5408C3.76794 16.5589 3.76794 17.7655 3.61041 18.595C3.41351 19.7262 3.61042 20.7443 4.08299 21.5361Z" fill="url(#paint2_linear_1787_14722)"/>
<path d="M4.08299 21.5361C5.14627 23.3084 7.46975 24.1379 9.6357 23.1575C9.71447 23.1198 9.75385 23.0821 9.83261 23.0821C11.6441 22.1395 13.9282 22.064 15.9367 23.0821C16.0154 23.1198 16.0548 23.1575 16.1336 23.1575C18.2995 24.1379 20.6624 23.233 21.6469 21.4607C22.1195 20.6689 22.277 19.8016 22.1195 18.6704C21.9619 17.8409 22.0013 16.8228 22.3164 15.767C22.592 14.8243 23.1434 13.844 24.0491 13.0144C24.7974 12.298 25.1912 11.4307 25.3093 10.5635C25.585 8.79126 24.4429 6.75509 22.7102 6.18949C22.5527 6.11407 22.0801 6.00095 21.45 5.88783C19.4022 5.54847 17.6694 4.34185 16.7243 2.41881C16.5668 2.11715 16.2911 1.74008 16.0942 1.47614C14.6371 -0.409204 11.3685 -0.560031 9.67508 1.43843C9.4388 1.74008 9.24189 2.04174 9.04499 2.3811C8.09985 4.26644 6.24894 5.54847 4.08299 5.88783C3.68918 5.96324 3.33475 6.03866 3.0197 6.15178C1.24756 6.8305 0.223653 8.64043 0.420557 10.4126C0.5387 11.2799 0.932509 12.2226 1.68075 12.9013C2.58651 13.7308 3.05908 14.7112 3.37413 15.5408C3.76794 16.5589 3.76794 17.7655 3.61041 18.595C3.41351 19.7262 3.61042 20.7443 4.08299 21.5361Z" fill="url(#paint3_radial_1787_14722)"/>
<path d="M21.9928 17.9758C15.5737 8.13428 3.5625 5.94728 3.5625 5.94728C3.95631 5.87187 4.35012 5.79645 4.74393 5.72104C6.00412 5.38168 8.01255 4.47672 9.07584 2.28972C10.4148 -0.538287 14.9436 -0.953063 16.5976 2.21431C17.5427 4.06194 18.8817 5.45709 21.7959 5.90958C24.9857 6.39976 26.6791 10.3967 23.9225 13.0362C23.8831 13.0362 21.7959 14.9592 21.9928 17.9758Z" fill="url(#paint4_linear_1787_14722)"/>
<path d="M21.9928 17.9758C15.5737 8.13428 3.5625 5.94728 3.5625 5.94728C3.95631 5.87187 4.35012 5.79645 4.74393 5.72104C6.00412 5.38168 8.01255 4.47672 9.07584 2.28972C10.4148 -0.538287 14.9436 -0.953063 16.5976 2.21431C17.5427 4.06194 18.8817 5.45709 21.7959 5.90958C24.9857 6.39976 26.6791 10.3967 23.9225 13.0362C23.8831 13.0362 21.7959 14.9592 21.9928 17.9758Z" fill="url(#paint5_radial_1787_14722)"/>
<path d="M21.9928 17.9758C15.5737 8.13428 3.5625 5.94728 3.5625 5.94728C3.95631 5.87187 4.35012 5.79645 4.74393 5.72104C6.00412 5.38168 8.01255 4.47672 9.07584 2.28972C10.4148 -0.538287 14.9436 -0.953063 16.5976 2.21431C17.5427 4.06194 18.8817 5.45709 21.7959 5.90958C24.9857 6.39976 26.6791 10.3967 23.9225 13.0362C23.8831 13.0362 21.7959 14.9592 21.9928 17.9758Z" fill="url(#paint6_radial_1787_14722)"/>
<path d="M21.9928 17.9758C15.5737 8.13428 3.5625 5.94728 3.5625 5.94728C3.95631 5.87187 4.35012 5.79645 4.74393 5.72104C6.00412 5.38168 8.01255 4.47672 9.07584 2.28972C10.4148 -0.538287 14.9436 -0.953063 16.5976 2.21431C17.5427 4.06194 18.8817 5.45709 21.7959 5.90958C24.9857 6.39976 26.6791 10.3967 23.9225 13.0362C23.8831 13.0362 21.7959 14.9592 21.9928 17.9758Z" fill="url(#paint7_radial_1787_14722)"/>
<path d="M12.6473 6.19336C8.78799 6.19336 5.67689 9.36073 5.95256 13.1691C6.14946 16.4119 8.90613 19.0514 12.2535 19.2776C16.1128 19.5039 19.3815 16.4873 19.3815 12.7166C19.3815 9.13449 16.3491 6.19336 12.6473 6.19336ZM13.0805 19.1268C9.22118 19.353 6.03132 16.3742 6.03132 12.7166C6.03132 9.1722 8.98489 6.26877 12.6473 6.26877C16.4279 6.26877 19.4996 9.39844 19.2633 13.1314C19.027 16.3365 16.3491 18.9383 13.0805 19.1268Z" fill="url(#paint8_linear_1787_14722)"/>
<path d="M11.9255 5.84845C8.61747 6.18782 5.97895 8.75188 5.58514 11.957C5.11257 16.1424 8.49933 19.7246 12.7131 19.7246C16.6906 19.7246 19.8804 16.5949 19.8804 12.7488C19.9198 8.67646 16.2574 5.39597 11.9255 5.84845ZM12.7525 19.6491C8.69623 19.6491 5.42761 16.3309 5.70328 12.334C5.93956 8.90271 8.77499 6.15011 12.3193 5.92387C16.4149 5.65992 19.841 8.865 19.841 12.7865C19.8017 16.5572 16.6512 19.6491 12.7525 19.6491Z" fill="url(#paint9_linear_1787_14722)"/>
<mask id="mask0_1787_14722" style="mask-type:alpha" maskUnits="userSpaceOnUse" x="4" y="5" width="17" height="16">
<path opacity="0.73" d="M4.75 12.65C4.75 8.42681 8.25491 5.0332 12.6262 5.0332C16.9581 5.0332 20.5024 8.46452 20.5024 12.65C20.5024 16.8731 16.9975 20.2668 12.6262 20.2668C8.29429 20.3045 4.75 16.8731 4.75 12.65Z" fill="url(#paint10_radial_1787_14722)"/>
</mask>
<g mask="url(#mask0_1787_14722)">
<path opacity="0.83" d="M5.93555 12.8791C5.93555 9.07075 9.24355 5.97879 13.221 6.20503C16.6472 6.39357 19.4432 9.10845 19.6401 12.4267C19.8764 16.3105 16.7259 19.5532 12.7878 19.5532C9.00726 19.5155 5.93555 16.5367 5.93555 12.8791Z" fill="white"/>
</g>
<mask id="mask1_1787_14722" style="mask-type:alpha" maskUnits="userSpaceOnUse" x="4" y="5" width="16" height="16">
<path opacity="0.73" d="M4.75 12.735C4.75 8.70041 8.13676 5.41992 12.2718 5.41992C16.4461 5.41992 19.7935 8.70041 19.7935 12.735C19.7935 16.7697 16.4068 20.0502 12.2718 20.0502C8.13676 20.0502 4.75 16.7697 4.75 12.735Z" fill="url(#paint11_radial_1787_14722)"/>
</mask>
<g mask="url(#mask1_1787_14722)">
<path opacity="0.04" d="M5.55395 12.55C5.75085 9.38261 8.42876 6.78085 11.7368 6.59231C15.5567 6.36607 18.7466 9.3072 18.7466 12.9648C18.7466 16.5092 15.793 19.3749 12.1699 19.3749C8.34999 19.3749 5.31766 16.283 5.55395 12.55Z" fill="white"/>
</g>
<path d="M87.6647 13.6341C87.6647 15.5571 86.4833 15.9719 85.4988 15.9719C84.5142 15.9719 83.2934 15.5571 83.2934 13.6341V8.12891H80.3398V13.9735C80.3398 16.8015 82.3089 18.6114 85.4988 18.6114C88.6886 18.5737 90.6577 16.8015 90.6577 13.9735V8.12891H87.6647V13.6341Z" fill="#ED1C2C"/>
<path d="M99.4196 7.89302L99.1439 7.8176C98.7895 7.74219 98.1594 7.74219 98.0807 7.74219C94.1426 7.74219 92.2129 9.43899 92.2129 12.9457V18.2247H95.1665V14.8311C95.1665 14.6802 95.1665 14.5294 95.1665 14.3409C95.1665 11.8899 95.2452 10.4948 97.6868 10.4194C97.9231 10.4194 98.5926 10.4194 98.947 10.5325L99.4196 10.6833V7.89302Z" fill="#ED1C2C"/>
<path d="M60.483 8.12891C56.5449 8.12891 54.6152 9.82571 54.6152 13.3324V18.6114H57.5688V15.2178C57.5688 15.067 57.5688 14.9161 57.5688 14.7276C57.5688 12.2767 57.6476 10.8815 60.0892 10.8061C60.3255 10.8061 60.995 10.8061 61.3494 10.9192L61.822 11.07V8.24202L61.5463 8.16661C61.1919 8.12891 60.5618 8.12891 60.483 8.12891Z" fill="#ED1C2C"/>
<path d="M66.6704 8.12891H63.7168V18.4229H66.6704V8.12891Z" fill="#ED1C2C"/>
<path d="M40.7837 8.12891H37.7513L37.6726 8.43056C37.6726 8.46827 37.2394 11.7111 34.7978 14.803C32.3561 11.7488 31.9623 8.46827 31.9623 8.43056L31.923 8.12891H28.8906L28.93 8.50597C28.93 8.73222 29.442 14.4636 34.6009 18.5737L34.8372 18.7622L35.0734 18.5737C40.2323 14.5014 40.7443 8.76992 40.7443 8.50597L40.7837 8.12891Z" fill="#ED1C2C"/>
<path d="M75.1222 12.2535L73.35 11.9896C72.5624 11.8765 72.1686 11.5371 72.1686 11.2354C72.208 10.8584 72.8775 10.519 73.8226 10.5944H73.862C74.689 10.6321 75.3585 10.8207 75.831 11.0846L76.0279 11.1977L78.2333 9.46323L77.8395 9.19928C76.9337 8.59597 75.7523 8.25661 74.0195 8.14349H73.9801C71.6173 7.99267 69.1363 9.01075 68.9788 11.2354C68.9 12.4798 69.4119 14.0258 72.4837 14.5159L74.2558 14.7799C75.0434 14.893 75.516 15.1947 75.4766 15.5717C75.4372 16.175 74.177 16.3259 73.3894 16.2882H73.35C72.3655 16.2127 71.6173 15.9865 70.9872 15.5717L70.7509 15.4209L68.4668 17.2308L68.7818 17.4948C70.0027 18.4374 71.381 18.7391 73.0744 18.8522H73.1531C73.35 18.8522 73.5469 18.8522 73.7438 18.8522C74.8465 18.8522 75.8704 18.6637 76.658 18.2866C77.8789 17.7587 78.5483 16.8538 78.6271 15.6849C78.8634 13.9126 77.5244 12.6306 75.1222 12.2535Z" fill="#ED1C2C"/>
<path d="M109.385 14.7179L109.346 14.8311C109.03 15.5475 107.888 16.0754 106.668 16.0754C104.777 16 104.226 14.7934 104.068 14.0769H112.299V13.813C112.299 10.0046 110.212 7.77989 106.589 7.74219C102.651 7.74219 100.918 10.4571 100.918 13.172C100.918 16.4525 103.281 18.6395 106.746 18.6395C109.739 18.6395 111.157 17.0181 111.63 16.1885L109.385 14.7179ZM106.628 10.0423C107.928 10.0423 108.873 10.7587 109.07 11.9653H104.147C104.344 10.9096 105.447 10.0423 106.628 10.0423Z" fill="#ED1C2C"/>
<path d="M50.4181 14.7179L50.3787 14.8311C50.0636 15.5475 48.9216 16.0754 47.7008 16.0754C45.8105 16 45.2592 14.7934 45.1016 14.0769H53.3323V13.813C53.3323 10.0046 51.2451 7.77989 47.622 7.74219C43.6839 7.74219 41.9512 10.4571 41.9512 13.172C41.9512 16.4525 44.314 18.6395 47.7796 18.6395C50.7725 18.6395 52.1902 17.0181 52.6628 16.1885L50.4181 14.7179ZM47.7008 10.0423C49.0004 10.0423 49.9455 10.7587 50.1424 11.9653H45.2198C45.3773 10.9096 46.5194 10.0423 47.7008 10.0423Z" fill="#ED1C2C"/>
<defs>
<linearGradient id="paint0_linear_1787_14722" x1="12.6936" y1="-0.0506779" x2="12.6936" y2="23.8822" gradientUnits="userSpaceOnUse">
<stop offset="0.0879121" stop-color="white"/>
<stop offset="0.1239" stop-color="#ECEBEC" stop-opacity="0.9933"/>
<stop offset="0.4395" stop-color="#90949A" stop-opacity="0.9345"/>
<stop offset="0.7008" stop-color="#5D666D" stop-opacity="0.8858"/>
<stop offset="0.8948" stop-color="#424F56" stop-opacity="0.8496"/>
<stop offset="1" stop-color="#38474F" stop-opacity="0.83"/>
</linearGradient>
<linearGradient id="paint1_linear_1787_14722" x1="12.6678" y1="23.8278" x2="12.6678" y2="-0.0148565" gradientUnits="userSpaceOnUse">
<stop stop-color="white"/>
<stop offset="0.1411" stop-color="#3B4C53"/>
<stop offset="0.263" stop-color="#868C90"/>
<stop offset="0.3313" stop-color="#BDBFBF"/>
<stop offset="0.4233" stop-color="#3B4C53" stop-opacity="0.92"/>
<stop offset="0.5811" stop-color="#858E97" stop-opacity="0.9702"/>
<stop offset="0.6748" stop-color="#C1C8D1"/>
<stop offset="0.724" stop-color="#C6CCD4"/>
<stop offset="0.7803" stop-color="#D3D7DD"/>
<stop offset="0.84" stop-color="#E9EAED"/>
<stop offset="0.8773" stop-color="white"/>
<stop offset="1" stop-color="#C1C8D1"/>
</linearGradient>
<linearGradient id="paint2_linear_1787_14722" x1="10.0849" y1="3.38353" x2="16.092" y2="20.6207" gradientUnits="userSpaceOnUse">
<stop stop-color="#D5D8E2"/>
<stop offset="0.0274212" stop-color="#DFE1E8"/>
<stop offset="0.0843513" stop-color="#EFF0F3"/>
<stop offset="0.1493" stop-color="#FAFAFB"/>
<stop offset="0.2393" stop-color="white"/>
<stop offset="0.4375" stop-color="#F8F9FA"/>
<stop offset="0.6334" stop-color="#ECEDEF"/>
<stop offset="0.8278" stop-color="#D8DCE1"/>
<stop offset="1" stop-color="#C1C9D2"/>
</linearGradient>
<radialGradient id="paint3_radial_1787_14722" cx="0" cy="0" r="1" gradientUnits="userSpaceOnUse" gradientTransform="translate(22.9562 10.7692) scale(12.2879 11.9341)">
<stop stop-color="#C1C8D1"/>
<stop offset="1" stop-color="#C1C8D1" stop-opacity="0"/>
</radialGradient>
<linearGradient id="paint4_linear_1787_14722" x1="11.0043" y1="0.219468" x2="19.4017" y2="19.6843" gradientUnits="userSpaceOnUse">
<stop stop-color="#384D56"/>
<stop offset="0.0549585" stop-color="#4B5C65"/>
<stop offset="0.1628" stop-color="#6C7A83"/>
<stop offset="0.2726" stop-color="#89949D"/>
<stop offset="0.3834" stop-color="#9FA9B2"/>
<stop offset="0.4961" stop-color="#AEB7BF"/>
<stop offset="0.6135" stop-color="#B4BDC4"/>
<stop offset="0.6316" stop-color="#B6BEC6"/>
<stop offset="0.8399" stop-color="#C6CCD4"/>
<stop offset="1" stop-color="#CBD1D9"/>
</linearGradient>
<radialGradient id="paint5_radial_1787_14722" cx="0" cy="0" r="1" gradientUnits="userSpaceOnUse" gradientTransform="translate(17.1345 12.5067) scale(6.0332 5.85949)">
<stop stop-color="white" stop-opacity="0.16"/>
<stop offset="0.0222641" stop-color="white" stop-opacity="0.1564"/>
<stop offset="1" stop-color="white" stop-opacity="0"/>
</radialGradient>
<radialGradient id="paint6_radial_1787_14722" cx="0" cy="0" r="1" gradientUnits="userSpaceOnUse" gradientTransform="translate(5.35501 5.94019) scale(6.03328 5.85957)">
<stop stop-color="#2C3B47" stop-opacity="0.2"/>
<stop offset="0.1471" stop-color="#2F3E49" stop-opacity="0.1706"/>
<stop offset="0.5646" stop-color="#36454D" stop-opacity="0.0870816"/>
<stop offset="1" stop-color="#38474F" stop-opacity="0"/>
</radialGradient>
<radialGradient id="paint7_radial_1787_14722" cx="0" cy="0" r="1" gradientUnits="userSpaceOnUse" gradientTransform="translate(21.9816 1.94556) scale(8.01985 7.78894)">
<stop stop-color="#2C3B47" stop-opacity="0.3"/>
<stop offset="0.5297" stop-color="#34434C" stop-opacity="0.1411"/>
<stop offset="1" stop-color="#38474F" stop-opacity="0"/>
</radialGradient>
<linearGradient id="paint8_linear_1787_14722" x1="7.55387" y1="8.47915" x2="17.3814" y2="17.4014" gradientUnits="userSpaceOnUse">
<stop stop-color="#C1C8D1"/>
<stop offset="0.6319" stop-color="white"/>
<stop offset="0.6746" stop-color="#F3F2F3"/>
<stop offset="0.7292" stop-color="#DCDDE0"/>
<stop offset="0.7902" stop-color="#BDBFC5"/>
<stop offset="0.8558" stop-color="#979BA5"/>
<stop offset="0.9251" stop-color="#6D7582"/>
<stop offset="0.9966" stop-color="#415160"/>
<stop offset="1" stop-color="#3E505F"/>
</linearGradient>
<linearGradient id="paint9_linear_1787_14722" x1="5.74057" y1="11.2386" x2="19.6926" y2="14.6027" gradientUnits="userSpaceOnUse">
<stop stop-color="#596C77"/>
<stop offset="0.8132" stop-color="white"/>
</linearGradient>
<radialGradient id="paint10_radial_1787_14722" cx="0" cy="0" r="1" gradientUnits="userSpaceOnUse" gradientTransform="translate(12.6258 12.6658) scale(7.85781 7.63156)">
<stop stop-color="white"/>
<stop offset="0.2675" stop-color="#A3A3A3"/>
<stop offset="0.5366" stop-color="#4C4C4C"/>
<stop offset="0.7268" stop-color="#151515"/>
<stop offset="0.8187"/>
</radialGradient>
<radialGradient id="paint11_radial_1787_14722" cx="0" cy="0" r="1" gradientUnits="userSpaceOnUse" gradientTransform="translate(12.2863 12.7206) scale(7.5325 7.31562)">
<stop stop-color="white"/>
<stop offset="0.2675" stop-color="#A3A3A3"/>
<stop offset="0.5366" stop-color="#4C4C4C"/>
<stop offset="0.7268" stop-color="#151515"/>
<stop offset="0.8187"/>
</radialGradient>
</defs>
</svg>
