<svg width="283" height="62" viewBox="0 0 283 62" fill="none" xmlns="http://www.w3.org/2000/svg">
<path d="M220.496 35.4881C220.496 40.5881 217.496 41.6881 214.996 41.6881C212.496 41.6881 209.396 40.5881 209.396 35.4881V20.8881H201.796V36.3881C201.796 43.8881 206.796 48.6881 214.896 48.6881C222.996 48.5881 227.996 43.8881 227.996 36.3881V20.8881H220.396V35.4881H220.496Z" fill="#EA0029"/>
<path d="M251.096 20.488L250.396 20.288C249.496 20.088 247.896 20.088 247.696 20.088C237.696 20.088 232.796 24.588 232.796 33.888V47.888H240.296V38.888C240.296 38.488 240.296 38.088 240.296 37.588C240.296 31.088 240.496 27.388 246.696 27.188C247.296 27.188 248.996 27.188 249.896 27.488L251.096 27.888V20.488Z" fill="#EA0029"/>
<path d="M152.196 20.088C142.196 20.088 137.296 24.588 137.296 33.888V47.888H144.796V38.888C144.796 38.488 144.796 38.088 144.796 37.588C144.796 31.088 144.996 27.388 151.196 27.188C151.796 27.188 153.496 27.188 154.396 27.488L155.596 27.888V20.388L154.896 20.188C153.996 20.088 152.396 20.088 152.196 20.088Z" fill="#EA0029"/>
<path d="M167.896 20.488H160.396V47.788H167.896V20.488Z" fill="#EA0029"/>
<path d="M101.796 20.488H94.0963L93.9963 21.288C93.9963 21.388 92.8963 29.988 86.6963 38.188C80.4963 30.088 79.4963 21.388 79.4963 21.288L79.3963 20.488H71.6963L71.7963 21.488C71.7963 22.088 73.0963 37.288 86.1963 48.188L86.7963 48.688L87.3963 48.188C100.496 37.388 101.796 22.188 101.796 21.488V20.488Z" fill="#EA0029"/>
<path d="M188.596 31.088L184.096 30.388C182.096 30.088 181.096 29.188 181.096 28.388C181.196 27.388 182.896 26.488 185.296 26.688H185.396C187.496 26.788 189.196 27.288 190.396 27.988L190.896 28.288L196.496 23.688L195.496 22.988C193.196 21.388 190.196 20.488 185.796 20.188H185.696C179.696 19.788 173.396 22.488 172.996 28.388C172.796 31.688 174.096 35.788 181.896 37.088L186.396 37.788C188.396 38.088 189.596 38.888 189.496 39.888C189.396 41.488 186.196 41.888 184.196 41.788H184.096C181.596 41.588 179.696 40.988 178.096 39.888L177.496 39.488L171.696 44.288L172.496 44.988C175.596 47.488 179.096 48.288 183.396 48.588H183.596C184.096 48.588 184.596 48.588 185.096 48.588C187.896 48.588 190.496 48.088 192.496 47.088C195.596 45.688 197.296 43.288 197.496 40.188C198.096 35.388 194.696 31.988 188.596 31.088Z" fill="#EA0029"/>
<path d="M275.597 37.988L275.497 38.288C274.697 40.188 271.797 41.588 268.697 41.588C263.897 41.388 262.497 38.188 262.097 36.288H282.997V35.588C282.997 25.488 277.697 19.588 268.497 19.488C258.497 19.488 254.097 26.688 254.097 33.888C254.097 42.588 260.097 48.388 268.897 48.388C276.497 48.388 280.097 44.088 281.297 41.888L275.597 37.988ZM268.697 25.588C271.997 25.588 274.397 27.488 274.897 30.688H262.397C262.897 27.888 265.697 25.588 268.697 25.588Z" fill="#EA0029"/>
<path d="M125.896 37.988L125.796 38.288C124.996 40.188 122.096 41.588 118.996 41.588C114.196 41.388 112.796 38.188 112.396 36.288H133.296V35.588C133.296 25.488 127.996 19.588 118.796 19.488C108.796 19.488 104.396 26.688 104.396 33.888C104.396 42.588 110.396 48.388 119.196 48.388C126.796 48.388 130.396 44.088 131.596 41.888L125.896 37.988ZM118.996 25.588C122.296 25.588 124.696 27.488 125.196 30.688H112.696C113.096 27.888 115.996 25.588 118.996 25.588Z" fill="#EA0029"/>
<path d="M31.8144 16.488C27.2144 16.488 22.8144 18.388 19.7144 21.688C16.5144 25.088 14.9144 29.488 15.2144 34.088C15.7144 42.388 22.4144 48.988 30.7144 49.588C35.3144 49.888 39.7144 48.288 43.1144 45.088C46.4144 41.988 48.3144 37.588 48.3144 32.988C48.4144 23.888 41.0144 16.488 31.8144 16.488Z" fill="#B9C6D7"/>
<path d="M54.4148 15.388C48.9148 14.588 44.2148 11.188 41.7148 6.18801C37.7148 -2.21199 26.0148 -1.91199 22.1148 6.18801C19.7148 11.188 14.9148 14.688 9.41476 15.388C0.414764 16.588 -3.18523 27.688 3.31477 33.988C8.11477 38.688 8.91477 44.888 8.11477 49.088C6.51477 58.088 15.9148 64.988 23.9148 60.688C28.5148 58.188 34.4148 57.888 39.5148 60.688C47.5148 64.988 57.0148 58.088 55.3148 49.088C54.5148 44.888 54.9148 38.988 60.0148 34.088C67.0148 27.788 63.4148 16.588 54.4148 15.388ZM43.8148 45.788C40.5148 48.888 36.3148 50.588 31.8148 50.588C31.4148 50.588 31.1148 50.588 30.7148 50.588C21.9148 50.088 14.9148 42.988 14.3148 34.288C14.0148 29.388 15.7148 24.788 19.0148 21.188C22.3148 17.688 27.0148 15.688 31.8148 15.688C41.5148 15.688 49.3148 23.588 49.3148 33.188C49.4148 37.788 47.3148 42.488 43.8148 45.788Z" fill="#B9C6D7"/>
</svg>
