<svg width="225" height="127" viewBox="0 0 225 127" fill="none" xmlns="http://www.w3.org/2000/svg">
<path d="M112.4 23.0392C105.989 23.0392 99.8782 25.7408 95.4703 30.3435C91.0625 35.0462 88.8586 41.2498 89.2593 47.7537C89.9606 59.3605 99.3773 68.6659 110.998 69.3663C117.51 69.7665 123.62 67.5652 128.429 63.0626C133.137 58.66 135.742 52.5565 135.742 46.1527C135.642 33.4453 125.223 23.0392 112.4 23.0392Z" fill="#B9C6D7"/>
<path d="M144.056 21.5383C136.343 20.4376 129.731 15.6348 126.325 8.6307C120.715 -3.07615 104.386 -2.67591 98.8762 8.6307C95.4701 15.6348 88.8584 20.5377 81.1446 21.5383C68.5222 23.2392 63.4131 38.6483 72.6295 47.5535C79.4416 54.0573 80.4434 62.7624 79.4416 68.6658C77.1375 81.2732 90.4612 90.8788 101.681 84.8753C108.193 81.3733 116.407 80.973 123.62 84.8753C134.84 90.8788 148.064 81.2732 145.86 68.6658C144.758 62.7624 145.259 54.4575 152.471 47.6535C161.688 38.9485 156.679 23.2392 144.056 21.5383ZM129.23 64.0631C124.622 68.3657 118.711 70.7671 112.4 70.7671C111.899 70.7671 111.398 70.7671 110.797 70.7671C98.4754 69.9666 88.658 60.1609 87.8566 47.8537C87.4559 41.0497 89.7599 34.4458 94.4683 29.5429C99.0765 24.6401 105.588 21.8384 112.4 21.8384C125.924 21.8384 136.944 32.8449 136.944 46.3528C136.944 52.9566 134.139 59.4604 129.23 64.0631Z" fill="#B9C6D7"/>
<path d="M158.482 111.719C158.482 117.122 155.276 118.323 152.571 118.323C149.866 118.323 146.661 117.222 146.661 111.719V96.11H138.646V112.62C138.646 120.624 143.956 125.627 152.671 125.727C161.287 125.627 166.596 120.624 166.596 112.62V96.11H158.482V111.719Z" fill="#EA0029"/>
<path d="M191.04 95.8099L190.238 95.6098C189.236 95.4096 187.533 95.4096 187.333 95.4096C176.614 95.4096 171.505 100.212 171.505 110.018V124.927H179.519V115.321C179.519 114.921 179.519 114.421 179.519 114.021C179.519 107.116 179.72 103.214 186.331 103.014C186.932 103.014 188.736 103.014 189.737 103.314L191.04 103.715V95.8099Z" fill="#EA0029"/>
<path d="M85.8526 95.4096C75.1335 95.4096 70.0244 100.212 70.0244 110.018V124.927H78.0387V115.321C78.0387 114.921 78.0387 114.421 78.0387 114.021C78.0387 107.116 78.239 103.214 84.8508 103.014C85.4518 103.014 87.255 103.014 88.2568 103.314L89.5591 103.715V95.8099L88.7577 95.6098C87.7559 95.4096 86.0529 95.4096 85.8526 95.4096Z" fill="#EA0029"/>
<path d="M102.583 95.8099H94.5684V124.927H102.583V95.8099Z" fill="#EA0029"/>
<path d="M32.057 95.8099H23.8424L23.7422 96.6103C23.7422 96.7104 22.6402 105.916 16.0285 114.521C9.41674 105.816 8.31478 96.7104 8.31478 96.6103L8.21461 95.8099H0L0.100177 96.8105C0.200355 97.5109 1.50267 113.62 15.4274 125.127L16.0285 125.627L16.6296 125.127C30.5543 113.62 31.9568 97.4108 31.9568 96.8105L32.057 95.8099Z" fill="#EA0029"/>
<path d="M124.521 107.016L119.713 106.216C117.609 105.916 116.507 104.915 116.607 104.115C116.708 103.114 118.511 102.114 121.115 102.314H121.216C123.419 102.514 125.223 102.914 126.525 103.614L127.126 103.915L133.137 99.0117L132.135 98.3113C129.731 96.6103 126.425 95.6098 121.817 95.3096H121.716C115.305 94.9093 108.593 97.811 108.192 104.015C107.992 107.517 109.395 111.919 117.709 113.22L122.518 114.021C124.622 114.321 125.924 115.221 125.824 116.322C125.724 118.023 122.317 118.423 120.214 118.323H120.114C117.509 118.123 115.405 117.523 113.802 116.322L113.201 115.922L106.99 121.025L107.892 121.725C111.198 124.427 114.904 125.227 119.512 125.527H119.713C120.214 125.527 120.715 125.527 121.216 125.527C124.221 125.527 126.926 125.027 129.13 124.026C132.335 122.526 134.239 119.924 134.439 116.722C134.639 111.619 131.033 108.017 124.521 107.016Z" fill="#EA0029"/>
<path d="M217.186 114.421L217.086 114.721C216.284 116.722 213.179 118.223 209.873 118.223C204.764 118.023 203.261 114.621 202.76 112.62H225V111.819C225 101.113 219.39 94.8093 209.572 94.7092C198.953 94.7092 194.245 102.414 194.245 110.018C194.245 119.224 200.556 125.427 210.073 125.427C218.188 125.427 221.994 120.825 223.297 118.523L217.186 114.421ZM209.773 101.213C213.279 101.213 215.884 103.314 216.384 106.616H203.061C203.562 103.714 206.567 101.213 209.773 101.213Z" fill="#EA0029"/>
<path d="M57.8031 114.421L57.7029 114.721C56.9015 116.722 53.796 118.223 50.4901 118.223C45.381 118.023 43.8783 114.621 43.3774 112.62H65.617V111.819C65.617 101.113 60.007 94.8093 50.1895 94.7092C39.5707 94.7092 34.8623 102.414 34.8623 110.018C34.8623 119.224 41.1735 125.427 50.6904 125.427C58.8049 125.427 62.6116 120.825 63.9139 118.523L57.8031 114.421ZM50.3899 101.213C53.8961 101.213 56.5008 103.314 57.0017 106.616H43.678C44.1789 103.714 47.1842 101.213 50.3899 101.213Z" fill="#EA0029"/>
</svg>
