<svg width="225" height="127" viewBox="0 0 225 127" fill="none" xmlns="http://www.w3.org/2000/svg">
<path d="M101.579 85.3679C90.3784 91.347 77.1822 81.8248 79.4 69.2023C80.3981 63.3339 79.4 54.6975 72.6356 48.1648C63.4315 39.3069 68.5326 23.9163 81.0634 22.2555C88.715 21.1482 95.3685 16.3871 98.6953 9.41153C104.129 -1.88228 120.43 -2.32517 126.086 9.41153C129.412 16.3871 136.066 21.259 143.718 22.2555C156.359 24.027 161.35 39.5283 152.035 48.2755C144.827 55.0296 144.383 63.3339 145.381 69.2023C147.599 81.714 134.403 91.347 123.203 85.3679C116.216 81.4926 108.01 81.8248 101.579 85.3679Z" fill="#E9ECF3"/>
<path d="M94.3702 87.1395C89.8236 87.1395 85.3879 85.0357 82.3938 81.4926C79.3997 77.9494 78.2908 73.4097 79.067 68.7593C79.6215 65.8805 80.8413 55.9154 72.6353 47.9433C68.3105 43.7358 66.5362 37.8675 68.4214 32.1098C70.3065 26.3522 75.0749 22.3662 81.0631 21.4804C88.6038 20.4839 95.1464 15.7227 98.4732 8.74716C101.135 3.32171 106.457 0 112.446 0C118.434 0 123.646 3.32171 126.307 8.74716C129.634 15.7227 136.177 20.3731 143.717 21.4804C149.705 22.2554 154.474 26.3522 156.359 32.1098C158.244 37.8675 156.581 43.9573 152.256 48.054C144.05 55.9154 145.27 65.8805 145.713 68.6486C146.49 73.299 145.381 77.728 142.387 81.3818C139.392 84.925 134.957 87.0287 130.41 87.0287C127.86 87.0287 125.42 86.3644 123.091 85.1464C119.765 83.3749 116.105 82.3783 112.335 82.3783C108.564 82.3783 104.794 83.3749 101.578 85.1464C99.3603 86.5858 96.9207 87.1395 94.3702 87.1395ZM112.557 0.77507C106.79 0.77507 101.578 3.98605 99.1386 9.19006C95.7009 16.2764 89.0473 21.1482 81.2849 22.2554C75.6294 23.0305 70.9719 26.9058 69.1976 32.442C67.4233 37.9782 68.8649 43.8465 73.0788 47.8326C81.5067 55.9154 80.3977 65.9912 79.9542 68.9808C79.1779 73.4097 80.2868 77.728 83.17 81.1604C86.0532 84.5928 90.2672 86.5858 94.592 86.5858C97.0316 86.5858 99.3603 86.0322 101.578 84.8143C105.016 82.932 108.786 82.0462 112.667 82.0462C116.549 82.0462 120.319 83.0427 123.757 84.8143C125.975 86.0322 128.303 86.5858 130.743 86.5858C135.068 86.5858 139.393 84.5928 142.165 81.1604C145.048 77.728 146.157 73.4097 145.381 68.9808C144.826 66.102 143.828 55.9154 152.256 47.8326C156.359 43.8465 157.912 37.9782 156.137 32.442C154.363 26.9058 149.705 23.0305 144.05 22.2554C136.288 21.1482 129.523 16.2764 126.196 9.19006C123.313 3.87533 118.323 0.77507 112.557 0.77507Z" fill="url(#paint0_linear_469_4803)"/>
<path d="M94.3692 86.6966C89.8226 86.6966 85.3869 84.5928 82.3928 81.0497C79.3987 77.5065 78.1789 73.0776 78.9552 68.4272C79.5096 64.884 80.7294 56.2476 72.4125 47.9433C68.1986 43.7358 66.5352 37.646 68.4204 31.8884C70.3055 26.1308 75.0739 22.1447 81.0621 21.3697C88.6028 20.3731 95.1454 15.612 98.4722 8.74716C101.134 3.32171 106.456 0 112.445 0C118.433 0 123.645 3.32171 126.306 8.74716C129.633 15.612 136.176 20.3731 143.716 21.3697C149.704 22.1447 154.473 26.2415 156.358 31.8884C158.243 37.646 156.691 43.7358 152.366 47.8326C144.16 55.694 145.158 65.4376 145.712 68.3165C146.489 72.9668 145.38 77.3958 142.386 80.9389C139.392 84.4821 134.956 86.5858 130.409 86.5858C127.859 86.5858 125.419 85.9215 123.09 84.7035C119.764 82.932 116.104 82.0462 112.334 82.0462C108.563 82.0462 104.793 82.932 101.577 84.7035C99.3593 86.0322 96.9197 86.6966 94.3692 86.6966ZM112.556 0.553618C106.789 0.553618 101.577 3.7646 99.1376 8.96861C95.6999 16.0549 89.0464 20.9268 81.2839 22.034C75.6284 22.8091 70.9709 26.6844 69.1966 32.2206C67.4223 37.646 68.8639 43.6251 73.0779 47.6111C81.5057 55.694 80.3967 65.7698 79.9532 68.6486C79.1769 73.0776 80.2858 77.3958 83.1691 80.8282C86.0523 84.2607 90.2662 86.2537 94.591 86.2537C97.0306 86.2537 99.3593 85.7 101.577 84.4821C105.015 82.7105 108.785 81.714 112.666 81.714C116.548 81.714 120.318 82.7105 123.756 84.4821C125.974 85.7 128.302 86.2537 130.742 86.2537C135.067 86.2537 139.392 84.2607 142.164 80.8282C145.047 77.3958 146.156 73.0776 145.38 68.6486C144.825 65.7698 143.827 55.694 152.255 47.6111C156.358 43.6251 157.911 37.7567 156.136 32.2206C154.362 26.7951 149.704 22.8091 144.049 22.034C136.287 20.9268 129.522 16.0549 126.195 8.96861C123.312 3.7646 118.322 0.553618 112.556 0.553618Z" fill="url(#paint1_linear_469_4803)"/>
<path d="M81.3939 78.6136C85.1643 85.0356 93.4812 88.1358 101.022 84.482C101.244 84.3712 101.465 84.2605 101.687 84.1498C108.119 80.7174 116.214 80.3852 123.311 84.1498C123.533 84.2605 123.755 84.3712 123.977 84.482C131.628 88.0251 140.056 84.8141 143.494 78.3922C145.157 75.5134 145.822 72.3024 145.157 68.2056C144.603 65.2161 144.713 61.4515 145.822 57.6869C146.82 54.2544 148.706 50.7113 151.921 47.7218C154.583 45.1751 155.914 41.9641 156.357 38.8639C157.355 32.3312 153.363 25.0234 147.153 23.0304C146.599 22.809 144.935 22.2553 142.607 21.9232C135.399 20.5945 129.299 16.2763 125.862 9.30068C125.307 8.19345 124.309 6.86477 123.644 5.97898C118.432 -0.77516 107.01 -1.32878 100.911 5.86825C100.024 6.97549 99.3585 8.08272 98.6931 9.41141C95.2555 16.2763 88.7128 20.9267 81.1721 22.1446C79.8414 22.3661 78.5107 22.5875 77.4018 23.1411C71.1918 25.577 67.5324 32.2205 68.1977 38.6424C68.5304 41.8534 69.972 45.1751 72.6334 47.7218C75.8493 50.822 77.5127 54.3652 78.6216 57.3547C79.9523 61.0086 79.9523 65.4375 79.3979 68.5378C79.0652 72.0809 79.7305 75.7348 81.3939 78.6136Z" fill="url(#paint2_linear_469_4803)"/>
<path d="M81.3939 78.6136C85.1643 85.0356 93.4812 88.1358 101.022 84.482C101.244 84.3712 101.465 84.2605 101.687 84.1498C108.119 80.7174 116.214 80.3852 123.311 84.1498C123.533 84.2605 123.755 84.3712 123.977 84.482C131.628 88.0251 140.056 84.8141 143.494 78.3922C145.157 75.5134 145.822 72.3024 145.157 68.2056C144.603 65.2161 144.713 61.4515 145.822 57.6869C146.82 54.2544 148.706 50.7113 151.921 47.7218C154.583 45.1751 155.914 41.9641 156.357 38.8639C157.355 32.3312 153.363 25.0234 147.153 23.0304C146.599 22.809 144.935 22.2553 142.607 21.9232C135.399 20.5945 129.299 16.2763 125.862 9.30068C125.307 8.19345 124.309 6.86477 123.644 5.97898C118.432 -0.77516 107.01 -1.32878 100.911 5.86825C100.024 6.97549 99.3585 8.08272 98.6931 9.41141C95.2555 16.2763 88.7128 20.9267 81.1721 22.1446C79.8414 22.3661 78.5107 22.5875 77.4018 23.1411C71.1918 25.577 67.5324 32.2205 68.1977 38.6424C68.5304 41.8534 69.972 45.1751 72.6334 47.7218C75.8493 50.822 77.5127 54.3652 78.6216 57.3547C79.9523 61.0086 79.9523 65.4375 79.3979 68.5378C79.0652 72.0809 79.7305 75.7348 81.3939 78.6136Z" fill="url(#paint3_radial_469_4803)"/>
<path d="M144.936 65.9911C122.203 30.2274 79.6201 22.2553 79.6201 22.2553C80.9508 21.9232 82.3924 21.8124 83.834 21.3695C88.2697 20.1516 95.4777 16.9406 99.1372 8.85778C103.795 -1.43951 119.874 -2.98964 125.751 8.63634C129.078 15.2798 133.847 20.373 144.159 22.0339C155.471 23.8055 161.459 38.3103 151.7 48.0539C151.7 48.0539 144.16 54.9188 144.936 65.9911Z" fill="url(#paint4_linear_469_4803)"/>
<path d="M144.936 65.9911C122.203 30.2274 79.6201 22.2553 79.6201 22.2553C80.9508 21.9232 82.3924 21.8124 83.834 21.3695C88.2697 20.1516 95.4777 16.9406 99.1372 8.85778C103.795 -1.43951 119.874 -2.98964 125.751 8.63634C129.078 15.2798 133.847 20.373 144.159 22.0339C155.471 23.8055 161.459 38.3103 151.7 48.0539C151.7 48.0539 144.16 54.9188 144.936 65.9911Z" fill="url(#paint5_radial_469_4803)"/>
<path d="M144.936 65.9911C122.203 30.2274 79.6201 22.2553 79.6201 22.2553C80.9508 21.9232 82.3924 21.8124 83.834 21.3695C88.2697 20.1516 95.4777 16.9406 99.1372 8.85778C103.795 -1.43951 119.874 -2.98964 125.751 8.63634C129.078 15.2798 133.847 20.373 144.159 22.0339C155.471 23.8055 161.459 38.3103 151.7 48.0539C151.7 48.0539 144.16 54.9188 144.936 65.9911Z" fill="url(#paint6_radial_469_4803)"/>
<path d="M144.936 65.9911C122.203 30.2274 79.6201 22.2553 79.6201 22.2553C80.9508 21.9232 82.3924 21.8124 83.834 21.3695C88.2697 20.1516 95.4777 16.9406 99.1372 8.85778C103.795 -1.43951 119.874 -2.98964 125.751 8.63634C129.078 15.2798 133.847 20.373 144.159 22.0339C155.471 23.8055 161.459 38.3103 151.7 48.0539C151.7 48.0539 144.16 54.9188 144.936 65.9911Z" fill="url(#paint7_radial_469_4803)"/>
<path d="M112.334 23.0305C98.6942 23.0305 87.7158 34.5458 88.603 48.3862C89.3792 60.2336 99.0268 69.8666 110.892 70.5309C124.754 71.4167 136.176 60.4551 136.176 46.8361C136.176 33.7707 125.419 23.0305 112.334 23.0305ZM113.776 70.088C100.136 70.9738 88.8248 60.1229 88.8248 46.7254C88.8248 33.7707 99.3595 23.3627 112.334 23.3627C125.752 23.3627 136.619 34.6565 135.732 48.2755C134.956 59.9015 125.419 69.4237 113.776 70.088Z" fill="url(#paint8_linear_469_4803)"/>
<path d="M109.561 21.5911C97.9172 22.9197 88.4913 32.2205 87.1606 43.8465C85.3864 59.1263 97.4736 72.1917 112.444 72.1917C126.417 72.1917 137.838 60.7872 137.838 46.836C137.838 31.8883 124.864 19.9302 109.561 21.5911ZM112.333 71.7488C98.0281 71.7488 86.3844 59.68 87.3824 45.1752C88.1587 32.7741 98.3608 22.5876 110.781 21.8125C125.308 20.9267 137.395 32.442 137.395 46.7253C137.395 60.455 126.195 71.7488 112.333 71.7488Z" fill="url(#paint9_linear_469_4803)"/>
<mask id="mask0_469_4803" style="mask-type:alpha" maskUnits="userSpaceOnUse" x="84" y="18" width="57" height="57">
<path opacity="0.73" d="M84.6104 46.7252C84.6104 31.4454 97.0303 18.9336 112.444 18.9336C127.748 18.9336 140.278 31.3346 140.278 46.7252C140.278 62.0051 127.858 74.5168 112.444 74.5168C97.0303 74.5168 84.6104 62.0051 84.6104 46.7252Z" fill="url(#paint10_radial_469_4803)"/>
</mask>
<g mask="url(#mask0_469_4803)">
<path opacity="0.83" d="M87.9375 46.836C87.9375 32.8849 99.6921 21.7018 113.775 22.5876C125.863 23.3626 135.732 33.1063 136.508 45.2859C137.396 59.4585 126.195 71.1952 112.223 71.1952C98.805 71.1952 87.9375 60.2336 87.9375 46.836Z" fill="white"/>
</g>
<mask id="mask1_469_4803" style="mask-type:alpha" maskUnits="userSpaceOnUse" x="84" y="20" width="54" height="54">
<path opacity="0.73" d="M84.7197 46.7253C84.7197 31.999 96.6961 20.1516 111.334 20.1516C126.083 20.1516 137.948 32.1098 137.948 46.7253C137.948 61.4515 125.972 73.2989 111.334 73.2989C96.5852 73.2989 84.7197 61.4515 84.7197 46.7253Z" fill="url(#paint11_radial_469_4803)"/>
</mask>
<g mask="url(#mask1_469_4803)">
<path opacity="0.04" d="M87.9379 45.286C88.7142 33.66 98.14 24.2485 109.784 23.5842C123.313 22.8091 134.513 33.5493 134.513 46.8361C134.513 59.68 124.089 70.088 111.225 70.088C97.8073 70.1988 87.0508 58.905 87.9379 45.286Z" fill="white"/>
</g>
<path d="M158.576 112.14C158.576 117.565 155.36 118.672 152.699 118.672C150.038 118.672 146.822 117.565 146.822 112.14V96.5276H138.727V113.025C138.727 120.997 144.049 126.091 152.699 126.091C161.349 125.98 166.671 120.997 166.671 113.025V96.5276H158.576V112.14Z" fill="#ED1C2C"/>
<path d="M191.067 96.0847L190.291 95.974C189.293 95.7526 187.629 95.7526 187.407 95.7526C176.762 95.7526 171.55 100.514 171.55 110.368V125.205H179.534V115.572C179.534 115.129 179.534 114.686 179.534 114.243C179.534 107.379 179.756 103.392 186.409 103.282C187.075 103.282 188.849 103.282 189.847 103.614L191.067 104.057V96.0847Z" fill="#ED1C2C"/>
<path d="M85.8293 95.7526C75.1836 95.7526 69.9717 100.514 69.9717 110.368V125.205H77.9559V115.572C77.9559 115.129 77.9559 114.686 77.9559 114.243C77.9559 107.379 78.1777 103.392 84.8313 103.282C85.4966 103.282 87.2709 103.282 88.2689 103.614L89.4887 104.057V96.0847L88.7125 95.974C87.7145 95.7526 86.0511 95.7526 85.8293 95.7526Z" fill="#ED1C2C"/>
<path d="M102.574 96.1954H94.5898V125.205H102.574V96.1954Z" fill="#ED1C2C"/>
<path d="M32.1588 96.1954H23.9528L23.8419 97.0812C23.8419 97.1919 22.7329 106.382 16.0794 115.018C9.53675 106.382 8.42782 97.1919 8.31693 97.0812L8.20604 96.1954H0L0.110891 97.1919C0.110891 97.8563 1.55249 114.022 15.5249 125.537L16.1903 126.091L16.8556 125.537C30.8281 114.022 32.1588 97.8563 32.2697 97.1919L32.1588 96.1954Z" fill="#ED1C2C"/>
<path d="M124.533 107.379L119.765 106.604C117.658 106.271 116.549 105.275 116.66 104.5C116.771 103.503 118.545 102.507 121.096 102.618H121.206C123.424 102.728 125.199 103.171 126.529 103.946L127.084 104.278L133.072 99.4065L132.074 98.6314C129.634 96.8599 126.418 95.9741 121.761 95.6419H121.65C115.218 95.199 108.565 98.0778 108.121 104.389C107.899 107.821 109.341 112.25 117.658 113.579L122.426 114.354C124.533 114.686 125.864 115.572 125.753 116.569C125.642 118.23 122.205 118.672 120.098 118.562H119.987C117.325 118.34 115.218 117.676 113.666 116.569L113.111 116.126L106.901 121.219L107.789 121.994C111.004 124.651 114.775 125.427 119.432 125.759H119.654C120.208 125.759 120.652 125.759 121.206 125.759C124.201 125.759 126.973 125.205 129.08 124.209C132.296 122.658 134.181 120.112 134.403 116.901C134.624 112.029 130.965 108.375 124.533 107.379Z" fill="#ED1C2C"/>
<path d="M217.237 114.797L217.127 115.129C216.239 117.122 213.245 118.672 209.919 118.672C204.818 118.451 203.376 115.018 202.821 113.025H225V112.25C225 101.51 219.344 95.3095 209.586 95.1987C198.94 95.1987 194.172 102.839 194.172 110.479C194.172 119.669 200.493 125.869 209.919 125.869C218.014 125.869 221.784 121.219 223.115 119.004L217.237 114.797ZM209.808 101.621C213.356 101.621 215.907 103.724 216.461 107.046H203.154C203.598 104.057 206.592 101.621 209.808 101.621Z" fill="#ED1C2C"/>
<path d="M57.7727 114.797L57.6618 115.129C56.7746 117.122 53.7805 118.672 50.4537 118.672C45.3527 118.451 43.9111 115.018 43.3566 113.025H65.5351V112.25C65.5351 101.51 59.8796 95.3095 50.1211 95.1987C39.4754 95.1987 34.707 102.839 34.707 110.479C34.707 119.669 41.0279 125.869 50.4537 125.869C58.5489 125.869 62.3192 121.219 63.65 119.004L57.7727 114.797ZM50.4537 101.621C54.0023 101.621 56.5528 103.724 57.1073 107.046H43.8002C44.2438 104.057 47.2379 101.621 50.4537 101.621Z" fill="#ED1C2C"/>
<defs>
<linearGradient id="paint0_linear_469_4803" x1="112.47" y1="0.09334" x2="112.47" y2="87.1756" gradientUnits="userSpaceOnUse">
<stop offset="0.0879121" stop-color="white"/>
<stop offset="0.1239" stop-color="#ECEBEC" stop-opacity="0.9933"/>
<stop offset="0.4395" stop-color="#90949A" stop-opacity="0.9345"/>
<stop offset="0.7008" stop-color="#5D666D" stop-opacity="0.8858"/>
<stop offset="0.8948" stop-color="#424F56" stop-opacity="0.8496"/>
<stop offset="1" stop-color="#38474F" stop-opacity="0.83"/>
</linearGradient>
<linearGradient id="paint1_linear_469_4803" x1="112.49" y1="86.7029" x2="112.49" y2="-0.0507112" gradientUnits="userSpaceOnUse">
<stop stop-color="white"/>
<stop offset="0.1411" stop-color="#3B4C53"/>
<stop offset="0.263" stop-color="#868C90"/>
<stop offset="0.3313" stop-color="#BDBFBF"/>
<stop offset="0.4233" stop-color="#3B4C53" stop-opacity="0.92"/>
<stop offset="0.5811" stop-color="#858E97" stop-opacity="0.9702"/>
<stop offset="0.6748" stop-color="#C1C8D1"/>
<stop offset="0.724" stop-color="#C6CCD4"/>
<stop offset="0.7803" stop-color="#D3D7DD"/>
<stop offset="0.84" stop-color="#E9EAED"/>
<stop offset="0.8773" stop-color="white"/>
<stop offset="1" stop-color="#C1C8D1"/>
</linearGradient>
<linearGradient id="paint2_linear_469_4803" x1="102.927" y1="12.5329" x2="125.542" y2="74.76" gradientUnits="userSpaceOnUse">
<stop stop-color="#D5D8E2"/>
<stop offset="0.0274212" stop-color="#DFE1E8"/>
<stop offset="0.0843513" stop-color="#EFF0F3"/>
<stop offset="0.1493" stop-color="#FAFAFB"/>
<stop offset="0.2393" stop-color="white"/>
<stop offset="0.4375" stop-color="#F8F9FA"/>
<stop offset="0.6334" stop-color="#ECEDEF"/>
<stop offset="0.8278" stop-color="#D8DCE1"/>
<stop offset="1" stop-color="#C1C9D2"/>
</linearGradient>
<radialGradient id="paint3_radial_469_4803" cx="0" cy="0" r="1" gradientUnits="userSpaceOnUse" gradientTransform="translate(148.273 39.4379) scale(43.4886 43.4223)">
<stop stop-color="#C1C8D1"/>
<stop offset="1" stop-color="#C1C8D1" stop-opacity="0"/>
</radialGradient>
<linearGradient id="paint4_linear_469_4803" x1="106.143" y1="1.32781" x2="137.669" y2="71.4051" gradientUnits="userSpaceOnUse">
<stop stop-color="#384D56"/>
<stop offset="0.0549585" stop-color="#4B5C65"/>
<stop offset="0.1628" stop-color="#6C7A83"/>
<stop offset="0.2726" stop-color="#89949D"/>
<stop offset="0.3834" stop-color="#9FA9B2"/>
<stop offset="0.4961" stop-color="#AEB7BF"/>
<stop offset="0.6135" stop-color="#B4BDC4"/>
<stop offset="0.6316" stop-color="#B6BEC6"/>
<stop offset="0.8399" stop-color="#C6CCD4"/>
<stop offset="1" stop-color="#CBD1D9"/>
</linearGradient>
<radialGradient id="paint5_radial_469_4803" cx="0" cy="0" r="1" gradientUnits="userSpaceOnUse" gradientTransform="translate(127.7 46.0921) scale(21.3522 21.3197)">
<stop stop-color="white" stop-opacity="0.16"/>
<stop offset="0.0222641" stop-color="white" stop-opacity="0.1564"/>
<stop offset="1" stop-color="white" stop-opacity="0"/>
</radialGradient>
<radialGradient id="paint6_radial_469_4803" cx="0" cy="0" r="1" gradientUnits="userSpaceOnUse" gradientTransform="translate(86.0105 22.1999) scale(21.3526 21.32)">
<stop stop-color="#2C3B47" stop-opacity="0.2"/>
<stop offset="0.1471" stop-color="#2F3E49" stop-opacity="0.1706"/>
<stop offset="0.5646" stop-color="#36454D" stop-opacity="0.0870816"/>
<stop offset="1" stop-color="#38474F" stop-opacity="0"/>
</radialGradient>
<radialGradient id="paint7_radial_469_4803" cx="0" cy="0" r="1" gradientUnits="userSpaceOnUse" gradientTransform="translate(144.854 7.6654) scale(28.3834 28.3401)">
<stop stop-color="#2C3B47" stop-opacity="0.3"/>
<stop offset="0.5297" stop-color="#34434C" stop-opacity="0.1411"/>
<stop offset="1" stop-color="#38474F" stop-opacity="0"/>
</radialGradient>
<linearGradient id="paint8_linear_469_4803" x1="94.3692" y1="31.2447" x2="130.241" y2="62.4747" gradientUnits="userSpaceOnUse">
<stop stop-color="#C1C8D1"/>
<stop offset="0.6319" stop-color="white"/>
<stop offset="0.6746" stop-color="#F3F2F3"/>
<stop offset="0.7292" stop-color="#DCDDE0"/>
<stop offset="0.7902" stop-color="#BDBFC5"/>
<stop offset="0.8558" stop-color="#979BA5"/>
<stop offset="0.9251" stop-color="#6D7582"/>
<stop offset="0.9966" stop-color="#415160"/>
<stop offset="1" stop-color="#3E505F"/>
</linearGradient>
<linearGradient id="paint9_linear_469_4803" x1="87.6249" y1="41.0795" x2="137.188" y2="52.5394" gradientUnits="userSpaceOnUse">
<stop stop-color="#596C77"/>
<stop offset="0.8132" stop-color="white"/>
</linearGradient>
<radialGradient id="paint10_radial_469_4803" cx="0" cy="0" r="1" gradientUnits="userSpaceOnUse" gradientTransform="translate(112.418 46.7042) scale(27.8099 27.7676)">
<stop stop-color="white"/>
<stop offset="0.2675" stop-color="#A3A3A3"/>
<stop offset="0.5366" stop-color="#4C4C4C"/>
<stop offset="0.7268" stop-color="#151515"/>
<stop offset="0.8187"/>
</radialGradient>
<radialGradient id="paint11_radial_469_4803" cx="0" cy="0" r="1" gradientUnits="userSpaceOnUse" gradientTransform="translate(111.355 46.7314) scale(26.6586 26.6181)">
<stop stop-color="white"/>
<stop offset="0.2675" stop-color="#A3A3A3"/>
<stop offset="0.5366" stop-color="#4C4C4C"/>
<stop offset="0.7268" stop-color="#151515"/>
<stop offset="0.8187"/>
</radialGradient>
</defs>
</svg>
