<svg width="284" height="63" viewBox="0 0 284 63" fill="none" xmlns="http://www.w3.org/2000/svg">
<path d="M23.9645 61.0655C16.0039 65.3515 6.55069 58.5328 8.14281 49.5712C8.83936 45.3826 8.1428 39.2458 3.36646 34.6676C-3.20102 28.4334 0.381236 17.5235 9.4364 16.2572C14.9093 15.4779 19.6856 12.0686 22.0738 7.10075C25.9546 -0.886811 37.597 -1.17904 41.5772 7.10075C43.9654 12.0686 48.7418 15.4779 54.2147 16.2572C63.1703 17.5235 66.7526 28.5308 60.1851 34.765C55.0107 39.6354 54.7122 45.48 55.4088 49.6686C57.0009 58.6302 47.5477 65.4489 39.5871 61.1629C34.4127 58.338 28.6413 58.5328 23.9645 61.0655Z" fill="#E9ECF3"/>
<path d="M19.1062 61.66C15.9219 61.66 12.6382 60.1015 10.5486 57.6663C8.4589 55.1336 7.56333 51.9191 8.16037 48.7046C8.5584 46.659 9.45397 39.5481 3.58304 33.9958C0.498317 31.0735 -0.79528 26.7875 0.498314 22.7938C1.79191 18.7026 5.27467 15.8777 9.55348 15.2933C14.9269 14.514 19.6037 11.2021 21.9919 6.23419C23.8825 2.33782 27.6638 0 32.0421 0C36.3209 0 40.1022 2.33782 41.9928 6.23419C44.381 11.1047 49.0579 14.514 54.4313 15.2933C58.7101 15.8777 62.0933 18.8 63.4864 22.7938C64.78 26.8849 63.5859 31.171 60.5012 34.0932C54.6303 39.6456 55.5258 46.7564 55.8244 48.7046C56.4214 52.0165 55.6253 55.231 53.4362 57.6663C51.3465 60.1989 48.1623 61.66 44.8786 61.66C43.0874 61.66 41.2963 61.173 39.6047 60.2963C37.2165 59.03 34.6293 58.3481 31.9426 58.3481C29.2559 58.3481 26.5692 59.03 24.2805 60.2963C22.6884 61.2704 20.9968 61.66 19.1062 61.66ZM32.1416 0.292231C27.9623 0.292231 24.2806 2.63005 22.4894 6.3316C20.1012 11.3969 15.2254 14.8062 9.75249 15.5855C5.67269 16.1699 2.38895 18.8974 1.09536 22.7938C-0.198234 26.6901 0.896341 30.8787 3.88156 33.7036C9.85199 39.4507 9.15545 46.659 8.75742 48.7046C8.16037 51.8217 8.95643 54.9388 11.0461 57.374C13.0362 59.8093 16.121 61.2704 19.2057 61.2704C20.9968 61.2704 22.5889 60.8808 24.181 60.0041C26.5692 58.7378 29.3554 58.0559 32.1416 58.0559C34.8283 58.0559 37.6145 58.7378 40.0027 60.0041C41.5948 60.8808 43.2864 61.2704 44.9781 61.2704C48.0628 61.2704 51.1475 59.8093 53.1377 57.374C55.1278 54.9388 55.9239 51.9191 55.4263 48.7046C55.0283 46.659 54.3317 39.4507 60.3022 33.7036C63.2874 30.8787 64.2825 26.6901 63.0884 22.7938C61.7948 18.8974 58.511 16.1699 54.4313 15.5855C48.8588 14.8062 44.0825 11.3969 41.6943 6.3316C39.8037 2.53264 36.2214 0.292231 32.1416 0.292231Z" fill="url(#paint0_linear_469_4818)"/>
<path d="M19.1253 61.5626C15.9411 61.5626 12.6573 60.1015 10.5677 57.5689C8.47805 55.0362 7.58248 51.9191 8.08002 48.6072C8.47805 46.0746 9.37361 39.9378 3.40318 34.0932C0.41796 31.0735 -0.776129 26.7875 0.517466 22.6963C1.81106 18.6052 5.29381 15.7803 9.57262 15.1958C14.946 14.4166 19.6229 11.1047 22.011 6.23419C23.9017 2.43523 27.6829 0 32.0613 0C36.3401 0 40.1214 2.33782 42.012 6.23419C44.4002 11.1047 49.077 14.514 54.4504 15.1958C58.7292 15.7803 62.1125 18.6052 63.5056 22.6963C64.7992 26.7875 63.7046 31.0735 60.6199 34.0932C54.7489 39.6455 55.545 46.659 55.8435 48.6072C56.4405 51.9191 55.6445 55.0362 53.4553 57.5689C51.3657 60.1015 48.1814 61.5626 44.8977 61.5626C43.1066 61.5626 41.3154 61.0756 39.6238 60.1989C37.2356 58.9326 34.6485 58.2507 31.9618 58.2507C29.2751 58.2507 26.5884 58.9326 24.2997 60.1989C22.7076 61.0756 20.9165 61.5626 19.1253 61.5626ZM32.0613 0.389638C27.882 0.389638 24.2002 2.72746 22.4091 6.3316C19.9214 11.3969 15.145 14.8062 9.67213 15.5855C5.59233 16.1699 2.3086 18.8974 1.015 22.7938C-0.278592 26.6901 0.815983 30.8787 3.8012 33.7036C9.77164 39.4507 9.07509 46.5616 8.67706 48.6072C8.08001 51.7243 8.87608 54.8414 10.9657 57.1792C12.9559 59.6145 16.0406 61.0756 19.1253 61.0756C20.9165 61.0756 22.5086 60.686 24.1007 59.8093C26.4889 58.5429 29.2751 57.8611 32.0613 57.8611C34.748 57.8611 37.5342 58.5429 39.9223 59.8093C41.5145 60.686 43.2061 61.0756 44.8977 61.0756C47.9824 61.0756 51.0671 59.6145 53.0573 57.1792C55.0474 54.744 55.8435 51.7243 55.346 48.6072C54.9479 46.5616 54.2514 39.3533 60.2218 33.7036C63.207 30.8787 64.2021 26.6901 63.008 22.7938C61.7144 18.8974 58.4307 16.1699 54.3509 15.5855C48.7785 14.8062 44.0021 11.3969 41.614 6.3316C39.7233 2.63005 36.1411 0.389638 32.0613 0.389638Z" fill="url(#paint1_linear_469_4818)"/>
<path d="M10.315 55.6351C13.0017 60.2133 18.8726 62.3563 24.3455 59.8237C24.5445 59.7262 24.644 59.6288 24.8431 59.6288C29.4204 57.1936 35.1918 56.9988 40.2667 59.6288C40.4657 59.7263 40.5652 59.8237 40.7642 59.8237C46.2371 62.3563 52.2076 60.0185 54.6952 55.4402C55.8893 53.3946 56.2874 51.1542 55.8893 48.232C55.4913 46.089 55.5908 43.4589 56.3869 40.7314C57.0834 38.2962 58.4765 35.7636 60.7652 33.6206C62.6558 31.7698 63.6509 29.5294 63.9494 27.289C64.646 22.7107 61.7602 17.4506 57.3819 15.9895C56.9839 15.7947 55.7898 15.5025 54.1977 15.2102C49.0233 14.3335 44.645 11.2165 42.2568 6.24858C41.8588 5.46931 41.1623 4.49521 40.6647 3.81335C36.9829 -1.05711 28.7238 -1.44675 24.445 3.71594C23.848 4.49522 23.3505 5.27449 22.8529 6.15117C20.4647 11.0216 15.7879 14.3335 10.315 15.2102C9.31993 15.405 8.42436 15.5999 7.6283 15.8921C3.15048 17.6455 0.563291 22.3211 1.06083 26.8993C1.35935 29.1397 2.35442 31.575 4.24506 33.3283C6.53372 35.4714 7.72781 38.004 8.52387 40.147C9.51894 42.777 9.51894 45.8941 9.12091 48.0371C8.62338 50.9594 9.12092 53.5895 10.315 55.6351Z" fill="url(#paint2_linear_469_4818)"/>
<path d="M10.315 55.6351C13.0017 60.2133 18.8726 62.3563 24.3455 59.8237C24.5445 59.7262 24.644 59.6288 24.8431 59.6288C29.4204 57.1936 35.1918 56.9988 40.2667 59.6288C40.4657 59.7263 40.5652 59.8237 40.7642 59.8237C46.2371 62.3563 52.2076 60.0185 54.6952 55.4402C55.8893 53.3946 56.2874 51.1542 55.8893 48.232C55.4913 46.089 55.5908 43.4589 56.3869 40.7314C57.0834 38.2962 58.4765 35.7636 60.7652 33.6206C62.6558 31.7698 63.6509 29.5294 63.9494 27.289C64.646 22.7107 61.7602 17.4506 57.3819 15.9895C56.9839 15.7947 55.7898 15.5025 54.1977 15.2102C49.0233 14.3335 44.645 11.2165 42.2568 6.24858C41.8588 5.46931 41.1623 4.49521 40.6647 3.81335C36.9829 -1.05711 28.7238 -1.44675 24.445 3.71594C23.848 4.49522 23.3505 5.27449 22.8529 6.15117C20.4647 11.0216 15.7879 14.3335 10.315 15.2102C9.31993 15.405 8.42436 15.5999 7.6283 15.8921C3.15048 17.6455 0.563291 22.3211 1.06083 26.8993C1.35935 29.1397 2.35442 31.575 4.24506 33.3283C6.53372 35.4714 7.72781 38.004 8.52387 40.147C9.51894 42.777 9.51894 45.8941 9.12091 48.0371C8.62338 50.9594 9.12092 53.5895 10.315 55.6351Z" fill="url(#paint3_radial_469_4818)"/>
<path d="M55.5694 46.4374C39.3497 21.0135 9 15.3638 9 15.3638C9.99507 15.169 10.9901 14.9742 11.9852 14.7794C15.1694 13.9027 20.2443 11.5649 22.931 5.91512C26.3143 -1.39057 37.7576 -2.46208 41.9369 5.7203C44.3251 10.4933 47.7083 14.0975 55.0719 15.2664C63.1319 16.5327 67.4108 26.8581 60.4452 33.6767C60.3457 33.6767 55.0719 38.6446 55.5694 46.4374Z" fill="url(#paint4_linear_469_4818)"/>
<path d="M55.5694 46.4374C39.3497 21.0135 9 15.3638 9 15.3638C9.99507 15.169 10.9901 14.9742 11.9852 14.7794C15.1694 13.9027 20.2443 11.5649 22.931 5.91512C26.3143 -1.39057 37.7576 -2.46208 41.9369 5.7203C44.3251 10.4933 47.7083 14.0975 55.0719 15.2664C63.1319 16.5327 67.4108 26.8581 60.4452 33.6767C60.3457 33.6767 55.0719 38.6446 55.5694 46.4374Z" fill="url(#paint5_radial_469_4818)"/>
<path d="M55.5694 46.4374C39.3497 21.0135 9 15.3638 9 15.3638C9.99507 15.169 10.9901 14.9742 11.9852 14.7794C15.1694 13.9027 20.2443 11.5649 22.931 5.91512C26.3143 -1.39057 37.7576 -2.46208 41.9369 5.7203C44.3251 10.4933 47.7083 14.0975 55.0719 15.2664C63.1319 16.5327 67.4108 26.8581 60.4452 33.6767C60.3457 33.6767 55.0719 38.6446 55.5694 46.4374Z" fill="url(#paint6_radial_469_4818)"/>
<path d="M55.5694 46.4374C39.3497 21.0135 9 15.3638 9 15.3638C9.99507 15.169 10.9901 14.9742 11.9852 14.7794C15.1694 13.9027 20.2443 11.5649 22.931 5.91512C26.3143 -1.39057 37.7576 -2.46208 41.9369 5.7203C44.3251 10.4933 47.7083 14.0975 55.0719 15.2664C63.1319 16.5327 67.4108 26.8581 60.4452 33.6767C60.3457 33.6767 55.0719 38.6446 55.5694 46.4374Z" fill="url(#paint7_radial_469_4818)"/>
<path d="M31.9592 16C22.2075 16 14.3464 24.1824 15.043 34.0207C15.5405 42.3979 22.506 49.2165 30.9641 49.801C40.7159 50.3855 48.975 42.5927 48.975 32.8518C48.975 23.5979 41.3129 16 31.9592 16ZM33.0538 49.4114C23.3021 49.9958 15.242 42.3005 15.242 32.8518C15.242 23.6953 22.705 16.1948 31.9592 16.1948C41.5119 16.1948 49.2735 24.2798 48.6764 33.9233C48.0794 42.2031 41.3129 48.9243 33.0538 49.4114Z" fill="url(#paint8_linear_469_4818)"/>
<path d="M30.1322 15.108C21.7735 15.9847 15.1066 22.6085 14.1115 30.8883C12.9174 41.7007 21.475 50.9546 32.1223 50.9546C42.1725 50.9546 50.2326 42.8696 50.2326 32.9339C50.3321 22.4137 41.078 13.9391 30.1322 15.108ZM32.2218 50.7598C21.9726 50.7598 13.7135 42.1878 14.41 31.8624C15.007 22.9982 22.1716 15.8873 31.1272 15.3028C41.476 14.621 50.1331 22.9008 50.1331 33.0313C50.0336 42.7722 42.073 50.7598 32.2218 50.7598Z" fill="url(#paint9_linear_469_4818)"/>
<mask id="mask0_469_4818" style="mask-type:alpha" maskUnits="userSpaceOnUse" x="12" y="13" width="40" height="40">
<path opacity="0.73" d="M12 32.6767C12 21.7668 20.8561 13 31.9015 13C42.8472 13 51.8029 21.8642 51.8029 32.6767C51.8029 43.5865 42.9468 52.3533 31.9015 52.3533C20.9557 52.4507 12 43.5865 12 32.6767Z" fill="url(#paint10_radial_469_4818)"/>
</mask>
<g mask="url(#mask0_469_4818)">
<path opacity="0.83" d="M15 33.2716C15 23.4333 23.3586 15.4457 33.4088 16.0302C42.066 16.5172 49.131 23.5307 49.6285 32.1027C50.2256 42.1358 42.265 50.513 32.3143 50.513C22.7616 50.4156 15 42.7203 15 33.2716Z" fill="white"/>
</g>
<mask id="mask1_469_4818" style="mask-type:alpha" maskUnits="userSpaceOnUse" x="12" y="14" width="39" height="38">
<path opacity="0.73" d="M12 32.8974C12 22.4746 20.5576 14 31.0059 14C41.5537 14 50.0118 22.4746 50.0118 32.8974C50.0118 43.3202 41.4541 51.7948 31.0059 51.7948C20.5576 51.7948 12 43.3202 12 32.8974Z" fill="url(#paint11_radial_469_4818)"/>
</mask>
<g mask="url(#mask1_469_4818)">
<path opacity="0.04" d="M14.0327 32.4223C14.5302 24.2399 21.2967 17.5187 29.6553 17.0316C39.3075 16.4471 47.3676 24.0451 47.3676 33.4938C47.3676 42.6502 39.9046 50.0533 30.7499 50.0533C21.0977 50.0533 13.4356 42.0658 14.0327 32.4223Z" fill="white"/>
</g>
<path d="M221.508 35.2217C221.508 40.1896 218.523 41.2611 216.035 41.2611C213.548 41.2611 210.463 40.1896 210.463 35.2217V21H203V36.0984C203 43.4041 207.975 48.0798 216.035 48.0798C224.096 47.9824 229.071 43.4041 229.071 36.0984V21H221.508V35.2217Z" fill="#ED1C2C"/>
<path d="M251.21 20.3896L250.513 20.1948C249.618 20 248.026 20 247.827 20C237.876 20 233 24.3834 233 33.4425V47.0798H240.463V38.3129C240.463 37.9233 240.463 37.5337 240.463 37.0466C240.463 30.715 240.662 27.1109 246.832 26.9161C247.429 26.9161 249.12 26.9161 250.016 27.2083L251.21 27.5979V20.3896Z" fill="#ED1C2C"/>
<path d="M152.827 21C142.876 21 138 25.3834 138 34.4425V48.0798H145.463V39.3129C145.463 38.9233 145.463 38.5337 145.463 38.0466C145.463 31.715 145.662 28.1109 151.832 27.916C152.429 27.916 154.12 27.916 155.016 28.2083L156.21 28.5979V21.2922L155.513 21.0974C154.618 21 153.026 21 152.827 21Z" fill="#ED1C2C"/>
<path d="M168.463 21H161V47.5927H168.463V21Z" fill="#ED1C2C"/>
<path d="M103.051 21H95.3891L95.1901 21.7793C95.1901 21.8767 94.0955 30.2539 87.9261 38.2414C81.7566 30.3513 80.7616 21.8767 80.7616 21.7793L80.6621 21H73L73.0995 21.9741C73.0995 22.5585 74.3931 37.3647 87.4286 47.9824L88.0256 48.4694L88.6226 47.9824C101.658 37.4622 102.952 22.656 102.952 21.9741L103.051 21Z" fill="#ED1C2C"/>
<path d="M189.817 31.6553L185.339 30.9734C183.349 30.6812 182.354 29.8045 182.354 29.0252C182.453 28.0511 184.145 27.1745 186.533 27.3693H186.632C188.722 27.4667 190.414 27.9537 191.608 28.6356L192.105 28.9278L197.678 24.447L196.683 23.7651C194.394 22.2066 191.409 21.3299 187.031 21.0377H186.931C180.961 20.648 174.692 23.2781 174.294 29.0252C174.095 32.2397 175.388 36.2335 183.15 37.4998L187.628 38.1817C189.618 38.4739 190.812 39.2532 190.712 40.2273C190.613 41.7858 187.429 42.1755 185.438 42.0781H185.339C182.851 41.8832 180.961 41.2988 179.368 40.2273L178.771 39.8377L173 44.5133L173.796 45.1952C176.881 47.6304 180.364 48.4097 184.642 48.7019H184.841C185.339 48.7019 185.836 48.7019 186.334 48.7019C189.12 48.7019 191.707 48.2149 193.698 47.2408C196.782 45.877 198.474 43.5392 198.673 40.5195C199.27 35.9413 195.887 32.6294 189.817 31.6553Z" fill="#ED1C2C"/>
<path d="M276.394 38.0207L276.295 38.3129C275.499 40.1637 272.613 41.5274 269.528 41.5274C264.752 41.3326 263.359 38.2155 262.961 36.3648H283.758V35.6829C283.758 25.8446 278.484 20.0974 269.329 20C259.378 20 255 27.0135 255 34.0269C255 42.5015 260.97 48.1513 269.727 48.1513C277.29 48.1513 280.872 43.9627 282.066 41.8197L276.394 38.0207ZM269.429 25.942C272.712 25.942 275.1 27.7927 275.598 30.9098H263.16C263.657 28.1824 266.443 25.942 269.429 25.942Z" fill="#ED1C2C"/>
<path d="M127.394 38.0207L127.295 38.3129C126.498 40.1637 123.613 41.5274 120.528 41.5274C115.752 41.3326 114.359 38.2155 113.961 36.3648H134.758V35.6829C134.758 25.8446 129.484 20.0974 120.329 20C110.378 20 106 27.0135 106 34.0269C106 42.5015 111.97 48.1513 120.727 48.1513C128.29 48.1513 131.872 43.9627 133.066 41.8197L127.394 38.0207ZM120.528 25.942C123.812 25.942 126.2 27.7927 126.698 30.9098H114.259C114.657 28.1824 117.543 25.942 120.528 25.942Z" fill="#ED1C2C"/>
<defs>
<linearGradient id="paint0_linear_469_4818" x1="32.074" y1="-0.130918" x2="32.074" y2="61.6958" gradientUnits="userSpaceOnUse">
<stop offset="0.0879121" stop-color="white"/>
<stop offset="0.1239" stop-color="#ECEBEC" stop-opacity="0.9933"/>
<stop offset="0.4395" stop-color="#90949A" stop-opacity="0.9345"/>
<stop offset="0.7008" stop-color="#5D666D" stop-opacity="0.8858"/>
<stop offset="0.8948" stop-color="#424F56" stop-opacity="0.8496"/>
<stop offset="1" stop-color="#38474F" stop-opacity="0.83"/>
</linearGradient>
<linearGradient id="paint1_linear_469_4818" x1="32.0089" y1="61.555" x2="32.0089" y2="-0.0383793" gradientUnits="userSpaceOnUse">
<stop stop-color="white"/>
<stop offset="0.1411" stop-color="#3B4C53"/>
<stop offset="0.263" stop-color="#868C90"/>
<stop offset="0.3313" stop-color="#BDBFBF"/>
<stop offset="0.4233" stop-color="#3B4C53" stop-opacity="0.92"/>
<stop offset="0.5811" stop-color="#858E97" stop-opacity="0.9702"/>
<stop offset="0.6748" stop-color="#C1C8D1"/>
<stop offset="0.724" stop-color="#C6CCD4"/>
<stop offset="0.7803" stop-color="#D3D7DD"/>
<stop offset="0.84" stop-color="#E9EAED"/>
<stop offset="0.8773" stop-color="white"/>
<stop offset="1" stop-color="#C1C8D1"/>
</linearGradient>
<linearGradient id="paint2_linear_469_4818" x1="25.4805" y1="8.7408" x2="41.2688" y2="53.053" gradientUnits="userSpaceOnUse">
<stop stop-color="#D5D8E2"/>
<stop offset="0.0274212" stop-color="#DFE1E8"/>
<stop offset="0.0843513" stop-color="#EFF0F3"/>
<stop offset="0.1493" stop-color="#FAFAFB"/>
<stop offset="0.2393" stop-color="white"/>
<stop offset="0.4375" stop-color="#F8F9FA"/>
<stop offset="0.6334" stop-color="#ECEDEF"/>
<stop offset="0.8278" stop-color="#D8DCE1"/>
<stop offset="1" stop-color="#C1C9D2"/>
</linearGradient>
<radialGradient id="paint3_radial_469_4818" cx="0" cy="0" r="1" gradientUnits="userSpaceOnUse" gradientTransform="translate(58.0037 27.8205) scale(31.0489 30.8298)">
<stop stop-color="#C1C8D1"/>
<stop offset="1" stop-color="#C1C8D1" stop-opacity="0"/>
</radialGradient>
<linearGradient id="paint4_linear_469_4818" x1="27.8039" y1="0.56696" x2="49.8261" y2="50.4966" gradientUnits="userSpaceOnUse">
<stop stop-color="#384D56"/>
<stop offset="0.0549585" stop-color="#4B5C65"/>
<stop offset="0.1628" stop-color="#6C7A83"/>
<stop offset="0.2726" stop-color="#89949D"/>
<stop offset="0.3834" stop-color="#9FA9B2"/>
<stop offset="0.4961" stop-color="#AEB7BF"/>
<stop offset="0.6135" stop-color="#B4BDC4"/>
<stop offset="0.6316" stop-color="#B6BEC6"/>
<stop offset="0.8399" stop-color="#C6CCD4"/>
<stop offset="1" stop-color="#CBD1D9"/>
</linearGradient>
<radialGradient id="paint5_radial_469_4818" cx="0" cy="0" r="1" gradientUnits="userSpaceOnUse" gradientTransform="translate(43.2936 32.3089) scale(15.2446 15.137)">
<stop stop-color="white" stop-opacity="0.16"/>
<stop offset="0.0222641" stop-color="white" stop-opacity="0.1564"/>
<stop offset="1" stop-color="white" stop-opacity="0"/>
</radialGradient>
<radialGradient id="paint6_radial_469_4818" cx="0" cy="0" r="1" gradientUnits="userSpaceOnUse" gradientTransform="translate(13.5293 15.3455) scale(15.2448 15.1372)">
<stop stop-color="#2C3B47" stop-opacity="0.2"/>
<stop offset="0.1471" stop-color="#2F3E49" stop-opacity="0.1706"/>
<stop offset="0.5646" stop-color="#36454D" stop-opacity="0.0870816"/>
<stop offset="1" stop-color="#38474F" stop-opacity="0"/>
</radialGradient>
<radialGradient id="paint7_radial_469_4818" cx="0" cy="0" r="1" gradientUnits="userSpaceOnUse" gradientTransform="translate(55.5411 5.02604) scale(20.2644 20.1214)">
<stop stop-color="#2C3B47" stop-opacity="0.3"/>
<stop offset="0.5297" stop-color="#34434C" stop-opacity="0.1411"/>
<stop offset="1" stop-color="#38474F" stop-opacity="0"/>
</radialGradient>
<linearGradient id="paint8_linear_469_4818" x1="19.0891" y1="21.9049" x2="44.4166" y2="44.396" gradientUnits="userSpaceOnUse">
<stop stop-color="#C1C8D1"/>
<stop offset="0.6319" stop-color="white"/>
<stop offset="0.6746" stop-color="#F3F2F3"/>
<stop offset="0.7292" stop-color="#DCDDE0"/>
<stop offset="0.7902" stop-color="#BDBFC5"/>
<stop offset="0.8558" stop-color="#979BA5"/>
<stop offset="0.9251" stop-color="#6D7582"/>
<stop offset="0.9966" stop-color="#415160"/>
<stop offset="1" stop-color="#3E505F"/>
</linearGradient>
<linearGradient id="paint9_linear_469_4818" x1="14.5042" y1="29.0325" x2="49.8422" y2="37.3666" gradientUnits="userSpaceOnUse">
<stop stop-color="#596C77"/>
<stop offset="0.8132" stop-color="white"/>
</linearGradient>
<radialGradient id="paint10_radial_469_4818" cx="0" cy="0" r="1" gradientUnits="userSpaceOnUse" gradientTransform="translate(31.9005 32.7175) scale(19.855 19.7149)">
<stop stop-color="white"/>
<stop offset="0.2675" stop-color="#A3A3A3"/>
<stop offset="0.5366" stop-color="#4C4C4C"/>
<stop offset="0.7268" stop-color="#151515"/>
<stop offset="0.8187"/>
</radialGradient>
<radialGradient id="paint11_radial_469_4818" cx="0" cy="0" r="1" gradientUnits="userSpaceOnUse" gradientTransform="translate(31.0426 32.86) scale(19.033 18.8987)">
<stop stop-color="white"/>
<stop offset="0.2675" stop-color="#A3A3A3"/>
<stop offset="0.5366" stop-color="#4C4C4C"/>
<stop offset="0.7268" stop-color="#151515"/>
<stop offset="0.8187"/>
</radialGradient>
</defs>
</svg>
