<svg width="283" height="62" viewBox="0 0 283 62" fill="none" xmlns="http://www.w3.org/2000/svg">
<path d="M24.2809 60.5885C16.3203 64.8745 6.8671 58.0559 8.45921 49.0942C9.15576 44.9056 8.45921 38.7689 3.68286 34.1906C-2.88462 27.9564 0.697642 17.0466 9.7528 15.7803C15.2257 15.001 20.0021 11.5917 22.3902 6.62382C26.271 -1.36374 37.9134 -1.65597 41.8937 6.62382C44.2818 11.5917 49.0582 15.001 54.5311 15.7803C63.4867 17.0466 67.069 28.0539 60.5015 34.288C55.3271 39.1585 55.0286 45.003 55.7252 49.1916C57.3173 58.1533 47.8641 64.9719 39.9035 60.6859C34.7291 57.8611 28.9577 58.0559 24.2809 60.5885Z" fill="#E9ECF3"/>
<path d="M19.1062 61.8549C15.9219 61.8549 12.6382 60.2963 10.5485 57.8611C8.4589 55.3285 7.56333 52.114 8.16037 48.8994C8.5584 46.8539 9.45397 39.743 3.58304 34.1906C0.498317 31.2684 -0.79528 26.9824 0.498314 22.9886C1.79191 18.8974 5.27466 16.0725 9.55348 15.4881C14.9269 14.7088 19.6037 11.3969 21.9919 6.42902C23.8825 2.53265 27.6638 0.194824 32.0421 0.194824C36.3209 0.194824 40.1022 2.53265 41.9928 6.42902C44.381 11.2995 49.0579 14.7088 54.4313 15.4881C58.7101 16.0725 62.0933 18.9948 63.4864 22.9886C64.78 27.0798 63.5859 31.3658 60.5012 34.2881C54.6303 39.8404 55.5258 46.9513 55.8244 48.8994C56.4214 52.2114 55.6253 55.4259 53.4362 57.8611C51.3465 60.3937 48.1623 61.8549 44.8786 61.8549C43.0874 61.8549 41.2963 61.3678 39.6047 60.4911C37.2165 59.2248 34.6293 58.543 31.9426 58.543C29.2559 58.543 26.5692 59.2248 24.2805 60.4911C22.6884 61.4652 20.9968 61.8549 19.1062 61.8549ZM32.1416 0.487055C27.9623 0.487055 24.2806 2.82487 22.4894 6.52642C20.1012 11.5917 15.2254 15.001 9.75249 15.7803C5.67269 16.3648 2.38895 19.0922 1.09536 22.9886C-0.198234 26.885 0.896341 31.0735 3.88156 33.8984C9.85199 39.6456 9.15545 46.8539 8.75742 48.8994C8.16037 52.0165 8.95643 55.1336 11.0461 57.5689C13.0362 60.0041 16.121 61.4652 19.2057 61.4652C20.9968 61.4652 22.5889 61.0756 24.181 60.1989C26.5692 58.9326 29.3554 58.2507 32.1416 58.2507C34.8283 58.2507 37.6145 58.9326 40.0027 60.1989C41.5948 61.0756 43.2864 61.4652 44.9781 61.4652C48.0628 61.4652 51.1475 60.0041 53.1377 57.5689C55.1278 55.1336 55.9239 52.114 55.4263 48.8994C55.0283 46.8539 54.3317 39.6456 60.3022 33.8984C63.2874 31.0735 64.2825 26.885 63.0884 22.9886C61.7948 19.0922 58.511 16.3648 54.4313 15.7803C48.8588 15.001 44.0825 11.5917 41.6943 6.52642C39.8037 2.72746 36.2214 0.487055 32.1416 0.487055Z" fill="url(#paint0_linear_470_4708)"/>
<path d="M19.2054 61.5626C16.0212 61.5626 12.7374 60.1015 10.6478 57.5689C8.55812 55.0362 7.66256 51.9191 8.16009 48.6072C8.55812 46.0746 9.45369 39.9378 3.48326 34.0932C0.498038 31.0735 -0.69605 26.7875 0.597544 22.6963C1.89114 18.6052 5.37389 15.7803 9.6527 15.1958C15.0261 14.4166 19.7029 11.1047 22.0911 6.23419C23.9817 2.43523 27.763 0 32.1413 0C36.4202 0 40.2014 2.33782 42.0921 6.23419C44.4802 11.1047 49.1571 14.514 54.5305 15.1958C58.8093 15.7803 62.1925 18.6052 63.5856 22.6963C64.8792 26.7875 63.7847 31.0735 60.6999 34.0932C54.829 39.6455 55.6251 46.659 55.9236 48.6072C56.5206 51.9191 55.7246 55.0362 53.5354 57.5689C51.4458 60.1015 48.2615 61.5626 44.9778 61.5626C43.1866 61.5626 41.3955 61.0756 39.7039 60.1989C37.3157 58.9326 34.7285 58.2507 32.0418 58.2507C29.3551 58.2507 26.6684 58.9326 24.3798 60.1989C22.7877 61.0756 20.9965 61.5626 19.2054 61.5626ZM32.1413 0.389638C27.962 0.389638 24.2803 2.72746 22.4891 6.3316C20.0015 11.3969 15.2251 14.8062 9.75221 15.5855C5.67241 16.1699 2.38867 18.8974 1.09508 22.7938C-0.198514 26.6901 0.896061 30.8787 3.88128 33.7036C9.85171 39.4507 9.15517 46.5616 8.75714 48.6072C8.16009 51.7243 8.95615 54.8414 11.0458 57.1792C13.036 59.6145 16.1207 61.0756 19.2054 61.0756C20.9965 61.0756 22.5886 60.686 24.1808 59.8093C26.5689 58.5429 29.3551 57.8611 32.1413 57.8611C34.828 57.8611 37.6142 58.5429 40.0024 59.8093C41.5945 60.686 43.2862 61.0756 44.9778 61.0756C48.0625 61.0756 51.1472 59.6145 53.1374 57.1792C55.1275 54.744 55.9236 51.7243 55.426 48.6072C55.028 46.5616 54.3315 39.3533 60.3019 33.7036C63.2871 30.8787 64.2822 26.6901 63.0881 22.7938C61.7945 18.8974 58.5108 16.1699 54.431 15.5855C48.8586 14.8062 44.0822 11.3969 41.694 6.3316C39.8034 2.63005 36.2211 0.389638 32.1413 0.389638Z" fill="url(#paint1_linear_470_4708)"/>
<path d="M9.95172 55.8155C12.6384 60.3937 18.5093 62.5367 23.9822 60.0041C24.1813 59.9067 24.2808 59.8093 24.4798 59.8093C29.0571 57.374 34.8285 57.1792 39.9034 59.8093C40.1024 59.9067 40.2019 60.0041 40.4009 60.0041C45.8738 62.5367 51.8443 60.1989 54.332 55.6207C55.526 53.5751 55.9241 51.3347 55.526 48.4124C55.128 46.2694 55.2275 43.6393 56.0236 40.9119C56.7201 38.4766 58.1132 35.944 60.4019 33.801C62.2925 31.9502 63.2876 29.7098 63.5861 27.4694C64.2827 22.8912 61.397 17.6311 57.0187 16.1699C56.6206 15.9751 55.4265 15.6829 53.8344 15.3906C48.66 14.514 44.2817 11.3969 41.8936 6.429C41.4955 5.64973 40.799 4.67563 40.3014 3.99377C36.6197 -0.876692 28.3606 -1.26633 24.0818 3.89636C23.4847 4.67564 22.9872 5.45491 22.4896 6.33159C20.1015 11.2021 15.4246 14.514 9.95172 15.3906C8.95665 15.5855 8.06108 15.7803 7.26502 16.0725C2.7872 17.8259 0.20001 22.5015 0.697546 27.0798C0.996068 29.3202 1.99114 31.7554 3.88178 33.5088C6.17044 35.6518 7.36453 38.1844 8.16059 40.3274C9.15566 42.9575 9.15566 46.0746 8.75763 48.2176C8.2601 51.1398 8.75764 53.7699 9.95172 55.8155Z" fill="url(#paint2_linear_470_4708)"/>
<path d="M9.95172 55.8155C12.6384 60.3937 18.5093 62.5367 23.9822 60.0041C24.1813 59.9067 24.2808 59.8093 24.4798 59.8093C29.0571 57.374 34.8285 57.1792 39.9034 59.8093C40.1024 59.9067 40.2019 60.0041 40.4009 60.0041C45.8738 62.5367 51.8443 60.1989 54.332 55.6207C55.526 53.5751 55.9241 51.3347 55.526 48.4124C55.128 46.2694 55.2275 43.6393 56.0236 40.9119C56.7201 38.4766 58.1132 35.944 60.4019 33.801C62.2925 31.9502 63.2876 29.7098 63.5861 27.4694C64.2827 22.8912 61.397 17.6311 57.0187 16.1699C56.6206 15.9751 55.4265 15.6829 53.8344 15.3906C48.66 14.514 44.2817 11.3969 41.8936 6.429C41.4955 5.64973 40.799 4.67563 40.3014 3.99377C36.6197 -0.876692 28.3606 -1.26633 24.0818 3.89636C23.4847 4.67564 22.9872 5.45491 22.4896 6.33159C20.1015 11.2021 15.4246 14.514 9.95172 15.3906C8.95665 15.5855 8.06108 15.7803 7.26502 16.0725C2.7872 17.8259 0.20001 22.5015 0.697546 27.0798C0.996068 29.3202 1.99114 31.7554 3.88178 33.5088C6.17044 35.6518 7.36453 38.1844 8.16059 40.3274C9.15566 42.9575 9.15566 46.0746 8.75763 48.2176C8.2601 51.1398 8.75764 53.7699 9.95172 55.8155Z" fill="url(#paint3_radial_470_4708)"/>
<path d="M55.2276 46.8538C39.0079 21.43 8.6582 15.7803 8.6582 15.7803C9.65328 15.5855 10.6483 15.3906 11.6434 15.1958C14.8277 14.3191 19.9025 11.9813 22.5892 6.33159C25.9725 -0.974101 37.4158 -2.04561 41.5951 6.13677C43.9833 10.9098 47.3665 14.514 54.7301 15.6829C62.7902 16.9492 67.069 27.2746 60.1035 34.0932C60.0039 34.0932 54.7301 39.0611 55.2276 46.8538Z" fill="url(#paint4_linear_470_4708)"/>
<path d="M55.2276 46.8538C39.0079 21.43 8.6582 15.7803 8.6582 15.7803C9.65328 15.5855 10.6483 15.3906 11.6434 15.1958C14.8277 14.3191 19.9025 11.9813 22.5892 6.33159C25.9725 -0.974101 37.4158 -2.04561 41.5951 6.13677C43.9833 10.9098 47.3665 14.514 54.7301 15.6829C62.7902 16.9492 67.069 27.2746 60.1035 34.0932C60.0039 34.0932 54.7301 39.0611 55.2276 46.8538Z" fill="url(#paint5_radial_470_4708)"/>
<path d="M55.2276 46.8538C39.0079 21.43 8.6582 15.7803 8.6582 15.7803C9.65328 15.5855 10.6483 15.3906 11.6434 15.1958C14.8277 14.3191 19.9025 11.9813 22.5892 6.33159C25.9725 -0.974101 37.4158 -2.04561 41.5951 6.13677C43.9833 10.9098 47.3665 14.514 54.7301 15.6829C62.7902 16.9492 67.069 27.2746 60.1035 34.0932C60.0039 34.0932 54.7301 39.0611 55.2276 46.8538Z" fill="url(#paint6_radial_470_4708)"/>
<path d="M55.2276 46.8538C39.0079 21.43 8.6582 15.7803 8.6582 15.7803C9.65328 15.5855 10.6483 15.3906 11.6434 15.1958C14.8277 14.3191 19.9025 11.9813 22.5892 6.33159C25.9725 -0.974101 37.4158 -2.04561 41.5951 6.13677C43.9833 10.9098 47.3665 14.514 54.7301 15.6829C62.7902 16.9492 67.069 27.2746 60.1035 34.0932C60.0039 34.0932 54.7301 39.0611 55.2276 46.8538Z" fill="url(#paint7_radial_470_4708)"/>
<path d="M31.9426 16.3647C22.1909 16.3647 14.3298 24.5471 15.0264 34.3855C15.5239 42.7626 22.4894 49.5813 30.9475 50.1657C40.6993 50.7502 48.9584 42.9575 48.9584 33.2165C48.9584 23.9627 41.2963 16.3647 31.9426 16.3647ZM33.0372 49.7761C23.2855 50.3606 15.2254 42.6652 15.2254 33.2165C15.2254 24.0601 22.6884 16.5596 31.9426 16.5596C41.4953 16.5596 49.2569 24.6445 48.6598 34.2881C48.0628 42.5678 41.2963 49.2891 33.0372 49.7761Z" fill="url(#paint8_linear_470_4708)"/>
<path d="M29.9525 15.2933C21.5939 16.1699 14.9269 22.7938 13.9318 31.0736C12.7377 41.886 21.2953 51.1399 31.9426 51.1399C41.9928 51.1399 50.0529 43.0549 50.0529 33.1191C50.1524 22.5989 40.8983 14.1244 29.9525 15.2933ZM32.0421 50.945C21.7929 50.945 13.5338 42.373 14.2303 32.0477C14.8274 23.1834 21.9919 16.0725 30.9475 15.4881C41.2963 14.8062 49.9534 23.086 49.9534 33.2166C49.8539 42.9575 41.8933 50.945 32.0421 50.945Z" fill="url(#paint9_linear_470_4708)"/>
<mask id="mask0_470_4708" style="mask-type:alpha" maskUnits="userSpaceOnUse" x="12" y="13" width="40" height="40">
<path opacity="0.73" d="M12.1406 33.1191C12.1406 22.2093 20.9968 13.4425 32.0421 13.4425C42.9879 13.4425 51.9435 22.3067 51.9435 33.1191C51.9435 44.029 43.0874 52.7958 32.0421 52.7958C21.0963 52.8932 12.1406 44.029 12.1406 33.1191Z" fill="url(#paint10_radial_470_4708)"/>
</mask>
<g mask="url(#mask0_470_4708)">
<path opacity="0.83" d="M14.5293 33.314C14.5293 23.4756 22.8879 15.4881 32.9381 16.0725C41.5953 16.5596 48.6603 23.573 49.1578 32.145C49.7549 42.1782 41.7943 50.5554 31.8436 50.5554C22.2909 50.458 14.5293 42.7626 14.5293 33.314Z" fill="white"/>
</g>
<mask id="mask1_470_4708" style="mask-type:alpha" maskUnits="userSpaceOnUse" x="12" y="14" width="39" height="39">
<path opacity="0.73" d="M12.2402 33.2165C12.2402 22.7938 20.7979 14.3192 31.2461 14.3192C41.7939 14.3192 50.252 22.7938 50.252 33.2165C50.252 43.6393 41.6944 52.1139 31.2461 52.1139C20.7979 52.1139 12.2402 43.6393 12.2402 33.2165Z" fill="url(#paint11_radial_470_4708)"/>
</mask>
<g mask="url(#mask1_470_4708)">
<path opacity="0.04" d="M14.5288 32.145C15.0263 23.9627 21.7928 17.2414 30.1514 16.7544C39.8036 16.1699 47.8637 23.7678 47.8637 33.2165C47.8637 42.373 40.4006 49.7761 31.246 49.7761C21.5938 49.7761 13.9317 41.7885 14.5288 32.145Z" fill="white"/>
</g>
<path d="M220.709 35.3595C220.709 40.3273 217.723 41.3988 215.236 41.3988C212.748 41.3988 209.663 40.3273 209.663 35.3595V21.1377H202.2V36.2362C202.2 43.5419 207.176 48.2175 215.236 48.2175C223.296 48.1201 228.271 43.5419 228.271 36.2362V21.1377H220.709V35.3595Z" fill="white"/>
<path d="M251.157 20.6507L250.461 20.4559C249.565 20.2611 247.973 20.261 247.774 20.261C237.823 20.261 232.947 24.6445 232.947 33.7035V47.3408H240.41V38.574C240.41 38.1843 240.41 37.7947 240.41 37.3077C240.41 30.9761 240.609 27.3719 246.779 27.1771C247.376 27.1771 249.067 27.1771 249.963 27.4693L251.157 27.859V20.6507Z" fill="white"/>
<path d="M152.745 20.3585C142.794 20.3585 137.918 24.7419 137.918 33.8009V47.4382H145.381V38.6714C145.381 38.2818 145.381 37.8921 145.381 37.4051C145.381 31.0735 145.58 27.4693 151.749 27.2745C152.347 27.2745 154.038 27.2745 154.934 27.5667L156.128 27.9564V20.6507L155.431 20.4559C154.536 20.3585 152.944 20.3585 152.745 20.3585Z" fill="white"/>
<path d="M168.367 20.7481H160.904V47.3408H168.367V20.7481Z" fill="white"/>
<path d="M102.593 20.7481H94.9311L94.7321 21.5274C94.7321 21.6248 93.6375 30.002 87.4681 37.9895C81.2986 30.0994 80.3036 21.6248 80.3036 21.5274L80.204 20.7481H72.542L72.6415 21.7222C72.6415 22.3066 73.9351 37.1128 86.9705 47.7304L87.5676 48.2175L88.1646 47.7304C101.2 37.2102 102.494 22.404 102.494 21.7222L102.593 20.7481Z" fill="white"/>
<path d="M188.965 30.9761L184.487 30.2942C182.497 30.002 181.502 29.1253 181.502 28.346C181.602 27.3719 183.293 26.4952 185.681 26.6901H185.781C187.871 26.7875 189.562 27.2745 190.756 27.9564L191.254 28.2486L196.826 23.7678L195.831 23.0859C193.543 21.5274 190.557 20.6507 186.179 20.3585H186.079C180.109 19.9688 173.84 22.5989 173.442 28.346C173.243 31.5605 174.537 35.5543 182.298 36.8206L186.776 37.5025C188.766 37.7947 189.96 38.574 189.861 39.5481C189.761 41.1066 186.577 41.4962 184.587 41.3988H184.487C182 41.204 180.109 40.6196 178.517 39.5481L177.92 39.1584L172.148 43.8341L172.944 44.5159C176.029 46.9512 179.512 47.7304 183.791 48.0227H183.99C184.487 48.0227 184.985 48.0227 185.482 48.0227C188.269 48.0227 190.856 47.5356 192.846 46.5615C195.931 45.1978 197.622 42.86 197.821 39.8403C198.418 35.2621 195.035 31.9501 188.965 30.9761Z" fill="white"/>
<path d="M275.636 37.7947L275.537 38.0869C274.741 39.9377 271.855 41.3014 268.77 41.3014C263.994 41.1066 262.601 37.9895 262.203 36.1387H283V35.4569C283 25.6185 277.726 19.8714 268.571 19.774C258.621 19.774 254.242 26.7875 254.242 33.8009C254.242 42.2755 260.213 47.9253 268.969 47.9253C276.532 47.9253 280.114 43.7367 281.308 41.5937L275.636 37.7947ZM268.671 25.716C271.954 25.716 274.343 27.5667 274.84 30.6838H262.402C262.899 27.9564 265.686 25.716 268.671 25.716Z" fill="white"/>
<path d="M126.575 37.7947L126.475 38.0869C125.679 39.9377 122.793 41.3014 119.709 41.3014C114.932 41.1066 113.539 37.9895 113.141 36.1387H133.938V35.4569C133.938 25.6185 128.664 19.8714 119.51 19.774C109.559 19.774 105.181 26.7875 105.181 33.8009C105.181 42.2755 111.151 47.9253 119.908 47.9253C127.47 47.9253 131.053 43.7367 132.247 41.5937L126.575 37.7947ZM119.709 25.716C122.992 25.716 125.381 27.5667 125.878 30.6838H113.44C113.838 27.9564 116.724 25.716 119.709 25.716Z" fill="white"/>
<defs>
<linearGradient id="paint0_linear_470_4708" x1="32.074" y1="0.0639062" x2="32.074" y2="61.8906" gradientUnits="userSpaceOnUse">
<stop offset="0.0879121" stop-color="white"/>
<stop offset="0.1239" stop-color="#ECEBEC" stop-opacity="0.9933"/>
<stop offset="0.4395" stop-color="#90949A" stop-opacity="0.9345"/>
<stop offset="0.7008" stop-color="#5D666D" stop-opacity="0.8858"/>
<stop offset="0.8948" stop-color="#424F56" stop-opacity="0.8496"/>
<stop offset="1" stop-color="#38474F" stop-opacity="0.83"/>
</linearGradient>
<linearGradient id="paint1_linear_470_4708" x1="32.089" y1="61.555" x2="32.089" y2="-0.0383793" gradientUnits="userSpaceOnUse">
<stop stop-color="white"/>
<stop offset="0.1411" stop-color="#3B4C53"/>
<stop offset="0.263" stop-color="#868C90"/>
<stop offset="0.3313" stop-color="#BDBFBF"/>
<stop offset="0.4233" stop-color="#3B4C53" stop-opacity="0.92"/>
<stop offset="0.5811" stop-color="#858E97" stop-opacity="0.9702"/>
<stop offset="0.6748" stop-color="#C1C8D1"/>
<stop offset="0.724" stop-color="#C6CCD4"/>
<stop offset="0.7803" stop-color="#D3D7DD"/>
<stop offset="0.84" stop-color="#E9EAED"/>
<stop offset="0.8773" stop-color="white"/>
<stop offset="1" stop-color="#C1C8D1"/>
</linearGradient>
<linearGradient id="paint2_linear_470_4708" x1="25.1172" y1="8.92122" x2="40.9055" y2="53.2334" gradientUnits="userSpaceOnUse">
<stop stop-color="#D5D8E2"/>
<stop offset="0.0274212" stop-color="#DFE1E8"/>
<stop offset="0.0843513" stop-color="#EFF0F3"/>
<stop offset="0.1493" stop-color="#FAFAFB"/>
<stop offset="0.2393" stop-color="white"/>
<stop offset="0.4375" stop-color="#F8F9FA"/>
<stop offset="0.6334" stop-color="#ECEDEF"/>
<stop offset="0.8278" stop-color="#D8DCE1"/>
<stop offset="1" stop-color="#C1C9D2"/>
</linearGradient>
<radialGradient id="paint3_radial_470_4708" cx="0" cy="0" r="1" gradientUnits="userSpaceOnUse" gradientTransform="translate(57.6404 28.0009) scale(31.0489 30.8298)">
<stop stop-color="#C1C8D1"/>
<stop offset="1" stop-color="#C1C8D1" stop-opacity="0"/>
</radialGradient>
<linearGradient id="paint4_linear_470_4708" x1="27.4621" y1="0.983433" x2="49.4843" y2="50.9131" gradientUnits="userSpaceOnUse">
<stop stop-color="#384D56"/>
<stop offset="0.0549585" stop-color="#4B5C65"/>
<stop offset="0.1628" stop-color="#6C7A83"/>
<stop offset="0.2726" stop-color="#89949D"/>
<stop offset="0.3834" stop-color="#9FA9B2"/>
<stop offset="0.4961" stop-color="#AEB7BF"/>
<stop offset="0.6135" stop-color="#B4BDC4"/>
<stop offset="0.6316" stop-color="#B6BEC6"/>
<stop offset="0.8399" stop-color="#C6CCD4"/>
<stop offset="1" stop-color="#CBD1D9"/>
</linearGradient>
<radialGradient id="paint5_radial_470_4708" cx="0" cy="0" r="1" gradientUnits="userSpaceOnUse" gradientTransform="translate(42.9518 32.7254) scale(15.2446 15.137)">
<stop stop-color="white" stop-opacity="0.16"/>
<stop offset="0.0222641" stop-color="white" stop-opacity="0.1564"/>
<stop offset="1" stop-color="white" stop-opacity="0"/>
</radialGradient>
<radialGradient id="paint6_radial_470_4708" cx="0" cy="0" r="1" gradientUnits="userSpaceOnUse" gradientTransform="translate(13.1875 15.762) scale(15.2448 15.1372)">
<stop stop-color="#2C3B47" stop-opacity="0.2"/>
<stop offset="0.1471" stop-color="#2F3E49" stop-opacity="0.1706"/>
<stop offset="0.5646" stop-color="#36454D" stop-opacity="0.0870816"/>
<stop offset="1" stop-color="#38474F" stop-opacity="0"/>
</radialGradient>
<radialGradient id="paint7_radial_470_4708" cx="0" cy="0" r="1" gradientUnits="userSpaceOnUse" gradientTransform="translate(55.1993 5.44251) scale(20.2644 20.1214)">
<stop stop-color="#2C3B47" stop-opacity="0.3"/>
<stop offset="0.5297" stop-color="#34434C" stop-opacity="0.1411"/>
<stop offset="1" stop-color="#38474F" stop-opacity="0"/>
</radialGradient>
<linearGradient id="paint8_linear_470_4708" x1="19.0725" y1="22.2697" x2="44.4" y2="44.7607" gradientUnits="userSpaceOnUse">
<stop stop-color="#C1C8D1"/>
<stop offset="0.6319" stop-color="white"/>
<stop offset="0.6746" stop-color="#F3F2F3"/>
<stop offset="0.7292" stop-color="#DCDDE0"/>
<stop offset="0.7902" stop-color="#BDBFC5"/>
<stop offset="0.8558" stop-color="#979BA5"/>
<stop offset="0.9251" stop-color="#6D7582"/>
<stop offset="0.9966" stop-color="#415160"/>
<stop offset="1" stop-color="#3E505F"/>
</linearGradient>
<linearGradient id="paint9_linear_470_4708" x1="14.3246" y1="29.2177" x2="49.6625" y2="37.5519" gradientUnits="userSpaceOnUse">
<stop stop-color="#596C77"/>
<stop offset="0.8132" stop-color="white"/>
</linearGradient>
<radialGradient id="paint10_radial_470_4708" cx="0" cy="0" r="1" gradientUnits="userSpaceOnUse" gradientTransform="translate(32.0411 33.16) scale(19.855 19.7149)">
<stop stop-color="white"/>
<stop offset="0.2675" stop-color="#A3A3A3"/>
<stop offset="0.5366" stop-color="#4C4C4C"/>
<stop offset="0.7268" stop-color="#151515"/>
<stop offset="0.8187"/>
</radialGradient>
<radialGradient id="paint11_radial_470_4708" cx="0" cy="0" r="1" gradientUnits="userSpaceOnUse" gradientTransform="translate(31.2828 33.1792) scale(19.033 18.8987)">
<stop stop-color="white"/>
<stop offset="0.2675" stop-color="#A3A3A3"/>
<stop offset="0.5366" stop-color="#4C4C4C"/>
<stop offset="0.7268" stop-color="#151515"/>
<stop offset="0.8187"/>
</radialGradient>
</defs>
</svg>
