<svg width="225" height="127" viewBox="0 0 225 127" fill="none" xmlns="http://www.w3.org/2000/svg">
<path d="M112.399 23.2721C105.988 23.2721 99.8772 26.0011 95.4694 30.6503C91.0615 35.4007 88.8576 41.6671 89.2583 48.2367C89.9596 59.961 99.3763 69.3606 110.997 70.0681C117.508 70.4724 123.619 68.2488 128.428 63.7006C133.136 59.2535 135.741 53.0881 135.741 46.6196C135.641 33.7835 125.222 23.2721 112.399 23.2721Z" fill="white"/>
<path d="M144.055 21.7562C136.342 20.6445 129.73 15.793 126.324 8.71805C120.714 -3.10728 104.385 -2.703 98.8751 8.71805C95.469 15.793 88.8573 20.7455 81.1436 21.7562C68.5212 23.4744 63.4122 39.0394 72.6285 48.0348C79.4406 54.6044 80.4424 63.3976 79.4406 69.3608C77.1365 82.0958 90.4601 91.7986 101.68 85.7343C108.192 82.1968 116.406 81.7925 123.619 85.7343C134.839 91.7986 148.062 82.0958 145.858 69.3608C144.756 63.3976 145.257 55.0087 152.47 48.1358C161.687 39.3426 156.678 23.4744 144.055 21.7562ZM129.229 64.7115C124.621 69.0576 118.71 71.4833 112.399 71.4833C111.898 71.4833 111.397 71.4833 110.796 71.4833C98.4744 70.6747 88.6569 60.7697 87.8555 48.338C87.4548 41.4651 89.7589 34.7944 94.4672 29.8419C99.0754 24.8894 105.587 22.0595 112.399 22.0595C125.923 22.0595 136.943 33.1773 136.943 46.8219C136.943 53.4926 134.138 60.0622 129.229 64.7115Z" fill="white"/>
<path d="M158.482 112.85C158.482 118.308 155.276 119.521 152.571 119.521C149.866 119.521 146.661 118.409 146.661 112.85V97.0829H138.646V113.76C138.646 121.845 143.956 126.899 152.671 127C161.287 126.899 166.596 121.845 166.596 113.76V97.0829H158.482V112.85Z" fill="white"/>
<path d="M191.039 96.7796L190.237 96.5775C189.235 96.3754 187.532 96.3754 187.332 96.3754C176.613 96.3754 171.504 101.227 171.504 111.132V126.191H179.518V116.489C179.518 116.084 179.518 115.579 179.518 115.175C179.518 108.201 179.718 104.259 186.33 104.057C186.931 104.057 188.734 104.057 189.736 104.36L191.039 104.764V96.7796Z" fill="white"/>
<path d="M85.8515 96.3754C75.1325 96.3754 70.0234 101.227 70.0234 111.132V126.191H78.0377V116.489C78.0377 116.084 78.0377 115.579 78.0377 115.175C78.0377 108.201 78.238 104.259 84.8497 104.057C85.4508 104.057 87.254 104.057 88.2558 104.36L89.5581 104.764V96.7796L88.7567 96.5775C87.7549 96.3754 86.0519 96.3754 85.8515 96.3754Z" fill="white"/>
<path d="M102.582 96.7797H94.5674V126.191H102.582V96.7797Z" fill="white"/>
<path d="M32.0569 96.7797H23.8423L23.7421 97.5883C23.7421 97.6894 22.6402 106.988 16.0284 115.68C9.41671 106.887 8.31476 97.6894 8.31476 97.5883L8.21458 96.7797H0L0.100176 97.7904C0.200354 98.4979 1.50267 114.77 15.4274 126.394L16.0284 126.899L16.6295 126.394C30.5542 114.77 31.9567 98.3969 31.9567 97.7904L32.0569 96.7797Z" fill="white"/>
<path d="M124.52 108.1L119.712 107.291C117.608 106.988 116.506 105.977 116.606 105.169C116.707 104.158 118.51 103.147 121.114 103.349H121.215C123.418 103.551 125.222 103.956 126.524 104.663L127.125 104.966L133.136 100.014L132.134 99.3065C129.73 97.5883 126.424 96.5775 121.816 96.2743H121.715C115.304 95.87 108.592 98.8011 108.191 105.068C107.991 108.605 109.394 113.052 117.708 114.366L122.517 115.175C124.621 115.478 125.923 116.388 125.823 117.499C125.722 119.218 122.316 119.622 120.213 119.521H120.113C117.508 119.319 115.404 118.712 113.801 117.499L113.2 117.095L106.989 122.25L107.891 122.957C111.197 125.686 114.903 126.495 119.511 126.798H119.712C120.213 126.798 120.714 126.798 121.215 126.798C124.22 126.798 126.925 126.292 129.129 125.282C132.334 123.766 134.238 121.138 134.438 117.904C134.638 112.749 131.032 109.11 124.52 108.1Z" fill="white"/>
<path d="M217.187 115.579L217.087 115.882C216.285 117.904 213.18 119.42 209.874 119.42C204.765 119.217 203.262 115.781 202.761 113.76H225.001V112.951C225.001 102.136 219.391 95.7689 209.573 95.6678C198.954 95.6678 194.246 103.45 194.246 111.132C194.246 120.43 200.557 126.697 210.074 126.697C218.189 126.697 221.995 122.047 223.298 119.723L217.187 115.579ZM209.774 102.237C213.28 102.237 215.884 104.36 216.385 107.695H203.062C203.563 104.764 206.568 102.237 209.774 102.237Z" fill="white"/>
<path d="M57.8011 115.579L57.7009 115.882C56.8995 117.904 53.7939 119.42 50.4881 119.42C45.379 119.217 43.8763 115.781 43.3755 113.76H65.6149V112.951C65.6149 102.136 60.005 95.7689 50.1875 95.6678C39.5687 95.6678 34.8604 103.45 34.8604 111.132C34.8604 120.43 41.1715 126.697 50.6884 126.697C58.8028 126.697 62.6096 122.047 63.9119 119.723L57.8011 115.579ZM50.3879 102.237C53.8941 102.237 56.4987 104.36 56.9996 107.695H43.676C44.1769 104.764 47.1822 102.237 50.3879 102.237Z" fill="white"/>
</svg>
