<svg width="225" height="127" viewBox="0 0 225 127" fill="none" xmlns="http://www.w3.org/2000/svg">
<path d="M101.577 85.4024C90.3774 91.3838 77.1812 81.8578 79.399 69.2302C80.3971 63.3595 79.399 54.7196 72.6346 48.1842C63.4305 39.3228 68.5316 23.926 81.0624 22.2645C88.714 21.1568 95.3675 16.3938 98.6943 9.41538C104.128 -1.88298 120.429 -2.32605 126.085 9.41538C129.411 16.3938 136.065 21.2676 143.717 22.2645C156.358 24.0368 161.348 39.5443 152.033 48.295C144.825 55.0519 144.382 63.3595 145.38 69.2302C147.598 81.747 134.402 91.3838 123.201 85.4024C116.215 81.5255 108.009 81.8578 101.577 85.4024Z" fill="#E9ECF3"/>
<path d="M94.3702 87.1746C89.8236 87.1746 85.3879 85.07 82.3938 81.5254C79.3997 77.9808 78.2908 73.4393 79.067 68.787C79.6215 65.9071 80.8413 55.9379 72.6353 47.9626C68.3105 43.7534 66.5362 37.8827 68.4214 32.1228C70.3065 26.3628 75.0749 22.3752 81.0631 21.489C88.6038 20.4921 95.1464 15.7291 98.4732 8.75069C101.135 3.32305 106.457 0 112.446 0C118.434 0 123.646 3.32305 126.307 8.75069C129.634 15.7291 136.177 20.3813 143.717 21.489C149.705 22.2644 154.474 26.3628 156.359 32.1228C158.244 37.8827 156.581 43.975 152.256 48.0734C144.05 55.9379 145.27 65.9071 145.713 68.6763C146.49 73.3285 145.381 77.7593 142.387 81.4146C139.392 84.9592 134.957 87.0638 130.41 87.0638C127.86 87.0638 125.42 86.3992 123.091 85.1807C119.764 83.4084 116.105 82.4115 112.335 82.4115C108.564 82.4115 104.794 83.4084 101.578 85.1807C99.3603 86.6207 96.9207 87.1746 94.3702 87.1746ZM112.556 0.775382C106.79 0.775382 101.578 3.98766 99.1385 9.19376C95.7009 16.2829 89.0473 21.1567 81.2849 22.2644C75.6294 23.0398 70.9719 26.9167 69.1976 32.4551C67.4233 37.9935 68.8649 43.8642 73.0788 47.8519C81.5067 55.9379 80.3977 66.0178 79.9542 69.0086C79.1779 73.4393 80.2868 77.7593 83.17 81.1931C86.0532 84.6269 90.2671 86.6207 94.5919 86.6207C97.0316 86.6207 99.3603 86.0669 101.578 84.8484C105.016 82.9654 108.786 82.0792 112.667 82.0792C116.549 82.0792 120.319 83.0761 123.757 84.8484C125.974 86.0669 128.303 86.6207 130.743 86.6207C135.068 86.6207 139.392 84.6269 142.165 81.1931C145.048 77.7593 146.157 73.4393 145.381 69.0086C144.826 66.1286 143.828 55.9379 152.256 47.8519C156.359 43.8642 157.911 37.9935 156.137 32.4551C154.363 26.9167 149.705 23.0398 144.05 22.2644C136.287 21.1567 129.523 16.2829 126.196 9.19376C123.313 3.87689 118.323 0.775382 112.556 0.775382Z" fill="url(#paint0_linear_470_4693)"/>
<path d="M94.3701 86.7315C89.8236 86.7315 85.3879 84.6269 82.3938 81.0823C79.3997 77.5377 78.1799 73.107 78.9561 68.4547C79.5106 64.9102 80.7304 56.2702 72.4135 47.9626C68.1996 43.7534 66.5362 37.6612 68.4214 31.9012C70.3065 26.1413 75.0749 22.1536 81.0631 21.3783C88.6037 20.3814 95.1464 15.6183 98.4732 8.75069C101.135 3.32305 106.457 0 112.446 0C118.434 0 123.646 3.32305 126.307 8.75069C129.634 15.6183 136.177 20.3814 143.717 21.3783C149.705 22.1536 154.474 26.2521 156.359 31.9012C158.244 37.6612 156.692 43.7534 152.367 47.8519C144.161 55.7164 145.159 65.464 145.713 68.344C146.49 72.9962 145.381 77.427 142.387 80.9715C139.392 84.5161 134.957 86.6207 130.41 86.6207C127.86 86.6207 125.42 85.9561 123.091 84.7377C119.764 82.9654 116.105 82.0792 112.335 82.0792C108.564 82.0792 104.794 82.9654 101.578 84.7377C99.3603 86.0669 96.9207 86.7315 94.3701 86.7315ZM112.556 0.553841C106.79 0.553841 101.578 3.76612 99.1385 8.97222C95.7009 16.0614 89.0473 20.9352 81.2848 22.0429C75.6293 22.8183 70.9719 26.6951 69.1976 32.2335C67.4233 37.6612 68.8649 43.6427 73.0788 47.6303C81.5066 55.7164 80.3977 65.7963 79.9541 68.6763C79.1779 73.107 80.2868 77.427 83.17 80.8608C86.0532 84.2946 90.2671 86.2884 94.5919 86.2884C97.0316 86.2884 99.3603 85.7346 101.578 84.5161C105.016 82.7438 108.786 81.7469 112.667 81.7469C116.549 81.7469 120.319 82.7438 123.757 84.5161C125.974 85.7346 128.303 86.2884 130.743 86.2884C135.068 86.2884 139.392 84.2946 142.165 80.8608C145.048 77.427 146.157 73.107 145.381 68.6763C144.826 65.7963 143.828 55.7164 152.256 47.6303C156.359 43.6427 157.911 37.772 156.137 32.2335C154.363 26.8059 149.705 22.8183 144.05 22.0429C136.287 20.9352 129.523 16.0614 126.196 8.97222C123.313 3.76612 118.323 0.553841 112.556 0.553841Z" fill="url(#paint1_linear_470_4693)"/>
<path d="M81.3949 78.6454C85.1652 85.07 93.4821 88.1715 101.023 84.5161C101.245 84.4053 101.466 84.2946 101.688 84.1838C108.12 80.75 116.215 80.4177 123.312 84.1838C123.534 84.2946 123.756 84.4053 123.978 84.5161C131.629 88.0607 140.057 84.8484 143.495 78.4239C145.158 75.5439 145.823 72.3316 145.158 68.2332C144.603 65.2425 144.714 61.4763 145.823 57.7102C146.821 54.2764 148.706 50.7318 151.922 47.7411C154.584 45.1934 155.914 41.9811 156.358 38.8796C157.356 32.3443 153.364 25.0336 147.154 23.0398C146.6 22.8182 144.936 22.2644 142.607 21.9321C135.399 20.6029 129.3 16.2829 125.863 9.30452C125.308 8.19684 124.31 6.86762 123.645 5.98148C118.433 -0.775384 107.011 -1.32922 100.912 5.87071C100.025 6.97839 99.3594 8.08607 98.6941 9.41529C95.2564 16.2829 88.7138 20.9352 81.1731 22.1536C79.8424 22.3752 78.5117 22.5967 77.4028 23.1505C71.1928 25.5874 67.5333 32.2335 68.1987 38.6581C68.5314 41.8704 69.973 45.1934 72.6344 47.7411C75.8503 50.8426 77.5137 54.3872 78.6226 57.3779C79.9533 61.0333 79.9533 65.464 79.3988 68.5655C79.0661 72.1101 79.7315 75.7654 81.3949 78.6454Z" fill="url(#paint2_linear_470_4693)"/>
<path d="M81.3949 78.6454C85.1652 85.07 93.4821 88.1715 101.023 84.5161C101.245 84.4053 101.466 84.2946 101.688 84.1838C108.12 80.75 116.215 80.4177 123.312 84.1838C123.534 84.2946 123.756 84.4053 123.978 84.5161C131.629 88.0607 140.057 84.8484 143.495 78.4239C145.158 75.5439 145.823 72.3316 145.158 68.2332C144.603 65.2425 144.714 61.4763 145.823 57.7102C146.821 54.2764 148.706 50.7318 151.922 47.7411C154.584 45.1934 155.914 41.9811 156.358 38.8796C157.356 32.3443 153.364 25.0336 147.154 23.0398C146.6 22.8182 144.936 22.2644 142.607 21.9321C135.399 20.6029 129.3 16.2829 125.863 9.30452C125.308 8.19684 124.31 6.86762 123.645 5.98148C118.433 -0.775384 107.011 -1.32922 100.912 5.87071C100.025 6.97839 99.3594 8.08607 98.6941 9.41529C95.2564 16.2829 88.7138 20.9352 81.1731 22.1536C79.8424 22.3752 78.5117 22.5967 77.4028 23.1505C71.1928 25.5874 67.5333 32.2335 68.1987 38.6581C68.5314 41.8704 69.973 45.1934 72.6344 47.7411C75.8503 50.8426 77.5137 54.3872 78.6226 57.3779C79.9533 61.0333 79.9533 65.464 79.3988 68.5655C79.0661 72.1101 79.7315 75.7654 81.3949 78.6454Z" fill="url(#paint3_radial_470_4693)"/>
<path d="M144.937 66.0178C122.204 30.2397 79.6211 22.2644 79.6211 22.2644C80.9518 21.9321 82.3934 21.8213 83.835 21.3782C88.2707 20.1598 95.4787 16.9475 99.1381 8.86142C103.796 -1.44002 119.875 -2.99077 125.752 8.63989C129.079 15.286 133.847 20.3813 144.16 22.0428C155.471 23.8151 161.46 38.3258 151.701 48.0734C151.701 48.0734 144.16 54.941 144.937 66.0178Z" fill="url(#paint4_linear_470_4693)"/>
<path d="M144.937 66.0178C122.204 30.2397 79.6211 22.2644 79.6211 22.2644C80.9518 21.9321 82.3934 21.8213 83.835 21.3782C88.2707 20.1598 95.4787 16.9475 99.1381 8.86142C103.796 -1.44002 119.875 -2.99077 125.752 8.63989C129.079 15.286 133.847 20.3813 144.16 22.0428C155.471 23.8151 161.46 38.3258 151.701 48.0734C151.701 48.0734 144.16 54.941 144.937 66.0178Z" fill="url(#paint5_radial_470_4693)"/>
<path d="M144.937 66.0178C122.204 30.2397 79.6211 22.2644 79.6211 22.2644C80.9518 21.9321 82.3934 21.8213 83.835 21.3782C88.2707 20.1598 95.4787 16.9475 99.1381 8.86142C103.796 -1.44002 119.875 -2.99077 125.752 8.63989C129.079 15.286 133.847 20.3813 144.16 22.0428C155.471 23.8151 161.46 38.3258 151.701 48.0734C151.701 48.0734 144.16 54.941 144.937 66.0178Z" fill="url(#paint6_radial_470_4693)"/>
<path d="M144.937 66.0178C122.204 30.2397 79.6211 22.2644 79.6211 22.2644C80.9518 21.9321 82.3934 21.8213 83.835 21.3782C88.2707 20.1598 95.4787 16.9475 99.1381 8.86142C103.796 -1.44002 119.875 -2.99077 125.752 8.63989C129.079 15.286 133.847 20.3813 144.16 22.0428C155.471 23.8151 161.46 38.3258 151.701 48.0734C151.701 48.0734 144.16 54.941 144.937 66.0178Z" fill="url(#paint7_radial_470_4693)"/>
<path d="M112.334 23.0398C98.6942 23.0398 87.7158 34.5597 88.603 48.4057C89.3792 60.2579 99.0268 69.8948 110.892 70.5594C124.754 71.4455 136.176 60.4795 136.176 46.855C136.176 33.7843 125.419 23.0398 112.334 23.0398ZM113.776 70.1163C100.136 71.0024 88.8248 60.1472 88.8248 46.7442C88.8248 33.7843 99.3595 23.3721 112.334 23.3721C125.752 23.3721 136.619 34.6705 135.732 48.295C134.956 59.9256 125.419 69.4517 113.776 70.1163Z" fill="url(#paint8_linear_470_4693)"/>
<path d="M109.562 21.5998C97.9182 22.9291 88.4923 32.2336 87.1616 43.8642C85.3873 59.1503 97.4746 72.2209 112.445 72.2209C126.417 72.2209 137.839 60.8118 137.839 46.855C137.839 31.9013 124.865 19.9383 109.562 21.5998ZM112.334 71.7778C98.029 71.7778 86.3854 59.7041 87.3834 45.1935C88.1596 32.7874 98.3617 22.5968 110.782 21.8214C125.309 20.9352 137.396 32.4551 137.396 46.7442C137.396 60.4795 126.196 71.7778 112.334 71.7778Z" fill="url(#paint9_linear_470_4693)"/>
<mask id="mask0_470_4693" style="mask-type:alpha" maskUnits="userSpaceOnUse" x="84" y="18" width="57" height="57">
<path opacity="0.73" d="M84.6113 46.7442C84.6113 31.4582 97.0313 18.9413 112.445 18.9413C127.748 18.9413 140.279 31.3474 140.279 46.7442C140.279 62.0302 127.859 74.547 112.445 74.547C97.0313 74.547 84.6113 62.0302 84.6113 46.7442Z" fill="url(#paint10_radial_470_4693)"/>
</mask>
<g mask="url(#mask0_470_4693)">
<path opacity="0.83" d="M87.9375 46.855C87.9375 32.8982 99.6921 21.7106 113.775 22.5968C125.863 23.3721 135.732 33.1197 136.508 45.3042C137.395 59.4826 126.195 71.224 112.223 71.224C98.805 71.224 87.9375 60.2579 87.9375 46.855Z" fill="white"/>
</g>
<mask id="mask1_470_4693" style="mask-type:alpha" maskUnits="userSpaceOnUse" x="84" y="20" width="54" height="54">
<path opacity="0.73" d="M84.7236 46.7441C84.7236 32.012 96.7 20.1598 111.338 20.1598C126.086 20.1598 137.952 32.1227 137.952 46.7441C137.952 61.4763 125.976 73.3285 111.338 73.3285C96.5891 73.3285 84.7236 61.4763 84.7236 46.7441Z" fill="url(#paint11_radial_470_4693)"/>
</mask>
<g mask="url(#mask1_470_4693)">
<path opacity="0.04" d="M87.9379 45.3043C88.7142 33.6736 98.14 24.2583 109.784 23.5937C123.313 22.8183 134.513 33.5628 134.513 46.855C134.513 59.7041 124.089 70.1163 111.225 70.1163C97.8073 70.2271 87.0508 58.9287 87.9379 45.3043Z" fill="white"/>
</g>
<path d="M158.575 113.043C158.575 118.471 155.359 119.579 152.698 119.579C150.037 119.579 146.821 118.471 146.821 113.043V97.4249H138.726V113.929C138.726 121.905 144.048 127 152.698 127C161.348 126.889 166.67 121.905 166.67 113.929V97.4249H158.575V113.043Z" fill="white"/>
<path d="M191.068 96.9818L190.292 96.871C189.294 96.6495 187.63 96.6494 187.408 96.6494C176.763 96.6494 171.551 101.412 171.551 111.271V126.114H179.535V116.477C179.535 116.034 179.535 115.591 179.535 115.148C179.535 108.28 179.757 104.292 186.41 104.182C187.076 104.182 188.85 104.182 189.848 104.514L191.068 104.957V96.9818Z" fill="white"/>
<path d="M85.8303 96.6494C75.1846 96.6494 69.9727 101.412 69.9727 111.271V126.114H77.9569V116.477C77.9569 116.034 77.9569 115.591 77.9569 115.148C77.9569 108.28 78.1787 104.292 84.8322 104.182C85.4976 104.182 87.2719 104.182 88.2699 104.514L89.4897 104.957V96.9818L88.7134 96.871C87.7154 96.6495 86.052 96.6494 85.8303 96.6494Z" fill="white"/>
<path d="M102.575 97.0925H94.5908V126.114H102.575V97.0925Z" fill="white"/>
<path d="M32.1588 97.0925H23.9527L23.8418 97.9787C23.8418 98.0894 22.7329 107.283 16.0794 115.923C9.53674 107.283 8.42781 98.0894 8.31692 97.9787L8.20603 97.0925H0L0.110891 98.0894C0.110891 98.754 1.55249 114.926 15.5249 126.446L16.1903 127L16.8556 126.446C30.8281 114.926 32.1588 98.754 32.2697 98.0894L32.1588 97.0925Z" fill="white"/>
<path d="M124.532 108.28L119.764 107.505C117.657 107.172 116.548 106.175 116.659 105.4C116.77 104.403 118.544 103.406 121.095 103.517H121.205C123.423 103.628 125.198 104.071 126.528 104.846L127.083 105.179L133.071 100.305L132.073 99.5294C129.633 97.7571 126.417 96.8709 121.76 96.5386H121.649C115.217 96.0956 108.564 98.9755 108.12 105.289C107.898 108.723 109.34 113.154 117.657 114.483L122.425 115.258C124.532 115.591 125.863 116.477 125.752 117.474C125.641 119.135 122.204 119.578 120.097 119.468H119.986C117.324 119.246 115.217 118.581 113.665 117.474L113.11 117.031L106.9 122.126L107.788 122.901C111.003 125.56 114.774 126.335 119.431 126.668H119.653C120.207 126.668 120.651 126.668 121.205 126.668C124.2 126.668 126.972 126.114 129.079 125.117C132.295 123.566 134.18 121.018 134.402 117.806C134.623 112.932 130.964 109.277 124.532 108.28Z" fill="white"/>
<path d="M217.237 115.702L217.127 116.034C216.239 118.028 213.245 119.578 209.919 119.578C204.818 119.357 203.376 115.923 202.821 113.929H225V113.154C225 102.409 219.344 96.2063 209.586 96.0956C198.94 96.0956 194.172 103.739 194.172 111.382C194.172 120.575 200.493 126.778 209.919 126.778C218.014 126.778 221.784 122.126 223.115 119.911L217.237 115.702ZM209.808 102.52C213.356 102.52 215.907 104.625 216.461 107.948H203.154C203.598 104.957 206.592 102.52 209.808 102.52Z" fill="white"/>
<path d="M57.7746 115.702L57.6637 116.034C56.7765 118.028 53.7825 119.578 50.4557 119.578C45.3546 119.357 43.913 115.923 43.3586 113.929H65.537V113.154C65.537 102.409 59.8815 96.2063 50.123 96.0956C39.4774 96.0956 34.709 103.739 34.709 111.382C34.709 120.575 41.0298 126.778 50.4557 126.778C58.5508 126.778 62.3212 122.126 63.6519 119.911L57.7746 115.702ZM50.4557 102.52C54.0042 102.52 56.5548 104.625 57.1092 107.948H43.8021C44.2457 104.957 47.2398 102.52 50.4557 102.52Z" fill="white"/>
<defs>
<linearGradient id="paint0_linear_470_4693" x1="112.4" y1="0.0932668" x2="112.4" y2="87.2678" gradientUnits="userSpaceOnUse">
<stop offset="0.0879121" stop-color="white"/>
<stop offset="0.1239" stop-color="#ECEBEC" stop-opacity="0.9933"/>
<stop offset="0.4395" stop-color="#90949A" stop-opacity="0.9345"/>
<stop offset="0.7008" stop-color="#5D666D" stop-opacity="0.8858"/>
<stop offset="0.8948" stop-color="#424F56" stop-opacity="0.8496"/>
<stop offset="1" stop-color="#38474F" stop-opacity="0.83"/>
</linearGradient>
<linearGradient id="paint1_linear_470_4693" x1="112.399" y1="86.7314" x2="112.399" y2="-0.000108562" gradientUnits="userSpaceOnUse">
<stop stop-color="white"/>
<stop offset="0.1411" stop-color="#3B4C53"/>
<stop offset="0.263" stop-color="#868C90"/>
<stop offset="0.3313" stop-color="#BDBFBF"/>
<stop offset="0.4233" stop-color="#3B4C53" stop-opacity="0.92"/>
<stop offset="0.5811" stop-color="#858E97" stop-opacity="0.9702"/>
<stop offset="0.6748" stop-color="#C1C8D1"/>
<stop offset="0.724" stop-color="#C6CCD4"/>
<stop offset="0.7803" stop-color="#D3D7DD"/>
<stop offset="0.84" stop-color="#E9EAED"/>
<stop offset="0.8773" stop-color="white"/>
<stop offset="1" stop-color="#C1C8D1"/>
</linearGradient>
<linearGradient id="paint2_linear_470_4693" x1="102.853" y1="12.5652" x2="125.484" y2="74.8115" gradientUnits="userSpaceOnUse">
<stop stop-color="#D5D8E2"/>
<stop offset="0.0274212" stop-color="#DFE1E8"/>
<stop offset="0.0843513" stop-color="#EFF0F3"/>
<stop offset="0.1493" stop-color="#FAFAFB"/>
<stop offset="0.2393" stop-color="white"/>
<stop offset="0.4375" stop-color="#F8F9FA"/>
<stop offset="0.6334" stop-color="#ECEDEF"/>
<stop offset="0.8278" stop-color="#D8DCE1"/>
<stop offset="1" stop-color="#C1C9D2"/>
</linearGradient>
<radialGradient id="paint3_radial_470_4693" cx="0" cy="0" r="1" gradientUnits="userSpaceOnUse" gradientTransform="translate(148.274 39.4537) scale(43.4885 43.4398)">
<stop stop-color="#C1C8D1"/>
<stop offset="1" stop-color="#C1C8D1" stop-opacity="0"/>
</radialGradient>
<linearGradient id="paint4_linear_470_4693" x1="106.12" y1="1.33915" x2="137.668" y2="71.4351" gradientUnits="userSpaceOnUse">
<stop stop-color="#384D56"/>
<stop offset="0.0549585" stop-color="#4B5C65"/>
<stop offset="0.1628" stop-color="#6C7A83"/>
<stop offset="0.2726" stop-color="#89949D"/>
<stop offset="0.3834" stop-color="#9FA9B2"/>
<stop offset="0.4961" stop-color="#AEB7BF"/>
<stop offset="0.6135" stop-color="#B4BDC4"/>
<stop offset="0.6316" stop-color="#B6BEC6"/>
<stop offset="0.8399" stop-color="#C6CCD4"/>
<stop offset="1" stop-color="#CBD1D9"/>
</linearGradient>
<radialGradient id="paint5_radial_470_4693" cx="0" cy="0" r="1" gradientUnits="userSpaceOnUse" gradientTransform="translate(127.701 46.1107) scale(21.3522 21.3283)">
<stop stop-color="white" stop-opacity="0.16"/>
<stop offset="0.0222641" stop-color="white" stop-opacity="0.1564"/>
<stop offset="1" stop-color="white" stop-opacity="0"/>
</radialGradient>
<radialGradient id="paint6_radial_470_4693" cx="0" cy="0" r="1" gradientUnits="userSpaceOnUse" gradientTransform="translate(86.0115 22.2088) scale(21.3525 21.3286)">
<stop stop-color="#2C3B47" stop-opacity="0.2"/>
<stop offset="0.1471" stop-color="#2F3E49" stop-opacity="0.1706"/>
<stop offset="0.5646" stop-color="#36454D" stop-opacity="0.0870816"/>
<stop offset="1" stop-color="#38474F" stop-opacity="0"/>
</radialGradient>
<radialGradient id="paint7_radial_470_4693" cx="0" cy="0" r="1" gradientUnits="userSpaceOnUse" gradientTransform="translate(144.855 7.66845) scale(28.3833 28.3516)">
<stop stop-color="#2C3B47" stop-opacity="0.3"/>
<stop offset="0.5297" stop-color="#34434C" stop-opacity="0.1411"/>
<stop offset="1" stop-color="#38474F" stop-opacity="0"/>
</radialGradient>
<linearGradient id="paint8_linear_470_4693" x1="94.3826" y1="31.2363" x2="130.266" y2="62.4646" gradientUnits="userSpaceOnUse">
<stop stop-color="#C1C8D1"/>
<stop offset="0.6319" stop-color="white"/>
<stop offset="0.6746" stop-color="#F3F2F3"/>
<stop offset="0.7292" stop-color="#DCDDE0"/>
<stop offset="0.7902" stop-color="#BDBFC5"/>
<stop offset="0.8558" stop-color="#979BA5"/>
<stop offset="0.9251" stop-color="#6D7582"/>
<stop offset="0.9966" stop-color="#415160"/>
<stop offset="1" stop-color="#3E505F"/>
</linearGradient>
<linearGradient id="paint9_linear_470_4693" x1="87.6348" y1="41.1145" x2="137.186" y2="52.5673" gradientUnits="userSpaceOnUse">
<stop stop-color="#596C77"/>
<stop offset="0.8132" stop-color="white"/>
</linearGradient>
<radialGradient id="paint10_radial_470_4693" cx="0" cy="0" r="1" gradientUnits="userSpaceOnUse" gradientTransform="translate(112.445 46.7441) scale(27.834 27.8028)">
<stop stop-color="white"/>
<stop offset="0.2675" stop-color="#A3A3A3"/>
<stop offset="0.5366" stop-color="#4C4C4C"/>
<stop offset="0.7268" stop-color="#151515"/>
<stop offset="0.8187"/>
</radialGradient>
<radialGradient id="paint11_radial_470_4693" cx="0" cy="0" r="1" gradientUnits="userSpaceOnUse" gradientTransform="translate(111.338 46.744) scale(26.6659 26.6361)">
<stop stop-color="white"/>
<stop offset="0.2675" stop-color="#A3A3A3"/>
<stop offset="0.5366" stop-color="#4C4C4C"/>
<stop offset="0.7268" stop-color="#151515"/>
<stop offset="0.8187"/>
</radialGradient>
</defs>
</svg>
