<svg width="226" height="120" viewBox="0 0 226 120" fill="none" xmlns="http://www.w3.org/2000/svg">
<path d="M112.9 21.9902C106.46 21.9902 100.322 24.5687 95.8946 28.9618C91.4672 33.4503 89.2535 39.3713 89.656 45.5788C90.3604 56.6569 99.8189 65.5384 111.491 66.2069C118.032 66.5889 124.17 64.4879 128.999 60.1904C133.729 55.9884 136.345 50.1629 136.345 44.0508C136.244 31.9223 125.78 21.9902 112.9 21.9902Z" fill="white"/>
<path d="M144.696 20.5571C136.948 19.5066 130.307 14.9226 126.886 8.23753C121.251 -2.93601 104.85 -2.55401 99.3153 8.23753C95.8941 14.9226 89.253 19.6021 81.5051 20.5571C68.8266 22.1806 63.6949 36.8876 72.9521 45.3872C79.7945 51.5947 80.8007 59.9032 79.7945 65.5378C77.4801 77.5708 90.863 86.7388 102.133 81.0088C108.673 77.6663 116.924 77.2843 124.169 81.0088C135.439 86.7388 148.721 77.5708 146.507 65.5378C145.4 59.9032 145.904 51.9767 153.148 45.4827C162.406 37.1741 157.375 22.1806 144.696 20.5571ZM129.804 61.1447C125.175 65.2513 119.239 67.5433 112.899 67.5433C112.396 67.5433 111.893 67.5433 111.289 67.5433C98.9128 66.7793 89.0518 57.4202 88.2468 45.6737C87.8443 39.1796 90.1586 32.8766 94.8879 28.1971C99.5165 23.5176 106.057 20.8436 112.899 20.8436C126.483 20.8436 137.552 31.3486 137.552 44.2412C137.552 50.5442 134.734 56.7517 129.804 61.1447Z" fill="white"/>
<path d="M159.185 106.63C159.185 111.788 155.965 112.934 153.248 112.934C150.531 112.934 147.312 111.883 147.312 106.63V91.7324H139.262V107.49C139.262 115.13 144.595 119.905 153.349 120.001C162.002 119.905 167.335 115.13 167.335 107.49V91.7324H159.185V106.63Z" fill="white"/>
<path d="M191.887 91.4445L191.082 91.2535C190.076 91.0625 188.365 91.0625 188.164 91.0625C177.397 91.0625 172.266 95.6465 172.266 105.006V119.235H180.315V110.067C180.315 109.685 180.315 109.208 180.315 108.826C180.315 102.236 180.517 98.5115 187.158 98.3205C187.762 98.3205 189.573 98.3205 190.579 98.607L191.887 98.989V91.4445Z" fill="white"/>
<path d="M86.2343 91.0625C75.4677 91.0625 70.3359 95.6465 70.3359 105.006V119.235H78.3858V110.067C78.3858 109.685 78.3858 109.208 78.3858 108.826C78.3858 102.236 78.587 98.5115 85.2281 98.3205C85.8318 98.3205 87.643 98.3205 88.6493 98.607L89.9574 98.989V91.4445L89.1524 91.2535C88.1461 91.0625 86.4356 91.0625 86.2343 91.0625Z" fill="white"/>
<path d="M103.038 91.4453H94.9883V119.236H103.038V91.4453Z" fill="white"/>
<path d="M32.1993 91.4453H23.9482L23.8476 92.2093C23.8476 92.3048 22.7407 101.091 16.0996 109.304C9.45853 100.995 8.35169 92.3048 8.35169 92.2093L8.25106 91.4453H0L0.100621 92.4003C0.201244 93.0688 1.50934 108.444 15.4959 119.427L16.0996 119.904L16.7034 119.427C30.6899 108.444 32.0986 92.9733 32.0986 92.4003L32.1993 91.4453Z" fill="white"/>
<path d="M125.074 102.142L120.244 101.378C118.131 101.091 117.024 100.136 117.125 99.3724C117.225 98.4174 119.036 97.4623 121.653 97.6533H121.753C123.967 97.8443 125.778 98.2264 127.086 98.8949L127.69 99.1814L133.727 94.5018L132.721 93.8333C130.306 92.2098 126.986 91.2548 122.357 90.9683H122.256C115.817 90.5863 109.075 93.3558 108.672 99.2769C108.471 102.619 109.88 106.821 118.231 108.063L123.061 108.827C125.174 109.113 126.483 109.973 126.382 111.023C126.281 112.647 122.86 113.029 120.747 112.933H120.646C118.03 112.742 115.917 112.169 114.307 111.023L113.703 110.641L107.465 115.512L108.37 116.18C111.691 118.759 115.414 119.523 120.043 119.809H120.244C120.747 119.809 121.25 119.809 121.753 119.809C124.772 119.809 127.489 119.332 129.702 118.377C132.922 116.944 134.834 114.461 135.035 111.405C135.237 106.535 131.614 103.097 125.074 102.142Z" fill="white"/>
<path d="M218.152 109.208L218.051 109.495C217.246 111.405 214.127 112.837 210.807 112.837C205.675 112.646 204.165 109.399 203.662 107.489H226.001V106.725C226.001 96.5065 220.366 90.49 210.505 90.3945C199.839 90.3945 195.109 97.748 195.109 105.006C195.109 113.792 201.449 119.713 211.008 119.713C219.158 119.713 222.982 115.32 224.29 113.124L218.152 109.208ZM210.706 96.6021C214.228 96.6021 216.844 98.6076 217.347 101.759H203.964C204.467 98.9896 207.486 96.6021 210.706 96.6021Z" fill="white"/>
<path d="M58.0582 109.208L57.9576 109.495C57.1526 111.405 54.0333 112.837 50.7128 112.837C45.581 112.646 44.0717 109.399 43.5685 107.489H65.9068V106.725C65.9068 96.5065 60.2719 90.49 50.4109 90.3945C39.7449 90.3945 35.0156 97.748 35.0156 105.006C35.0156 113.792 41.3548 119.713 50.914 119.713C59.0644 119.713 62.8881 115.32 64.1962 113.124L58.0582 109.208ZM50.6121 96.6021C54.1339 96.6021 56.7501 98.6076 57.2532 101.759H43.8704C44.3735 98.9896 47.3922 96.6021 50.6121 96.6021Z" fill="white"/>
</svg>
