<svg width="200" height="116" viewBox="0 0 200 116" fill="none" xmlns="http://www.w3.org/2000/svg">
<path d="M90.2919 77.9736C80.3362 83.4348 68.6062 74.7374 70.5777 63.2082C71.4648 57.8481 70.5776 49.9597 64.5648 43.9928C56.3834 35.9022 60.9177 21.8446 72.0562 20.3276C78.8576 19.3163 84.7719 14.9676 87.729 8.59616C92.559 -1.71944 107.049 -2.12397 112.076 8.59616C115.033 14.9676 120.948 19.4174 127.749 20.3276C138.986 21.9458 143.422 36.1044 135.142 44.094C128.735 50.2631 128.34 57.8481 129.228 63.2082C131.199 74.6362 119.469 83.4348 109.513 77.9736C103.303 74.434 96.009 74.7374 90.2919 77.9736Z" fill="#E9ECF3"/>
<path d="M83.8848 79.5919C79.8434 79.5919 75.9005 77.6704 73.2391 74.4341C70.5777 71.1979 69.592 67.0514 70.282 62.8038C70.7748 60.1743 71.8591 51.0723 64.5649 43.7907C60.7206 39.9477 59.1434 34.5876 60.8192 29.3287C62.4949 24.0697 66.7334 20.4289 72.0563 19.6199C78.7591 18.7097 84.5748 14.3609 87.5319 7.98953C89.8976 3.034 94.6291 0 99.9519 0C105.275 0 109.908 3.034 112.273 7.98953C115.23 14.3609 121.046 18.6085 127.749 19.6199C133.072 20.3278 137.31 24.0697 138.986 29.3287C140.662 34.5876 139.183 40.1499 135.339 43.8919C128.045 51.0723 129.129 60.1743 129.523 62.7027C130.213 66.9503 129.228 70.9956 126.566 74.333C123.905 77.5693 119.962 79.4908 115.92 79.4908C113.653 79.4908 111.485 78.884 109.415 77.7715C106.458 76.1534 103.205 75.2432 99.8533 75.2432C96.5019 75.2432 93.1505 76.1534 90.2919 77.7715C88.3205 79.0863 86.1519 79.5919 83.8848 79.5919ZM100.05 0.707938C94.9248 0.707938 90.2919 3.6408 88.1234 8.39407C85.0677 14.8666 79.1534 19.3165 72.2534 20.3278C67.2263 21.0357 63.0863 24.5754 61.5092 29.6321C59.932 34.6887 61.2134 40.0488 64.9591 43.6896C72.4506 51.0723 71.4648 60.2755 71.0706 63.0061C70.3806 67.0514 71.3663 70.9956 73.9291 74.1307C76.492 77.2659 80.2377 79.0863 84.0819 79.0863C86.2505 79.0863 88.3205 78.5806 90.2919 77.4681C93.3476 75.7489 96.6991 74.9398 100.149 74.9398C103.599 74.9398 106.95 75.85 110.006 77.4681C111.978 78.5806 114.048 79.0863 116.216 79.0863C120.06 79.0863 123.905 77.2659 126.369 74.1307C128.932 70.9956 129.918 67.0514 129.228 63.0061C128.735 60.3766 127.848 51.0723 135.339 43.6896C138.986 40.0488 140.366 34.6887 138.789 29.6321C137.212 24.5754 133.072 21.0357 128.045 20.3278C121.145 19.3165 115.132 14.8666 112.175 8.39407C109.612 3.53967 105.176 0.707938 100.05 0.707938Z" fill="url(#paint0_linear_248_40435)"/>
<path d="M83.8838 79.1874C79.8423 79.1874 75.8995 77.2659 73.2381 74.0296C70.5766 70.7934 69.4924 66.748 70.1824 62.5004C70.6752 59.2641 71.7595 51.3757 64.3667 43.7907C60.621 39.9477 59.1424 34.3853 60.8181 29.1264C62.4938 23.8675 66.7324 20.2267 72.0552 19.5187C78.7581 18.6085 84.5738 14.2598 87.5309 7.98954C89.8966 3.034 94.628 0 99.9509 0C105.274 0 109.907 3.034 112.272 7.98954C115.229 14.2598 121.045 18.6085 127.748 19.5187C133.071 20.2267 137.309 23.9686 138.985 29.1264C140.661 34.3853 139.281 39.9477 135.436 43.6896C128.142 50.8701 129.029 59.7698 129.522 62.3993C130.212 66.6469 129.226 70.6922 126.565 73.9285C123.904 77.1647 119.961 79.0863 115.919 79.0863C113.652 79.0863 111.484 78.4795 109.414 77.367C106.457 75.7489 103.204 74.9398 99.8523 74.9398C96.5009 74.9398 93.1494 75.7489 90.2909 77.367C88.3195 78.5806 86.1509 79.1874 83.8838 79.1874ZM100.049 0.505667C94.9237 0.505667 90.2909 3.43853 88.1223 8.1918C85.0666 14.6643 79.1523 19.1142 72.2524 20.1255C67.2252 20.8335 63.0852 24.3731 61.5081 29.4298C59.931 34.3853 61.2124 39.8465 64.9581 43.4873C72.4495 50.8701 71.4638 60.0732 71.0695 62.7027C70.3795 66.748 71.3652 70.6922 73.9281 73.8274C76.4909 76.9625 80.2366 78.7829 84.0809 78.7829C86.2495 78.7829 88.3195 78.2772 90.2909 77.1647C93.3466 75.5466 96.698 74.6364 100.148 74.6364C103.598 74.6364 106.949 75.5466 110.005 77.1647C111.977 78.2772 114.047 78.7829 116.215 78.7829C120.059 78.7829 123.904 76.9625 126.368 73.8274C128.931 70.6922 129.916 66.748 129.226 62.7027C128.734 60.0732 127.846 50.8701 135.338 43.4873C138.985 39.8465 140.365 34.4865 138.788 29.4298C137.211 24.4743 133.071 20.8335 128.044 20.1255C121.144 19.1142 115.131 14.6643 112.174 8.1918C109.611 3.43853 105.175 0.505667 100.049 0.505667Z" fill="url(#paint1_linear_248_40435)"/>
<path d="M72.3502 71.8042C75.7016 77.6699 83.0945 80.5017 89.7973 77.1643C89.9945 77.0631 90.1916 76.962 90.3888 76.8609C96.1059 73.7257 103.302 73.4223 109.61 76.8609C109.807 76.962 110.004 77.0631 110.202 77.1643C117.003 80.4005 124.494 77.4677 127.55 71.6019C129.029 68.9725 129.62 66.0396 129.029 62.2977C128.536 59.5671 128.634 56.1285 129.62 52.69C130.507 49.5549 132.183 46.3186 135.042 43.588C137.407 41.2619 138.59 38.3291 138.984 35.4973C139.871 29.5305 136.323 22.8557 130.803 21.0353C130.31 20.833 128.832 20.3273 126.762 20.0239C120.354 18.8103 114.933 14.8661 111.877 8.49473C111.384 7.4834 110.497 6.26979 109.906 5.46073C105.273 -0.708405 95.1202 -1.21407 89.6987 5.3596C88.9102 6.37093 88.3188 7.38226 87.7273 8.59586C84.6716 14.8661 78.8559 19.1137 72.1531 20.2262C70.9702 20.4285 69.7874 20.6307 68.8017 21.1364C63.2817 23.3613 60.0288 29.4293 60.6202 35.2951C60.916 38.2279 62.1974 41.2619 64.5631 43.588C67.4217 46.4197 68.9002 49.656 69.8859 52.3866C71.0688 55.724 71.0688 59.7693 70.5759 62.6011C70.2802 65.8373 70.8717 69.1747 72.3502 71.8042Z" fill="url(#paint2_linear_248_40435)"/>
<path d="M72.3502 71.8042C75.7016 77.6699 83.0945 80.5017 89.7973 77.1643C89.9945 77.0631 90.1916 76.962 90.3888 76.8609C96.1059 73.7257 103.302 73.4223 109.61 76.8609C109.807 76.962 110.004 77.0631 110.202 77.1643C117.003 80.4005 124.494 77.4677 127.55 71.6019C129.029 68.9725 129.62 66.0396 129.029 62.2977C128.536 59.5671 128.634 56.1285 129.62 52.69C130.507 49.5549 132.183 46.3186 135.042 43.588C137.407 41.2619 138.59 38.3291 138.984 35.4973C139.871 29.5305 136.323 22.8557 130.803 21.0353C130.31 20.833 128.832 20.3273 126.762 20.0239C120.354 18.8103 114.933 14.8661 111.877 8.49473C111.384 7.4834 110.497 6.26979 109.906 5.46073C105.273 -0.708405 95.1202 -1.21407 89.6987 5.3596C88.9102 6.37093 88.3188 7.38226 87.7273 8.59586C84.6716 14.8661 78.8559 19.1137 72.1531 20.2262C70.9702 20.4285 69.7874 20.6307 68.8017 21.1364C63.2817 23.3613 60.0288 29.4293 60.6202 35.2951C60.916 38.2279 62.1974 41.2619 64.5631 43.588C67.4217 46.4197 68.9002 49.656 69.8859 52.3866C71.0688 55.724 71.0688 59.7693 70.5759 62.6011C70.2802 65.8373 70.8717 69.1747 72.3502 71.8042Z" fill="url(#paint3_radial_248_40435)"/>
<path d="M128.832 60.2761C108.625 27.61 70.7734 20.3284 70.7734 20.3284C71.9563 20.025 73.2377 19.9239 74.5191 19.5193C78.462 18.4069 84.8691 15.474 88.122 8.09126C92.262 -1.31414 106.555 -2.73001 111.779 7.88899C114.736 13.957 118.975 18.6091 128.142 20.1261C138.196 21.7443 143.519 34.9927 134.845 43.8925C134.845 43.8925 128.142 50.1627 128.832 60.2761Z" fill="url(#paint4_linear_248_40435)"/>
<path d="M128.832 60.2761C108.625 27.61 70.7734 20.3284 70.7734 20.3284C71.9563 20.025 73.2377 19.9239 74.5191 19.5193C78.462 18.4069 84.8691 15.474 88.122 8.09126C92.262 -1.31414 106.555 -2.73001 111.779 7.88899C114.736 13.957 118.975 18.6091 128.142 20.1261C138.196 21.7443 143.519 34.9927 134.845 43.8925C134.845 43.8925 128.142 50.1627 128.832 60.2761Z" fill="url(#paint5_radial_248_40435)"/>
<path d="M128.832 60.2761C108.625 27.61 70.7734 20.3284 70.7734 20.3284C71.9563 20.025 73.2377 19.9239 74.5191 19.5193C78.462 18.4069 84.8691 15.474 88.122 8.09126C92.262 -1.31414 106.555 -2.73001 111.779 7.88899C114.736 13.957 118.975 18.6091 128.142 20.1261C138.196 21.7443 143.519 34.9927 134.845 43.8925C134.845 43.8925 128.142 50.1627 128.832 60.2761Z" fill="url(#paint6_radial_248_40435)"/>
<path d="M128.832 60.2761C108.625 27.61 70.7734 20.3284 70.7734 20.3284C71.9563 20.025 73.2377 19.9239 74.5191 19.5193C78.462 18.4069 84.8691 15.474 88.122 8.09126C92.262 -1.31414 106.555 -2.73001 111.779 7.88899C114.736 13.957 118.975 18.6091 128.142 20.1261C138.196 21.7443 143.519 34.9927 134.845 43.8925C134.845 43.8925 128.142 50.1627 128.832 60.2761Z" fill="url(#paint7_radial_248_40435)"/>
<path d="M99.8527 21.0352C87.7285 21.0352 77.97 31.553 78.7585 44.1947C79.4485 55.016 88.0242 63.8146 98.5713 64.4214C110.893 65.2304 121.046 55.2182 121.046 42.7788C121.046 30.8451 111.484 21.0352 99.8527 21.0352ZM101.134 64.0168C89.0099 64.8259 78.9557 54.9148 78.9557 42.6777C78.9557 30.8451 88.3199 21.3386 99.8527 21.3386C111.78 21.3386 121.44 31.6542 120.651 44.0936C119.961 54.7126 111.484 63.41 101.134 64.0168Z" fill="url(#paint8_linear_248_40435)"/>
<path d="M97.3877 19.7211C87.0377 20.9347 78.6592 29.4299 77.4763 40.0489C75.8992 54.0053 86.6435 65.9391 99.9506 65.9391C112.371 65.9391 122.523 55.5223 122.523 42.7795C122.523 29.1265 110.991 18.2041 97.3877 19.7211ZM99.852 65.5345C87.1363 65.5345 76.7863 54.511 77.6735 41.2625C78.3635 29.9356 87.432 20.6313 98.472 19.9234C111.385 19.1143 122.129 29.6322 122.129 42.6784C122.129 55.2189 112.173 65.5345 99.852 65.5345Z" fill="url(#paint9_linear_248_40435)"/>
<mask id="mask0_248_40435" style="mask-type:alpha" maskUnits="userSpaceOnUse" x="75" y="17" width="50" height="52">
<path opacity="0.73" d="M75.209 42.6774C75.209 28.721 86.249 17.293 99.9504 17.293C113.553 17.293 124.692 28.6199 124.692 42.6774C124.692 56.6338 113.652 68.0619 99.9504 68.0619C86.249 68.0619 75.209 56.6338 75.209 42.6774Z" fill="url(#paint10_radial_248_40435)"/>
</mask>
<g mask="url(#mask0_248_40435)">
<path opacity="0.83" d="M78.167 42.7791C78.167 30.0363 88.6155 19.8218 101.134 20.6309C111.878 21.3388 120.651 30.2386 121.341 41.3632C122.13 54.3083 112.174 65.0284 99.7541 65.0284C87.827 65.0284 78.167 55.0162 78.167 42.7791Z" fill="white"/>
</g>
<mask id="mask1_248_40435" style="mask-type:alpha" maskUnits="userSpaceOnUse" x="75" y="18" width="48" height="49">
<path opacity="0.73" d="M75.3066 42.6783C75.3066 29.2275 85.9523 18.4062 98.9637 18.4062C112.074 18.4062 122.621 29.3287 122.621 42.6783C122.621 56.129 111.975 66.9503 98.9637 66.9503C85.8538 66.9503 75.3066 56.129 75.3066 42.6783Z" fill="url(#paint11_radial_248_40435)"/>
</mask>
<g mask="url(#mask1_248_40435)">
<path opacity="0.04" d="M78.1671 41.364C78.8571 30.745 87.2356 22.1487 97.5856 21.5419C109.611 20.834 119.567 30.6439 119.567 42.7799C119.567 54.5114 110.301 64.0179 98.867 64.0179C86.9399 64.119 77.3785 53.8034 78.1671 41.364Z" fill="white"/>
</g>
<path d="M140.957 102.426C140.957 107.381 138.098 108.393 135.732 108.393C133.367 108.393 130.508 107.381 130.508 102.426V88.166H123.312V103.235C123.312 110.516 128.044 115.169 135.732 115.169C143.421 115.067 148.152 110.516 148.152 103.235V88.166H140.957V102.426Z" fill="#ED1C2C"/>
<path d="M169.837 87.7624L169.147 87.6613C168.26 87.459 166.782 87.459 166.584 87.459C157.122 87.459 152.489 91.8077 152.489 100.809V114.36H159.586V105.562C159.586 105.157 159.586 104.753 159.586 104.348C159.586 98.078 159.783 94.4372 165.697 94.3361C166.289 94.3361 167.866 94.3361 168.753 94.6395L169.837 95.044V87.7624Z" fill="#ED1C2C"/>
<path d="M76.2929 87.459C66.8301 87.459 62.1973 91.8077 62.1973 100.809V114.36H69.2944V105.562C69.2944 105.157 69.2944 104.753 69.2944 104.348C69.2944 98.078 69.4915 94.4372 75.4058 94.3361C75.9972 94.3361 77.5744 94.3361 78.4615 94.6395L79.5458 95.044V87.7624L78.8558 87.6613C77.9686 87.459 76.4901 87.459 76.2929 87.459Z" fill="#ED1C2C"/>
<path d="M91.1772 87.8633H84.0801V114.36H91.1772V87.8633Z" fill="#ED1C2C"/>
<path d="M28.5856 87.8633H21.2914L21.1928 88.6724C21.1928 88.7735 20.2071 97.1676 14.2928 105.056C8.47712 97.1676 7.49141 88.7735 7.39284 88.6724L7.29427 87.8633H0L0.0985697 88.7735C0.0985697 89.3803 1.38 104.146 13.8 114.664L14.3914 115.169L14.9828 114.664C27.4028 104.146 28.5856 89.3803 28.6842 88.7735L28.5856 87.8633Z" fill="#ED1C2C"/>
<path d="M110.696 98.0789L106.458 97.371C104.585 97.0676 103.599 96.1574 103.698 95.4495C103.796 94.5393 105.373 93.6291 107.641 93.7302H107.739C109.711 93.8313 111.288 94.2359 112.471 94.9438L112.963 95.2472L118.286 90.7973L117.399 90.0894C115.231 88.4712 112.372 87.6622 108.232 87.3588H108.133C102.416 86.9542 96.502 89.5837 96.1077 95.3483C95.9106 98.4834 97.192 102.529 104.585 103.742L108.823 104.45C110.696 104.754 111.879 105.563 111.781 106.473C111.682 107.99 108.626 108.395 106.753 108.293H106.655C104.289 108.091 102.416 107.484 101.036 106.473L100.543 106.068L95.0234 110.721L95.812 111.429C98.6706 113.856 102.022 114.564 106.162 114.867H106.359C106.852 114.867 107.246 114.867 107.739 114.867C110.401 114.867 112.865 114.361 114.738 113.451C117.596 112.035 119.272 109.709 119.469 106.776C119.666 102.327 116.413 98.9891 110.696 98.0789Z" fill="#ED1C2C"/>
<path d="M193.1 104.854L193.002 105.157C192.213 106.978 189.552 108.393 186.595 108.393C182.061 108.191 180.779 105.056 180.286 103.236H200V102.528C200 92.7177 194.973 87.0543 186.299 86.9531C176.836 86.9531 172.598 93.9313 172.598 100.91C172.598 109.304 178.216 114.967 186.595 114.967C193.79 114.967 197.142 110.719 198.325 108.697L193.1 104.854ZM186.496 92.8189C189.65 92.8189 191.918 94.7404 192.41 97.7744H180.582C180.976 95.0438 183.638 92.8189 186.496 92.8189Z" fill="#ED1C2C"/>
<path d="M51.3539 104.854L51.2553 105.157C50.4667 106.978 47.8053 108.393 44.8482 108.393C40.3139 108.191 39.0325 105.056 38.5396 103.236H58.2539V102.528C58.2539 92.7177 53.2267 87.0543 44.5525 86.9531C35.0896 86.9531 30.8511 93.9313 30.8511 100.91C30.8511 109.304 36.4696 114.967 44.8482 114.967C52.0439 114.967 55.3953 110.719 56.5782 108.697L51.3539 104.854ZM44.8482 92.8189C48.0025 92.8189 50.2696 94.7404 50.7624 97.7744H38.9339C39.3282 95.0438 41.9896 92.8189 44.8482 92.8189Z" fill="#ED1C2C"/>
<defs>
<linearGradient id="paint0_linear_248_40435" x1="99.9733" y1="0.0852554" x2="99.9733" y2="79.6249" gradientUnits="userSpaceOnUse">
<stop offset="0.0879121" stop-color="white"/>
<stop offset="0.1239" stop-color="#ECEBEC" stop-opacity="0.9933"/>
<stop offset="0.4395" stop-color="#90949A" stop-opacity="0.9345"/>
<stop offset="0.7008" stop-color="#5D666D" stop-opacity="0.8858"/>
<stop offset="0.8948" stop-color="#424F56" stop-opacity="0.8496"/>
<stop offset="1" stop-color="#38474F" stop-opacity="0.83"/>
</linearGradient>
<linearGradient id="paint1_linear_248_40435" x1="99.9915" y1="79.1932" x2="99.9915" y2="-0.0463189" gradientUnits="userSpaceOnUse">
<stop stop-color="white"/>
<stop offset="0.1411" stop-color="#3B4C53"/>
<stop offset="0.263" stop-color="#868C90"/>
<stop offset="0.3313" stop-color="#BDBFBF"/>
<stop offset="0.4233" stop-color="#3B4C53" stop-opacity="0.92"/>
<stop offset="0.5811" stop-color="#858E97" stop-opacity="0.9702"/>
<stop offset="0.6748" stop-color="#C1C8D1"/>
<stop offset="0.724" stop-color="#C6CCD4"/>
<stop offset="0.7803" stop-color="#D3D7DD"/>
<stop offset="0.84" stop-color="#E9EAED"/>
<stop offset="0.8773" stop-color="white"/>
<stop offset="1" stop-color="#C1C8D1"/>
</linearGradient>
<linearGradient id="paint2_linear_248_40435" x1="91.491" y1="11.447" x2="112.578" y2="67.9163" gradientUnits="userSpaceOnUse">
<stop stop-color="#D5D8E2"/>
<stop offset="0.0274212" stop-color="#DFE1E8"/>
<stop offset="0.0843513" stop-color="#EFF0F3"/>
<stop offset="0.1493" stop-color="#FAFAFB"/>
<stop offset="0.2393" stop-color="white"/>
<stop offset="0.4375" stop-color="#F8F9FA"/>
<stop offset="0.6334" stop-color="#ECEDEF"/>
<stop offset="0.8278" stop-color="#D8DCE1"/>
<stop offset="1" stop-color="#C1C9D2"/>
</linearGradient>
<radialGradient id="paint3_radial_248_40435" cx="0" cy="0" r="1" gradientUnits="userSpaceOnUse" gradientTransform="translate(131.798 36.0216) scale(38.6566 39.6614)">
<stop stop-color="#C1C8D1"/>
<stop offset="1" stop-color="#C1C8D1" stop-opacity="0"/>
</radialGradient>
<linearGradient id="paint4_linear_248_40435" x1="94.3494" y1="1.21348" x2="123.663" y2="64.6247" gradientUnits="userSpaceOnUse">
<stop stop-color="#384D56"/>
<stop offset="0.0549585" stop-color="#4B5C65"/>
<stop offset="0.1628" stop-color="#6C7A83"/>
<stop offset="0.2726" stop-color="#89949D"/>
<stop offset="0.3834" stop-color="#9FA9B2"/>
<stop offset="0.4961" stop-color="#AEB7BF"/>
<stop offset="0.6135" stop-color="#B4BDC4"/>
<stop offset="0.6316" stop-color="#B6BEC6"/>
<stop offset="0.8399" stop-color="#C6CCD4"/>
<stop offset="1" stop-color="#CBD1D9"/>
</linearGradient>
<radialGradient id="paint5_radial_248_40435" cx="0" cy="0" r="1" gradientUnits="userSpaceOnUse" gradientTransform="translate(113.511 42.1006) scale(18.9798 19.4731)">
<stop stop-color="white" stop-opacity="0.16"/>
<stop offset="0.0222641" stop-color="white" stop-opacity="0.1564"/>
<stop offset="1" stop-color="white" stop-opacity="0"/>
</radialGradient>
<radialGradient id="paint6_radial_248_40435" cx="0" cy="0" r="1" gradientUnits="userSpaceOnUse" gradientTransform="translate(76.4538 20.2777) scale(18.9801 19.4734)">
<stop stop-color="#2C3B47" stop-opacity="0.2"/>
<stop offset="0.1471" stop-color="#2F3E49" stop-opacity="0.1706"/>
<stop offset="0.5646" stop-color="#36454D" stop-opacity="0.0870816"/>
<stop offset="1" stop-color="#38474F" stop-opacity="0"/>
</radialGradient>
<radialGradient id="paint7_radial_248_40435" cx="0" cy="0" r="1" gradientUnits="userSpaceOnUse" gradientTransform="translate(128.759 7.00215) scale(25.2297 25.8855)">
<stop stop-color="#2C3B47" stop-opacity="0.3"/>
<stop offset="0.5297" stop-color="#34434C" stop-opacity="0.1411"/>
<stop offset="1" stop-color="#38474F" stop-opacity="0"/>
</radialGradient>
<linearGradient id="paint8_linear_248_40435" x1="83.884" y1="28.5378" x2="116.514" y2="56.1842" gradientUnits="userSpaceOnUse">
<stop stop-color="#C1C8D1"/>
<stop offset="0.6319" stop-color="white"/>
<stop offset="0.6746" stop-color="#F3F2F3"/>
<stop offset="0.7292" stop-color="#DCDDE0"/>
<stop offset="0.7902" stop-color="#BDBFC5"/>
<stop offset="0.8558" stop-color="#979BA5"/>
<stop offset="0.9251" stop-color="#6D7582"/>
<stop offset="0.9966" stop-color="#415160"/>
<stop offset="1" stop-color="#3E505F"/>
</linearGradient>
<linearGradient id="paint9_linear_248_40435" x1="77.889" y1="37.5216" x2="122.064" y2="47.4617" gradientUnits="userSpaceOnUse">
<stop stop-color="#596C77"/>
<stop offset="0.8132" stop-color="white"/>
</linearGradient>
<radialGradient id="paint10_radial_248_40435" cx="0" cy="0" r="1" gradientUnits="userSpaceOnUse" gradientTransform="translate(99.9273 42.6582) scale(24.72 25.3625)">
<stop stop-color="white"/>
<stop offset="0.2675" stop-color="#A3A3A3"/>
<stop offset="0.5366" stop-color="#4C4C4C"/>
<stop offset="0.7268" stop-color="#151515"/>
<stop offset="0.8187"/>
</radialGradient>
<radialGradient id="paint11_radial_248_40435" cx="0" cy="0" r="1" gradientUnits="userSpaceOnUse" gradientTransform="translate(98.9821 42.6838) scale(23.6966 24.3126)">
<stop stop-color="white"/>
<stop offset="0.2675" stop-color="#A3A3A3"/>
<stop offset="0.5366" stop-color="#4C4C4C"/>
<stop offset="0.7268" stop-color="#151515"/>
<stop offset="0.8187"/>
</radialGradient>
</defs>
</svg>
