<svg width="48" height="48" viewBox="0 0 48 48" fill="none" xmlns="http://www.w3.org/2000/svg">
<path d="M40.4472 38.0655L37.4254 33.2969C36.0779 30.7322 35.3428 27.847 35.3428 24.9618V20.7141C34.7711 20.9545 34.1178 21.1549 33.4644 21.195V24.9618C33.4644 28.1676 34.2811 31.3734 35.7512 34.1785C35.7512 34.2186 35.792 34.2187 35.792 34.2187L37.9154 37.5847H30.0343H14.4761H6.59492L8.59585 34.419C10.3518 31.4136 11.291 28.0073 11.291 24.521V19.5119C11.291 15.0638 14.4761 11.2167 18.8454 10.4153C19.2946 10.3351 19.6213 9.93448 19.6213 9.49368V6.408C19.6213 4.96538 20.8055 3.80327 22.2756 3.80327C23.7457 3.80327 24.9299 4.96538 24.9299 6.408V9.45357C24.9299 9.89437 25.2566 10.2952 25.7058 10.3754C26.8491 10.5757 27.87 10.9363 28.8092 11.4973C29.2992 11.0164 29.8709 10.6559 30.4835 10.3754C29.3809 9.61398 28.1559 9.05292 26.8083 8.73234V6.44811C26.8083 4.00368 24.7665 2 22.2756 2C19.7847 2 17.7429 4.00368 17.7429 6.44811V8.77245C12.8835 10.0548 9.45338 14.4226 9.45338 19.5119V24.5611C9.45338 27.7268 8.59585 30.8123 7.04412 33.4972L4.14481 38.0256C3.98147 38.3061 3.94065 38.6666 4.10399 38.9472C4.26733 39.2277 4.59401 39.4281 4.92069 39.4281H13.7002C14.6803 43.235 18.1921 46 22.2756 46C26.3183 46 29.8709 43.235 30.851 39.4281H39.6714C39.998 39.4281 40.3247 39.2277 40.4881 38.9472C40.6514 38.7067 40.6514 38.346 40.4472 38.0655ZM22.3164 44.1967C19.2946 44.1967 16.6404 42.233 15.7012 39.468H28.8909C27.9925 42.233 25.3382 44.1967 22.3164 44.1967Z" fill="#636466"/>
<path d="M41.9994 14.7018C41.9994 18.9094 38.5284 22.3557 34.1999 22.3557C29.9122 22.3557 26.4004 18.9495 26.4004 14.7018C26.4004 10.4541 29.8714 7.04785 34.1999 7.04785C38.5284 7.08792 41.9994 10.4941 41.9994 14.7018ZM34.2407 16.5853C34.7716 16.5853 35.2208 16.1844 35.2208 15.6635L35.4658 10.0934C35.5066 9.5324 35.0166 9.05149 34.4858 9.05149H33.9957C33.424 9.05149 32.9748 9.5324 33.0157 10.0934L33.2607 15.6635C33.2607 16.1844 33.669 16.5853 34.2407 16.5853ZM34.4449 17.8675C33.5874 17.7072 32.8115 18.4686 32.9749 19.3102C33.0565 19.8311 33.5057 20.2319 34.0366 20.3521C34.8941 20.5124 35.67 19.751 35.5066 18.9094C35.3841 18.3885 34.9758 17.9476 34.4449 17.8675Z" fill="#EB5500"/>
</svg>
