<svg width="48" height="48" viewBox="0 0 48 48" fill="none" xmlns="http://www.w3.org/2000/svg">
<path d="M34.0148 39.6094C34.0148 40.1802 33.4801 40.6634 32.8481 40.6634H31.0495C30.4176 40.6634 29.8828 40.1802 29.8828 39.6094C29.8828 39.0386 30.4176 38.5557 31.0495 38.5557H32.8481C33.4801 38.5557 34.0148 38.9947 34.0148 39.6094Z" fill="#636466"/>
<path d="M23.9515 21.7839C25.5557 21.7839 26.9168 20.5983 26.9168 19.1055V17.0857C26.9168 15.6367 25.6043 14.4072 23.9515 14.4072C22.3474 14.4072 20.9863 15.5928 20.9863 17.0857V19.1055C21.0349 20.5544 22.3474 21.7839 23.9515 21.7839ZM23.3682 17.0857C23.3682 16.7783 23.6599 16.5149 24.0002 16.5149C24.3405 16.5149 24.6322 16.7783 24.6322 17.0857V19.1055C24.6322 19.4128 24.3405 19.6762 24.0002 19.6762C23.6599 19.6762 23.3682 19.4128 23.3682 19.1055V17.0857Z" fill="#262626"/>
<path d="M35.1805 6.67822H27.5V8.78594H35.1805C35.4236 8.78594 35.6666 8.96157 35.6666 9.22502V24.7684V27.1394C35.6666 31.7059 31.5833 35.3943 26.5278 35.3943H12.3334V9.22502C12.3334 9.00548 12.5278 8.78594 12.8195 8.78594H20.5V6.67822H12.8195C11.2639 6.67822 10 7.81996 10 9.22502V41.4535C10 42.8585 11.2639 44.0001 12.8195 44.0001H35.1805C36.7361 44.0001 38 42.8585 38 41.4535V27.1394V25.6905V9.22502C38 7.81996 36.7361 6.67822 35.1805 6.67822ZM35.6666 41.4535C35.6666 41.673 35.4722 41.8926 35.1805 41.8926H12.8195C12.5764 41.8926 12.3334 41.7169 12.3334 41.4535V37.5018C12.4306 37.5018 12.4792 37.5018 12.5764 37.5018H26.5278C30.2708 37.5018 33.5764 35.8772 35.6666 33.4184V41.4535Z" fill="#636466"/>
<path d="M25.6536 22.1797H22.348C19.966 22.1797 18.0703 23.892 18.0703 26.0435V30.5662H29.9314V26.0435C29.9314 23.892 27.9869 22.1797 25.6536 22.1797ZM27.5495 28.4585H20.4035V26.0435C20.4035 25.0775 21.2785 24.2872 22.348 24.2872H25.6536C26.723 24.2872 27.598 25.0775 27.598 26.0435V28.4585H27.5495Z" fill="#262626"/>
<path d="M20.498 11.3765C20.498 12.1229 21.1785 12.7377 22.0049 12.7377H25.991C26.8174 12.7377 27.498 12.1229 27.498 11.3765V8.82989V6.72217V5.36098C27.498 4.61454 26.8174 4 25.991 4H22.0049C21.1785 4 20.498 4.61454 20.498 5.36098V6.72217V8.82989V11.3765ZM22.8313 6.1075H25.1161V10.6299H22.8313V6.1075Z" fill="#636466"/>
</svg>
