<svg width="48" height="48" viewBox="0 0 48 48" fill="none" xmlns="http://www.w3.org/2000/svg">
<path d="M2.83697 45.9994C2.44777 45.9994 2.09748 45.7257 2.01964 45.3346C1.9418 44.9435 2.09749 44.5523 2.44777 44.3958L7.54631 41.8147V31.216L7.35171 31.1768C5.91166 30.9813 4.82189 29.6906 4.82189 28.2436V23.6677C4.82189 22.1815 5.91166 20.93 7.35171 20.7344L7.54631 20.6955V20.4999C7.89659 14.7117 12.6838 10.1748 18.444 10.1748C24.2041 10.1748 29.0302 14.7117 29.3416 20.4999V20.6955L29.5362 20.7344C30.9762 20.93 32.066 22.1815 32.066 23.6677V28.2436C32.066 29.6906 30.9762 30.9813 29.5362 31.1768L29.3416 31.216V41.8147L34.4401 44.3958C34.7904 44.5523 34.985 44.9435 34.8683 45.3346C34.7904 45.7257 34.4401 45.9994 34.0509 45.9994H2.83697ZM30.6649 44.3177L24.4377 41.189L23.5814 44.3177H30.6649ZM21.83 44.3177L23.0365 39.8593V37.5908L22.7252 37.7472C21.5186 38.3729 20.2343 38.686 18.8721 38.686H18.1715C16.8093 38.686 15.5249 38.3729 14.3184 37.7472L14.0071 37.5908V39.8593L15.2136 44.3177H21.83ZM13.5011 44.3177L12.6449 41.189L6.41762 44.3177H13.5011ZM27.7848 40.9934V31.216H27.201L27.1621 31.4115C26.9286 33.2106 26.0723 34.9313 24.7879 36.2219L24.7101 36.3002V39.429L27.7848 40.9934ZM9.2588 40.9934L12.3335 39.4682V36.3394L12.2556 36.2611C10.9713 34.9705 10.115 33.2497 9.88152 31.4507L9.8426 31.2551H9.2588V40.9934ZM14.9801 17.1365C13.9681 17.684 13.1508 18.4661 12.5281 19.4439C11.8275 20.539 11.4772 21.7904 11.4772 23.081V30.2774C11.4772 33.9928 14.4741 37.0041 18.1715 37.0041H18.8721C21.6354 37.0041 24.0874 35.3225 25.0993 32.7412C25.4107 32.0763 25.5663 31.0986 25.5663 29.808V22.3771L25.3717 22.338C21.9079 21.9469 18.8332 19.7176 16.7704 18.2315C16.1866 17.8012 15.5249 17.332 15.1747 17.1365L15.0579 17.0973L14.9801 17.1365ZM29.2248 29.5341C29.9254 29.5341 30.5092 28.9476 30.5092 28.2436V23.6677C30.5092 22.9637 29.9254 22.3771 29.2248 22.3771H27.2399V29.4952H29.2248V29.5341ZM7.81875 22.4163C7.11819 22.4163 6.53439 23.0028 6.53439 23.7068V28.2827C6.53439 28.9867 7.11819 29.5733 7.81875 29.5733H9.80368V23.1202C9.80368 22.9637 9.80368 22.8464 9.80368 22.6899V22.4554H7.81875V22.4163ZM15.019 15.3765C15.6806 15.3765 16.4201 15.8849 17.7434 16.8626C19.8451 18.3879 23.0365 20.7344 26.3837 20.7344H27.7459V20.4999C27.3956 15.6894 23.309 11.8958 18.5218 11.8958C13.6957 11.8958 9.648 15.6894 9.29771 20.4999V20.7344H10.154L10.1929 20.578C10.4264 19.8741 10.7378 19.1702 11.127 18.5444C11.9832 17.2147 13.1508 16.1586 14.5519 15.4938C14.7076 15.4155 14.8633 15.3765 15.019 15.3765Z" fill="#636466"/>
<path d="M7.82122 31.2158C6.18657 31.2158 4.86328 29.886 4.86328 28.2434V23.6675C4.86328 22.0249 6.18657 20.6953 7.82122 20.6953H10.6235C11.0905 20.6953 11.4408 21.0863 11.4408 21.5165V30.3162C11.4408 30.7855 11.0516 31.1375 10.6235 31.1375H7.82122V31.2158ZM7.82122 22.4161C7.12065 22.4161 6.53685 23.0027 6.53685 23.7066V28.2826C6.53685 28.9865 7.12065 29.5731 7.82122 29.5731H9.80614V22.4553H7.82122V22.4161Z" fill="#636466"/>
<path d="M19.5742 32.6637C19.1071 32.6637 18.7568 32.2728 18.7568 31.8426C18.7568 31.4124 19.146 31.0212 19.5742 31.0212H21.2088C22.0261 31.0212 22.8045 30.7865 23.4662 30.3172L25.5679 28.9094V21.5958C25.5679 21.1264 25.9571 20.7744 26.3852 20.7744H29.1874C30.8221 20.7744 32.1454 22.1042 32.1454 23.7468V28.3227C32.1454 29.9653 30.8221 31.2949 29.1874 31.2949H26.3852C26.1517 31.2949 25.9571 31.2168 25.7625 31.0212L25.6457 30.8648L24.3613 31.7251C23.4273 32.3509 22.2986 32.7029 21.1699 32.7029H19.5742V32.6637ZM29.2264 29.535C29.9269 29.535 30.5107 28.9484 30.5107 28.2444V23.6685C30.5107 22.9645 29.9269 22.378 29.2264 22.378H27.2414V29.496H29.2264V29.535Z" fill="#636466"/>
<path d="M35.0237 19.1291C31.6766 19.1291 28.9521 16.3914 28.9521 13.0279C28.9521 9.66448 31.6766 6.92676 35.0237 6.92676C38.3708 6.92676 41.0952 9.66448 41.0952 13.0279C41.0952 16.3914 38.3708 19.1291 35.0237 19.1291ZM35.0237 8.88225C32.7663 8.88225 30.8982 10.7204 30.8982 13.0279C30.8982 15.3354 32.7274 17.1736 35.0237 17.1736C37.2811 17.1736 39.1492 15.3354 39.1492 13.0279C39.1492 10.7204 37.2811 8.88225 35.0237 8.88225Z" fill="#EB002F"/>
<path d="M35.0228 5.71543C34.4779 5.71543 34.0498 5.28522 34.0498 4.73768V2.97774C34.0498 2.43021 34.4779 2 35.0228 2C35.5677 2 35.9958 2.43021 35.9958 2.97774V4.73768C35.9958 5.24611 35.5677 5.71543 35.0228 5.71543Z" fill="#EB002F"/>
<path d="M40.8606 8.14053C40.6271 8.14053 40.3547 8.06224 40.1601 7.86669C39.7709 7.47559 39.7709 6.84983 40.1601 6.49785L41.4055 5.24645C41.7947 4.85535 42.4174 4.85535 42.7677 5.24645C43.1569 5.63755 43.1569 6.2633 42.7677 6.61529L41.5223 7.86669C41.3666 8.02313 41.0942 8.14053 40.8606 8.14053Z" fill="#EB002F"/>
<path d="M43.2748 14.0082C42.7299 14.0082 42.3018 13.578 42.3018 13.0305C42.3018 12.4829 42.7299 12.0527 43.2748 12.0527H45.0262C45.5711 12.0527 45.9992 12.4829 45.9992 13.0305C45.9992 13.578 45.5711 14.0082 45.0262 14.0082H43.2748Z" fill="#EB002F"/>
<path d="M42.0671 21.086C41.8336 21.086 41.5611 21.0077 41.3665 20.8121L40.1211 19.5605C39.9265 19.365 39.8486 19.1304 39.8486 18.8566C39.8486 18.3091 40.2768 17.8789 40.8216 17.8789C41.133 17.8789 41.3665 17.9962 41.5611 18.2309L42.7287 19.4041C43.1179 19.7952 43.1179 20.421 42.7287 20.773C42.573 21.0076 42.3395 21.086 42.0671 21.086Z" fill="#EB002F"/>
<path d="M35.0228 24.0191C34.4779 24.0191 34.0498 23.5889 34.0498 23.0414V21.2815C34.0498 20.7339 34.4779 20.3037 35.0228 20.3037C35.5677 20.3037 35.9958 20.7339 35.9958 21.2815V23.0414C35.9958 23.5889 35.5677 24.0191 35.0228 24.0191Z" fill="#EB002F"/>
<path d="M29.1852 8.14102C28.9517 8.14102 28.6792 8.06272 28.4846 7.86718L27.2392 6.61578C26.85 6.22468 26.85 5.59892 27.2392 5.24694C27.6284 4.85584 28.2511 4.85584 28.6014 5.24694L29.8468 6.49833C30.236 6.88943 30.236 7.51519 29.8468 7.86718C29.6911 8.02361 29.4187 8.14102 29.1852 8.14102Z" fill="#EB002F"/>
</svg>
