<svg width="48" height="48" viewBox="0 0 48 48" fill="none" xmlns="http://www.w3.org/2000/svg">
<path d="M45.6238 18.5954L42.5441 16.7785L42.0198 16.4705L40.3489 15.485L40.3161 15.4543L40.2834 15.4235V9.32586C40.2834 8.92552 39.923 8.5868 39.4971 8.5868H35.2051C34.7792 8.5868 34.4187 8.92552 34.4187 9.32586V12.0051L24.1966 6.06165C24.1311 6.03086 24.0655 6 24 6C23.9344 6 23.869 6.03086 23.8034 6.06165L7.7166 15.4543C7.7166 15.4543 7.68388 15.4542 7.68388 15.485L2.37616 18.5954C2.01576 18.8109 1.88477 19.273 2.11411 19.6117C2.27793 19.8273 2.50727 19.9503 2.76938 19.9503C2.90043 19.9503 3.06419 19.9196 3.19524 19.8272L5.29214 18.5954V41.6612C5.29214 41.846 5.45591 42 5.65249 42H20.1012H20.134H27.8661H27.8989H42.3474C42.544 42 42.7079 41.846 42.7079 41.6612V18.6262L44.8047 19.858C44.9358 19.9196 45.0668 19.9812 45.2306 19.9812C45.4927 19.9812 45.7549 19.8579 45.8859 19.6424C46.1152 19.2728 45.9842 18.8109 45.6238 18.5954ZM35.9259 10.0958H38.6453V14.5304L35.9259 12.9598V10.0958ZM41.1025 40.5527H28.6524H27.0798H20.8547H19.2821H6.832V17.7023L23.9673 7.69376L39.0384 16.4705L41.1352 17.7023V40.5527H41.1025Z" fill="#636466"/>
<path d="M27.8335 26.4785H20.1013C19.6426 26.4785 19.2822 26.8173 19.2822 27.2484V40.5213H20.8549V27.9566H27.0799V40.5213H28.6526V27.2484C28.6526 26.8481 28.2922 26.4785 27.8335 26.4785Z" fill="#00738A"/>
</svg>
